SplineFontDB: 3.0
FontName: IranianSans-Regular
FullName: Iranian Sans Regular
FamilyName: Iranian Sans 
Weight: Regular
Copyright: Copyright (c) 2014, font-store.ir <http://font-store.ir|info@font-store.ir>,with Reserved Font Name Iranian Sans .\n\nThis Font Software is licensed under the SIL Open Font License, Version 1.1.\nThis license is copied below, and is also available with a FAQ at:\nhttp://scripts.sil.org/OFL
Version: 5.0.0 build 1/7/1393
ItalicAngle: 0
UnderlinePosition: -100
UnderlineWidth: 100
Ascent: 1556
Descent: 492
InvalidEm: 0
sfntRevision: 0x00010000
LayerCount: 2
Layer: 0 0 "Back" 1
Layer: 1 0 "Fore" 0
XUID: [1021 107 -802105209 1359]
FSType: 0
OS2Version: 4
OS2_WeightWidthSlopeOnly: 0
OS2_UseTypoMetrics: 1
CreationTime: 1159092060
ModificationTime: 1454096287
PfmFamily: 81
TTFWeight: 400
TTFWidth: 5
LineGap: 0
VLineGap: 0
Panose: 2 0 5 3 0 0 0 0 0 0
OS2TypoAscent: 1556
OS2TypoAOffset: 0
OS2TypoDescent: -492
OS2TypoDOffset: 0
OS2TypoLinegap: 0
OS2WinAscent: 1901
OS2WinAOffset: 0
OS2WinDescent: 483
OS2WinDOffset: 0
HheadAscent: 1901
HheadAOffset: 0
HheadDescent: -483
HheadDOffset: 0
OS2SubXSize: 1331
OS2SubYSize: 1433
OS2SubXOff: -212
OS2SubYOff: 286
OS2SupXSize: 1331
OS2SupYSize: 1433
OS2SupXOff: 730
OS2SupYOff: 983
OS2StrikeYSize: 102
OS2StrikeYPos: 530
OS2Vendor: 'RITA'
OS2CodePages: 00000040.20080000
OS2UnicodeRanges: 80002003.80002042.00000008.00000000
Lookup: 4 1 0 "'ccmp' Glyph Composition/Decomposition in Arabic lookup 0" { "'ccmp' Glyph Composition/Decomposition in Arabic lookup 0 subtable"  } ['ccmp' ('arab' <'ARA ' 'dflt' > ) ]
Lookup: 4 1 1 "'rlig' Required Ligatures in Arabic lookup 1" { "'rlig' Required Ligatures in Arabic lookup 1 subtable"  } ['rlig' ('arab' <'dflt' > ) ]
Lookup: 4 9 1 "'rlig' Required Ligatures in Arabic lookup 2" { "'rlig' Required Ligatures in Arabic lookup 2 subtable"  } ['rlig' ('arab' <'ARA ' 'dflt' > ) ]

StartChar: .notdef
Encoding: 65536 -1 0
Width: 959
VWidth: 1524
GlyphClass: 2
Flags: HMW
LayerCount: 2
Fore
SplineSet
80 -357 m 1
 80 1054 l 1
 880 1054 l 1
 880 -357 l 1
 80 -357 l 1
791 963 m 1
 170 963 l 1
 170 -269 l 1
 791 -269 l 1
 791 963 l 1
EndSplineSet
Validated: 1
EndChar

StartChar: exclam
Encoding: 33 33 4
Width: 640
VWidth: 1524
GlyphClass: 2
Flags: HMW
LayerCount: 2
Fore
SplineSet
401 -75 m 1
 242 -75 l 1
 242 123 l 1
 401 123 l 1
 401 -75 l 1
386 301 m 1
 258 301 l 1
 242 580 l 1
 242 1092 l 1
 401 1092 l 1
 401 580 l 1
 386 301 l 1
EndSplineSet
Validated: 1
Substitution2: "'calt' Contextual Alternates in Arabic lookup 9 subtable" exclam.fa
EndChar

StartChar: uni0022
Encoding: 34 34 5
Width: 734
VWidth: 1524
GlyphClass: 2
Flags: HMW
LayerCount: 2
Fore
SplineSet
287 659 m 1
 155 659 l 1
 155 1092 l 1
 287 1092 l 1
 287 659 l 1
583 659 m 1
 449 659 l 1
 449 1092 l 1
 583 1092 l 1
 583 659 l 1
EndSplineSet
Validated: 1
EndChar

StartChar: uni0023
Encoding: 35 35 6
Width: 1340
VWidth: 1524
GlyphClass: 2
Flags: HMW
LayerCount: 2
Fore
SplineSet
755 369 m 1
 819 630 l 1
 591 630 l 1
 525 369 l 1
 755 369 l 1
1129 249 m 1
 850 249 l 1
 769 -75 l 1
 644 -75 l 1
 724 249 l 1
 494 249 l 1
 415 -75 l 1
 288 -75 l 1
 371 249 l 1
 123 249 l 1
 123 369 l 1
 398 369 l 1
 465 630 l 1
 212 630 l 1
 212 750 l 1
 494 750 l 1
 574 1074 l 1
 702 1074 l 1
 619 750 l 1
 849 750 l 1
 930 1074 l 1
 1055 1074 l 1
 975 750 l 1
 1219 750 l 1
 1219 630 l 1
 945 630 l 1
 880 369 l 1
 1129 369 l 1
 1129 249 l 1
EndSplineSet
Validated: 1
EndChar

StartChar: uni0024
Encoding: 36 36 7
Width: 1017
VWidth: 1524
GlyphClass: 2
Flags: HMW
LayerCount: 2
Fore
SplineSet
540 961 m 1
 638 955.666666667 729.333333333 939.333333333 814 912 c 1
 814 775 l 1
 730 818.333333333 638.666666667 842.666666667 540 848 c 1
 540 513 l 1
 658.666666667 495 745.833333333 462.5 801.5 415.5 c 128
 857.166666667 368.5 885 302.666666667 885 218 c 128
 885 133.333333333 855.5 65.6666666667 796.5 15 c 128
 737.5 -35.6666666667 652 -65.3333333333 540 -74 c 1
 540 -310 l 1
 463 -310 l 1
 462 -75 l 1
 348.666666667 -72.3333333333 239 -48.6666666667 133 -4 c 1
 133 137 l 1
 238.333333333 71 348.333333333 37.3333333333 463 36 c 1
 463 392 l 1
 347.666666667 410 263.833333333 441.666666667 211.5 487 c 128
 159.166666667 532.333333333 133 595.833333333 133 677.5 c 128
 133 759.166666667 161.333333333 824.333333333 218 873 c 128
 274.666666667 921.666666667 356.333333333 950 463 958 c 1
 463 1141 l 1
 540 1141 l 1
 540 961 l 1
463 848 m 1
 338.333333333 834 276 779.333333333 276 684 c 0
 276 639.333333333 291 604.666666667 321 580 c 128
 351 555.333333333 398.333333333 537.666666667 463 527 c 1
 463 848 l 1
540 39 m 1
 674 55 741 111.333333333 741 208 c 0
 741 254 725.166666667 290.333333333 693.5 317 c 128
 661.833333333 343.666666667 610.666666667 363.333333333 540 376 c 1
 540 39 l 1
EndSplineSet
Validated: 1
EndChar

StartChar: uni0025
Encoding: 37 37 8
Width: 1519
VWidth: 1524
GlyphClass: 2
Flags: HMW
LayerCount: 2
Fore
SplineSet
1057.5 60 m 128
 1083.16666667 21.3333333333 1118.33333333 2 1163 2 c 128
 1207.66666667 2 1243 21.3333333333 1269 60 c 128
 1295 98.6666666667 1308 152 1308 220 c 128
 1308 288 1295.16666667 341.5 1269.5 380.5 c 128
 1243.83333333 419.5 1208.5 439 1163.5 439 c 128
 1118.5 439 1083.16666667 419.5 1057.5 380.5 c 128
 1031.83333333 341.5 1019 288 1019 220 c 128
 1019 152 1031.83333333 98.6666666667 1057.5 60 c 128
1359.5 452.5 m 128
 1407.83333333 395.5 1432 317.833333333 1432 219.5 c 128
 1432 121.166666667 1407.66666667 43.6666666667 1359 -13 c 0
 1310.33333333 -69.6666666667 1244.66666667 -98 1162 -98 c 2
 1161 -98 l 2
 1079 -98 1014 -69.3333333333 966 -12 c 128
 918 45.3333333333 894 123 894 221 c 128
 894 319 918.5 396.333333333 967.5 453 c 128
 1016.5 509.666666667 1082 538 1164 538 c 128
 1246 538 1311.16666667 509.5 1359.5 452.5 c 128
356 577 m 256
 401.333333333 577 437 596.333333333 463 635 c 128
 489 673.666666667 502 727 502 795 c 128
 502 863 489.166666667 916.5 463.5 955.5 c 128
 437.833333333 994.5 402 1014 356 1014 c 256
 311.333333333 1014 276.166666667 994.666666667 250.5 956 c 128
 224.833333333 917.333333333 212 863.833333333 212 795.5 c 128
 212 727.166666667 224.666666667 673.666666667 250 635 c 128
 275.333333333 596.333333333 310.666666667 577 356 577 c 256
459 -98 m 1
 334 -98 l 1
 1064 1114 l 1
 1188 1114 l 1
 459 -98 l 1
629 796 m 128
 629 698 604.5 620.666666667 555.5 564 c 128
 506.5 507.333333333 440 478.333333333 356 477 c 256
 273.333333333 477 208 505.666666667 160 563 c 128
 112 620.333333333 88 697.833333333 88 795.5 c 128
 88 893.166666667 112.166666667 970.666666667 160.5 1028 c 128
 208.833333333 1085.33333333 274 1114 356 1114 c 256
 438 1114 504 1085.5 554 1028.5 c 128
 604 971.5 629 894 629 796 c 128
EndSplineSet
Validated: 1
EndChar

StartChar: uni0026
Encoding: 38 38 9
Width: 1247
VWidth: 1524
GlyphClass: 2
Flags: HMW
LayerCount: 2
Fore
SplineSet
1144 551 m 1
 1130 409 1075.33333333 274.666666667 980 148 c 1
 1199 -75 l 1
 1002 -75 l 1
 891 40 l 1
 782.333333333 -50.6666666667 663.333333333 -96.3333333333 534 -97 c 1
 531 -97 l 1
 402.333333333 -96.3333333333 298.5 -60.5 219.5 10.5 c 128
 140.5 81.5 101 172.333333333 101 283 c 0
 101 417.666666667 170.666666667 536 310 638 c 1
 258.666666667 704 233 774 233 848 c 128
 233 922 262 984.833333333 320 1036.5 c 128
 378 1088.16666667 451.833333333 1114 541.5 1114 c 128
 631.166666667 1114 721.333333333 1095 812 1057 c 1
 812 915 l 1
 718.666666667 965.666666667 640.666666667 991 578 991 c 128
 515.333333333 991 467.166666667 976.166666667 433.5 946.5 c 128
 399.833333333 916.833333333 383 884 383 848 c 128
 383 812 390.5 780.666666667 405.5 754 c 128
 420.5 727.333333333 452 689.333333333 500 640 c 2
 898 233 l 1
 962 330.333333333 995.333333333 436.333333333 998 551 c 1
 1144 551 l 1
390 553 m 1
 298 471.666666667 252 389.333333333 252 306 c 128
 252 222.666666667 279.666666667 155.5 335 104.5 c 128
 390.333333333 53.5 463.333333333 28 554 28 c 128
 644.666666667 28 728 61.6666666667 804 129 c 1
 390 553 l 1
EndSplineSet
Validated: 1
EndChar

StartChar: uni0027
Encoding: 39 39 10
Width: 437
VWidth: 1524
GlyphClass: 2
Flags: HMW
LayerCount: 2
Fore
SplineSet
155 660 m 1
 155 1092 l 1
 287 1092 l 1
 287 660 l 1
 155 660 l 1
EndSplineSet
Validated: 1
EndChar

StartChar: parenleft
Encoding: 40 40 11
Width: 623
VWidth: 1524
GlyphClass: 2
Flags: HMW
LayerCount: 2
Fore
SplineSet
289 428 m 256
 289 188 358 -50 496 -286 c 1
 372 -286 l 1
 215.333333333 -40.6666666667 137 197.833333333 137 429.5 c 128
 137 661.166666667 215.333333333 898 372 1140 c 1
 496 1140 l 1
 358 903.333333333 289 666 289 428 c 256
EndSplineSet
Validated: 1
EndChar

StartChar: parenright
Encoding: 41 41 12
Width: 623
VWidth: 1524
GlyphClass: 2
Flags: HMW
LayerCount: 2
Fore
SplineSet
253 1140 m 1
 409 894.666666667 487 656 487 424 c 128
 487 192 409 -44.6666666667 253 -286 c 1
 129 -286 l 1
 267 -47.3333333333 336 190.666666667 336 428 c 256
 336 664 267 901.333333333 129 1140 c 1
 253 1140 l 1
EndSplineSet
Validated: 1
EndChar

StartChar: asterisk
Encoding: 42 42 13
Width: 798
VWidth: 1524
GlyphClass: 2
Flags: HMW
LayerCount: 2
Fore
SplineSet
708 519 m 1
 445 679 l 1
 445 384 l 1
 355 384 l 1
 355 679 l 1
 93 519 l 1
 47 596 l 1
 328 749 l 1
 47 900 l 1
 93 978 l 1
 355 819 l 1
 355 1114 l 1
 445 1114 l 1
 445 819 l 1
 708 978 l 1
 754 900 l 1
 472 749 l 1
 754 596 l 1
 708 519 l 1
EndSplineSet
Validated: 1
EndChar

StartChar: plus
Encoding: 43 43 14
Width: 1340
VWidth: 1524
GlyphClass: 2
Flags: HMW
LayerCount: 2
Fore
SplineSet
1172 360 m 1
 737 360 l 1
 737 -75 l 1
 605 -75 l 1
 605 360 l 1
 170 360 l 1
 170 493 l 1
 605 493 l 1
 605 929 l 1
 737 929 l 1
 737 493 l 1
 1172 493 l 1
 1172 360 l 1
EndSplineSet
Validated: 1
EndChar

StartChar: uni002C
Encoding: 44 44 15
Width: 507
VWidth: 1524
GlyphClass: 2
Flags: HMW
LayerCount: 2
Fore
SplineSet
225 -261 m 1
 123 -261 l 1
 188 -10 l 1
 188 123 l 1
 353 123 l 1
 353 -10 l 1
 225 -261 l 1
EndSplineSet
Validated: 1
EndChar

StartChar: hyphen_minus
Encoding: 45 45 16
Width: 576
VWidth: 1524
GlyphClass: 2
Flags: HMW
LayerCount: 2
Fore
SplineSet
500 300 m 1
 79 300 l 1
 79 428 l 1
 500 428 l 1
 500 300 l 1
EndSplineSet
Validated: 1
EndChar

StartChar: period
Encoding: 46 46 17
Width: 507
VWidth: 1524
GlyphClass: 2
Flags: HMW
LayerCount: 2
Fore
SplineSet
337 -75 m 1
 172 -75 l 1
 172 123 l 1
 337 123 l 1
 337 -75 l 1
EndSplineSet
Validated: 1
Substitution2: "'calt' Contextual Alternates in Arabic lookup 9 subtable" period.fa
EndChar

StartChar: slash
Encoding: 47 47 18
Width: 537
VWidth: 1524
GlyphClass: 2
Flags: HMW
LayerCount: 2
Fore
SplineSet
133 -224 m 1
 0 -224 l 1
 407 1092 l 1
 540 1092 l 1
 133 -224 l 1
EndSplineSet
Validated: 1
EndChar

StartChar: colon
Encoding: 58 58 19
Width: 537
VWidth: 1524
GlyphClass: 2
Flags: HMW
LayerCount: 2
Fore
SplineSet
353 -75 m 1
 188 -75 l 1
 188 123 l 1
 353 123 l 1
 353 -75 l 1
353 555 m 1
 188 555 l 1
 188 754 l 1
 353 754 l 1
 353 555 l 1
EndSplineSet
Validated: 1
Substitution2: "'calt' Contextual Alternates in Arabic lookup 9 subtable" colon.fa
EndChar

StartChar: uni003B
Encoding: 59 59 20
Width: 537
VWidth: 1524
GlyphClass: 2
Flags: HMW
LayerCount: 2
Fore
SplineSet
353 555 m 1
 188 555 l 1
 188 754 l 1
 353 754 l 1
 353 555 l 1
225 -261 m 1
 123 -261 l 1
 188 -10 l 1
 188 123 l 1
 353 123 l 1
 353 -10 l 1
 225 -261 l 1
EndSplineSet
Validated: 1
EndChar

StartChar: uni003C
Encoding: 60 60 21
Width: 1340
VWidth: 1524
GlyphClass: 2
Flags: HMW
LayerCount: 2
Fore
SplineSet
1172 -2 m 1
 170 362 l 1
 170 492 l 1
 1172 855 l 1
 1172 713 l 1
 366 426 l 1
 1172 140 l 1
 1172 -2 l 1
EndSplineSet
Validated: 1
EndChar

StartChar: equal
Encoding: 61 61 22
Width: 1340
VWidth: 1524
GlyphClass: 2
Flags: HMW
LayerCount: 2
Fore
SplineSet
1172 520 m 1
 170 520 l 1
 170 651 l 1
 1172 651 l 1
 1172 520 l 1
1172 200 m 1
 170 200 l 1
 170 334 l 1
 1172 334 l 1
 1172 200 l 1
EndSplineSet
Validated: 1
EndChar

StartChar: uni003E
Encoding: 62 62 23
Width: 1340
VWidth: 1524
GlyphClass: 2
Flags: HMW
LayerCount: 2
Fore
SplineSet
1172 362 m 1
 170 -2 l 1
 170 140 l 1
 975 426 l 1
 170 713 l 1
 170 855 l 1
 1172 492 l 1
 1172 362 l 1
EndSplineSet
Validated: 1
EndChar

StartChar: uni003F
Encoding: 63 63 24
Width: 848
VWidth: 1524
GlyphClass: 2
Flags: HMW
LayerCount: 2
Fore
SplineSet
465 -75 m 1
 304 -75 l 1
 304 123 l 1
 465 123 l 1
 465 -75 l 1
115 1025 m 1
 215 1084.33333333 314.833333333 1114 414.5 1114 c 128
 514.166666667 1114 593 1088.5 651 1037.5 c 128
 709 986.5 738 919.666666667 738 837 c 0
 738 797 728.833333333 759.166666667 710.5 723.5 c 128
 692.166666667 687.833333333 659.333333333 647.666666667 612 603 c 2
 542 537 l 1
 506 501.666666667 483.333333333 472.666666667 474 450 c 0
 464.666666667 427.333333333 460 389.333333333 460 336 c 2
 460 239 l 1
 310 239 l 1
 310 358 l 2
 310 410.666666667 317.333333333 454.166666667 332 488.5 c 128
 346.666666667 522.833333333 377.666666667 562.333333333 425 607 c 1
 494 677 l 1
 551.333333333 731.666666667 580 782.333333333 580 829 c 128
 580 875.666666667 562.666666667 913.333333333 528 942 c 128
 493.333333333 970.666666667 448 985 392 985 c 0
 311.333333333 985 219 949.333333333 115 878 c 1
 115 1025 l 1
EndSplineSet
Validated: 1
EndChar

StartChar: uni0040
Encoding: 64 64 25
Width: 1599
VWidth: 1524
GlyphClass: 2
Flags: HMW
LayerCount: 2
Fore
SplineSet
651.5 169.5 m 128
 688.5 127.166666667 739.166666667 106 803.5 106 c 128
 867.833333333 106 918.5 127.166666667 955.5 169.5 c 128
 992.5 211.833333333 1011 269.833333333 1011 343.5 c 128
 1011 417.166666667 992.166666667 475.666666667 954.5 519 c 128
 916.833333333 562.333333333 866.333333333 584 803 584 c 128
 739.666666667 584 689.333333333 562.5 652 519.5 c 128
 614.666666667 476.5 596 418 596 344 c 128
 596 270 614.5 211.833333333 651.5 169.5 c 128
812 -242 m 0
 949.333333333 -242 1074.66666667 -198 1188 -110 c 1
 1260 -197 l 1
 1125.33333333 -301.666666667 976 -354 812 -354 c 0
 614.666666667 -354 447.333333333 -287.333333333 310 -154 c 256
 174 -20.6666666667 106 145.666666667 106 345 c 0
 106 544.333333333 174 712 310 848 c 0
 447.333333333 984 618.333333333 1052 823 1052 c 0
 933 1052 1035.5 1029.33333333 1130.5 984 c 128
 1225.5 938.666666667 1305 874.333333333 1369 791 c 0
 1449.66666667 685.666666667 1490 566.333333333 1490 433 c 128
 1490 299.666666667 1448.5 193.166666667 1365.5 113.5 c 128
 1282.5 33.8333333333 1168 -7.33333333333 1022 -10 c 1
 1022 111 l 1
 961.333333333 31.6666666667 882.5 -8 785.5 -8 c 128
 688.5 -8 611.666666667 24.8333333333 555 90.5 c 128
 498.333333333 156.166666667 470 241 470 345 c 256
 470 449 498.166666667 533.666666667 554.5 599 c 128
 610.833333333 664.333333333 687.166666667 697 783.5 697 c 128
 879.833333333 697 959.333333333 657.666666667 1022 579 c 1
 1022 682 l 1
 1135 682 l 1
 1135 106 l 1
 1211 117.333333333 1270.33333333 152.166666667 1313 210.5 c 128
 1355.66666667 268.833333333 1377 348.666666667 1377 450 c 0
 1377 551.333333333 1346.66666667 640.333333333 1286 717 c 0
 1167.33333333 865.666666667 1013.66666667 940 825 940 c 0
 697.666666667 940 581.666666667 906.333333333 477 839 c 0
 395 785 331 715.333333333 285 630 c 0
 239 544.666666667 216 456 216 364 c 0
 216 185.333333333 273.333333333 39.6666666667 388 -73 c 0
 502.666666667 -185.666666667 644 -242 812 -242 c 0
EndSplineSet
Validated: 1
EndChar

StartChar: bracketleft
Encoding: 91 91 26
Width: 623
VWidth: 1524
GlyphClass: 2
Flags: HMW
LayerCount: 2
Fore
SplineSet
469 -286 m 1
 137 -286 l 1
 137 1141 l 1
 469 1141 l 1
 469 1030 l 1
 282 1030 l 1
 282 -174 l 1
 469 -174 l 1
 469 -286 l 1
EndSplineSet
Validated: 1
EndChar

StartChar: uni005C
Encoding: 92 92 27
Width: 537
VWidth: 1524
GlyphClass: 2
Flags: HMW
LayerCount: 2
Fore
SplineSet
540 -224 m 1
 407 -224 l 1
 0 1092 l 1
 133 1092 l 1
 540 -224 l 1
EndSplineSet
Validated: 1
EndChar

StartChar: bracketright
Encoding: 93 93 28
Width: 623
VWidth: 1524
GlyphClass: 2
Flags: HMW
LayerCount: 2
Fore
SplineSet
487 -286 m 1
 156 -286 l 1
 156 -174 l 1
 342 -174 l 1
 342 1030 l 1
 156 1030 l 1
 156 1141 l 1
 487 1141 l 1
 487 -286 l 1
EndSplineSet
Validated: 1
EndChar

StartChar: uni005E
Encoding: 94 94 29
Width: 1340
VWidth: 1524
GlyphClass: 2
Flags: HMW
LayerCount: 2
Fore
SplineSet
1172 657 m 1
 1014 657 l 1
 670 965 l 1
 326 657 l 1
 170 657 l 1
 594 1092 l 1
 748 1092 l 1
 1172 657 l 1
EndSplineSet
Validated: 1
EndChar

StartChar: uni005F
Encoding: 95 95 30
Width: 798
VWidth: 1524
GlyphClass: 2
Flags: HMW
LayerCount: 2
Fore
SplineSet
816 -452 m 1
 -15 -452 l 1
 -15 -340 l 1
 816 -340 l 1
 816 -452 l 1
EndSplineSet
Validated: 1
EndChar

StartChar: uni0060
Encoding: 96 96 31
Width: 798
VWidth: 1524
GlyphClass: 2
Flags: HMW
LayerCount: 2
Fore
SplineSet
508 913 m 1
 388 913 l 1
 133 1206 l 1
 287 1206 l 1
 508 913 l 1
EndSplineSet
Validated: 1
EndChar

StartChar: braceleft
Encoding: 123 123 32
Width: 1017
VWidth: 1524
GlyphClass: 2
Flags: HMW
LayerCount: 2
Fore
SplineSet
819 -337 m 1
 771 -337 l 2
 641 -337 554 -317.666666667 510 -279 c 128
 466 -240.333333333 444 -163 444 -47 c 2
 444 139 l 2
 444 217.666666667 429.666666667 272.166666667 401 302.5 c 128
 372.333333333 332.833333333 321.333333333 348 248 348 c 2
 200 348 l 1
 200 460 l 1
 248 460 l 2
 322.666666667 460 374 475 402 505 c 128
 430 535 444 588.666666667 444 666 c 2
 444 853 l 2
 444 968.333333333 465.833333333 1045.16666667 509.5 1083.5 c 128
 553.166666667 1121.83333333 640.333333333 1141 771 1141 c 2
 819 1141 l 1
 819 1030 l 1
 766 1030 l 2
 692.666666667 1030 644.666666667 1018.5 622 995.5 c 128
 599.333333333 972.5 588 924.333333333 588 851 c 2
 588 657 l 2
 588 575 576.166666667 515.5 552.5 478.5 c 128
 528.833333333 441.5 488 416.666666667 430 404 c 1
 487.333333333 389.333333333 528 363.666666667 552 327 c 128
 576 290.333333333 588 231 588 149 c 2
 588 -44 l 2
 588 -117.333333333 599.166666667 -165.666666667 621.5 -189 c 128
 643.833333333 -212.333333333 692 -224 766 -224 c 2
 819 -224 l 1
 819 -337 l 1
EndSplineSet
Validated: 1
EndChar

StartChar: uni007C
Encoding: 124 124 33
Width: 537
VWidth: 1524
GlyphClass: 2
Flags: HMW
LayerCount: 2
Fore
SplineSet
337 -452 m 1
 204 -452 l 1
 204 1149 l 1
 337 1149 l 1
 337 -452 l 1
EndSplineSet
Validated: 1
EndChar

StartChar: braceright
Encoding: 125 125 34
Width: 1017
VWidth: 1524
GlyphClass: 2
Flags: HMW
LayerCount: 2
Fore
SplineSet
574 -47 m 2
 574 -162.333333333 552.333333333 -239.5 509 -278.5 c 128
 465.666666667 -317.5 379.333333333 -337 250 -337 c 2
 200 -337 l 1
 200 -224 l 1
 254 -224 l 2
 326.666666667 -224 374.166666667 -212.666666667 396.5 -190 c 128
 418.833333333 -167.333333333 430 -118.666666667 430 -44 c 2
 430 149 l 2
 430 230.333333333 441.833333333 289.666666667 465.5 327 c 128
 489.166666667 364.333333333 530 390 588 404 c 1
 530.666666667 417.333333333 490 442.5 466 479.5 c 128
 442 516.5 430 575.666666667 430 657 c 2
 430 851 l 2
 430 925 419 973.333333333 397 996 c 0
 374.333333333 1018.66666667 326.666666667 1030 254 1030 c 2
 200 1030 l 1
 200 1141 l 1
 250 1141 l 2
 380 1141 466.5 1122 509.5 1084 c 128
 552.5 1046 574 969 574 853 c 2
 574 666 l 2
 574 588 588.333333333 534.166666667 617 504.5 c 128
 645.666666667 474.833333333 697 460 771 460 c 2
 819 460 l 1
 819 348 l 1
 771 348 l 2
 697 348 645.666666667 332.833333333 617 302.5 c 128
 588.333333333 272.166666667 574 217.666666667 574 139 c 2
 574 -47 l 2
EndSplineSet
Validated: 1
EndChar

StartChar: uni007E
Encoding: 126 126 35
Width: 1340
VWidth: 1524
GlyphClass: 2
Flags: HMW
LayerCount: 2
Fore
SplineSet
892 439 m 0
 977.333333333 439 1070.66666667 480.666666667 1172 564 c 1
 1172 425 l 1
 1066.66666667 347.666666667 972 309 888 309 c 0
 804 309 723 328.666666667 645 368 c 1
 565.666666667 399.333333333 501.333333333 415 452 415 c 2
 449 415 l 2
 359.666666667 415 266.666666667 373 170 289 c 1
 170 429 l 1
 275.333333333 506.333333333 374.666666667 545 468 545 c 0
 524.666666667 545 596.5 527.333333333 683.5 492 c 128
 770.5 456.666666667 840 439 892 439 c 0
EndSplineSet
Validated: 1
EndChar

StartChar: uni00A4
Encoding: 164 164 36
Width: 1017
VWidth: 1524
GlyphClass: 2
Flags: HMW
LayerCount: 2
Fore
SplineSet
787 614 m 1
 825 551.333333333 844 487.5 844 422.5 c 128
 844 357.5 823.333333333 297.333333333 782 242 c 1
 946 81 l 1
 857 -10 l 1
 696 155 l 1
 634.666666667 113.666666667 573.5 93 512.5 93 c 128
 451.5 93 388.333333333 112.333333333 323 151 c 1
 162 -10 l 1
 74 79 l 1
 235 240 l 1
 197 305.333333333 178 369 178 431 c 128
 178 493 197.666666667 553 237 611 c 1
 75 772 l 1
 164 862 l 1
 326 701 l 1
 380.666666667 739 441.166666667 758 507.5 758 c 128
 573.833333333 758 637 739.333333333 697 702 c 1
 858 865 l 1
 947 775 l 1
 787 614 l 1
511 217 m 256
 569.666666667 217 619.166666667 237.166666667 659.5 277.5 c 128
 699.833333333 317.833333333 720 367.5 720 426.5 c 128
 720 485.5 700 535 660 575 c 128
 620 615 570.666666667 635 512 635 c 128
 453.333333333 635 403.333333333 615.166666667 362 575.5 c 128
 320.666666667 535.833333333 300 486.5 300 427.5 c 128
 300 368.5 320.5 318.666666667 361.5 278 c 128
 402.5 237.333333333 452.333333333 217 511 217 c 256
EndSplineSet
Validated: 1
EndChar

StartChar: uni00A7
Encoding: 167 167 37
Width: 798
VWidth: 1524
GlyphClass: 2
Flags: HMW
LayerCount: 2
Fore
SplineSet
297 657 m 1
 231.666666667 609 199 563.166666667 199 519.5 c 128
 199 475.833333333 217 436.833333333 253 402.5 c 128
 289 368.166666667 372 316 502 246 c 1
 568 294.666666667 601 340.333333333 601 383 c 128
 601 425.666666667 582.333333333 464.666666667 545 500 c 128
 507.666666667 535.333333333 425 587.666666667 297 657 c 1
596 -162.5 m 128
 542.666666667 -206.166666667 474.666666667 -228 392 -228 c 128
 309.333333333 -228 223.333333333 -212.666666667 134 -182 c 1
 134 -55 l 1
 224.666666667 -95 299 -115 357 -115 c 128
 415 -115 458.666666667 -103.833333333 488 -81.5 c 128
 517.333333333 -59.1666666667 532 -28.6666666667 532 10 c 0
 532 63.3333333333 474 122 358 186 c 2
 338 197 l 1
 226.666666667 259.666666667 154.5 311 121.5 351 c 128
 88.5 391 72 437.666666667 72 491 c 0
 72 586.333333333 120 659.666666667 216 711 c 1
 154 758.333333333 123 816.5 123 885.5 c 128
 123 954.5 149.166666667 1009.83333333 201.5 1051.5 c 128
 253.833333333 1093.16666667 320.5 1114 401.5 1114 c 128
 482.5 1114 565 1098.66666667 649 1068 c 1
 649 940 l 1
 563 980 492 1000 436 1000 c 0
 324 1000 268 961 268 883 c 0
 268 835 321.333333333 781.333333333 428 722 c 0
 442 714.666666667 452.666666667 708.666666667 460 704 c 0
 569.333333333 642 641.333333333 591.166666667 676 551.5 c 128
 710.666666667 511.833333333 728 465.333333333 728 412 c 0
 728 320 679.666666667 246.333333333 583 191 c 1
 645 138.333333333 676 77.1666666667 676 7.5 c 128
 676 -62.1666666667 649.333333333 -118.833333333 596 -162.5 c 128
EndSplineSet
Validated: 1
EndChar

StartChar: guillemotleft
Encoding: 171 171 38
Width: 978
VWidth: 1524
GlyphClass: 2
Flags: HMW
LayerCount: 2
Fore
SplineSet
829 36 m 1
 463 362 l 1
 463 426 l 1
 829 754 l 1
 829 603 l 1
 594 394 l 1
 829 184 l 1
 829 36 l 1
491 36 m 1
 123 362 l 1
 123 426 l 1
 491 754 l 1
 491 603 l 1
 254 394 l 1
 491 184 l 1
 491 36 l 1
EndSplineSet
Validated: 1
Substitution2: "'calt' Contextual Alternates in Arabic lookup 9 subtable" guillemotleft.fa
EndChar

StartChar: uni00AC
Encoding: 172 172 39
Width: 1340
VWidth: 1524
GlyphClass: 2
Flags: HMW
LayerCount: 2
Fore
SplineSet
1172 149 m 1
 1041 149 l 1
 1041 466 l 1
 170 466 l 1
 170 599 l 1
 1172 599 l 1
 1172 149 l 1
EndSplineSet
Validated: 1
EndChar

StartChar: uni00B0
Encoding: 176 176 40
Width: 798
VWidth: 1524
GlyphClass: 2
Flags: HMW
LayerCount: 2
Fore
SplineSet
400 716 m 256
 442 716 477.333333333 730.166666667 506 758.5 c 128
 534.666666667 786.833333333 549 822 549 864 c 256
 549 904.666666667 534.5 939.5 505.5 968.5 c 128
 476.5 997.5 441.333333333 1012 400 1012 c 128
 358.666666667 1012 323.666666667 997.666666667 295 969 c 128
 266.333333333 940.333333333 252 905.5 252 864.5 c 128
 252 823.5 266.333333333 788.5 295 759.5 c 128
 323.666666667 730.5 358.666666667 716 400 716 c 256
225 1041.5 m 128
 273 1089.83333333 331.5 1114 400.5 1114 c 128
 469.5 1114 528.166666667 1089.16666667 576.5 1039.5 c 0
 624.833333333 989.833333333 649 930.833333333 649 862.5 c 0
 649 794.166666667 624.666666667 736 576 688 c 0
 527.333333333 640 467.833333333 616 397.5 616 c 128
 327.166666667 616 268.833333333 639.5 222.5 686.5 c 128
 176.166666667 733.5 153 792.333333333 153 863 c 128
 153 933.666666667 177 993.166666667 225 1041.5 c 128
EndSplineSet
Validated: 1
EndChar

StartChar: uni00B6
Encoding: 182 182 41
Width: 1017
VWidth: 1524
GlyphClass: 2
Flags: HMW
LayerCount: 2
Fore
SplineSet
846 -228 m 1
 735 -228 l 1
 735 996 l 1
 586 996 l 1
 586 -228 l 1
 476 -228 l 1
 476 432 l 1
 364 440 277 473 215 531 c 128
 153 589 122 666.666666667 122 764 c 128
 122 861.333333333 156 940.333333333 224 1001 c 128
 292 1061.66666667 382 1092 494 1092 c 2
 846 1092 l 1
 846 -228 l 1
EndSplineSet
Validated: 1
EndChar

StartChar: periodcentered
Encoding: 183 183 42
Width: 507
VWidth: 1524
GlyphClass: 2
Flags: HMW
LayerCount: 2
Fore
SplineSet
172 382 m 1
 172 580 l 1
 337 580 l 1
 337 382 l 1
 172 382 l 1
EndSplineSet
Validated: 1
EndChar

StartChar: guillemotright
Encoding: 187 187 43
Width: 978
VWidth: 1524
GlyphClass: 2
Flags: HMW
LayerCount: 2
Fore
SplineSet
518 362 m 1
 151 36 l 1
 151 184 l 1
 387 394 l 1
 151 603 l 1
 151 754 l 1
 518 426 l 1
 518 362 l 1
857 362 m 1
 491 36 l 1
 491 184 l 1
 726 394 l 1
 491 603 l 1
 491 754 l 1
 857 426 l 1
 857 362 l 1
EndSplineSet
Validated: 1
Substitution2: "'calt' Contextual Alternates in Arabic lookup 9 subtable" guillemotright.fa
EndChar

StartChar: divide
Encoding: 247 247 44
Width: 1340
VWidth: 1524
GlyphClass: 2
Flags: HMW
LayerCount: 2
Fore
SplineSet
767 619 m 1
 574 619 l 1
 574 812 l 1
 767 812 l 1
 767 619 l 1
767 42 m 1
 574 42 l 1
 574 233 l 1
 767 233 l 1
 767 42 l 1
1172 360 m 1
 170 360 l 1
 170 493 l 1
 1172 493 l 1
 1172 360 l 1
EndSplineSet
Validated: 1
EndChar

StartChar: uni2014
Encoding: 8212 8212 45
Width: 1599
VWidth: 1524
GlyphClass: 2
Flags: HMW
LayerCount: 2
Fore
SplineSet
1602 306 m 1
 0 306 l 1
 0 420 l 1
 1602 420 l 1
 1602 306 l 1
EndSplineSet
Validated: 1
EndChar

StartChar: uni2022
Encoding: 8226 8226 46
Width: 942
VWidth: 1524
GlyphClass: 2
Flags: HMW
LayerCount: 2
Fore
SplineSet
637.5 684.5 m 128
 681.833333333 639.5 704 584.5 704 519.5 c 128
 704 454.5 681.666666667 399.666666667 637 355 c 128
 592.333333333 310.333333333 537.333333333 288 472 288 c 256
 406.666666667 288 351.666666667 310.5 307 355.5 c 128
 262.333333333 400.5 240 455.333333333 240 520 c 128
 240 584.666666667 262.333333333 639.5 307 684.5 c 128
 351.666666667 729.5 406.833333333 752 472.5 752 c 128
 538.166666667 752 593.166666667 729.5 637.5 684.5 c 128
EndSplineSet
Validated: 1
EndChar

StartChar: uni2026
Encoding: 8230 8230 47
Width: 1599
VWidth: 1524
GlyphClass: 2
Flags: HMW
LayerCount: 2
Fore
SplineSet
884 -75 m 1
 718 -75 l 1
 718 123 l 1
 884 123 l 1
 884 -75 l 1
1416 -75 m 1
 1250 -75 l 1
 1250 123 l 1
 1416 123 l 1
 1416 -75 l 1
352 -75 m 1
 184 -75 l 1
 184 123 l 1
 352 123 l 1
 352 -75 l 1
EndSplineSet
Validated: 1
Substitution2: "'calt' Contextual Alternates in Arabic lookup 9 subtable" uni2026.fa
EndChar

StartChar: multiply
Encoding: 215 215 49
Width: 1340
VWidth: 1524
GlyphClass: 2
Flags: HMW
LayerCount: 2
Fore
SplineSet
1030 -26 m 1
 670 334 l 1
 312 -26 l 1
 220 69 l 1
 576 426 l 1
 220 785 l 1
 312 880 l 1
 670 520 l 1
 1030 880 l 1
 1122 785 l 1
 766 426 l 1
 1122 69 l 1
 1030 -26 l 1
EndSplineSet
Validated: 1
EndChar

StartChar: zwNONjoiner
Encoding: 8204 8204 50
Width: 0
VWidth: 1524
GlyphClass: 2
Flags: HMW
LayerCount: 2
Fore
SplineSet
36 -701 m 1
 0 -701 l 1
 0 900 l 1
 36 900 l 1
 36 -701 l 1
EndSplineSet
Validated: 1
EndChar

StartChar: zwjoiner
Encoding: 8205 8205 51
Width: 0
VWidth: 1524
GlyphClass: 2
Flags: HMW
LayerCount: 2
Fore
SplineSet
35 -701 m 1
 0 -701 l 1
 0 752 l 1
 -66 684 l 1
 -90 709 l 1
 -8 793 l 1
 -90 876 l 1
 -66 900 l 1
 17 816 l 1
 101 900 l 1
 124 876 l 1
 41 793 l 1
 124 709 l 1
 101 684 l 1
 35 753 l 1
 35 -701 l 1
EndSplineSet
Validated: 1
EndChar

StartChar: LTR_mark
Encoding: 8206 8206 52
Width: 0
VWidth: 1524
GlyphClass: 2
Flags: HMW
LayerCount: 2
Fore
SplineSet
36 -701 m 1
 0 -701 l 1
 0 804 l 1
 170 804 l 1
 106 867 l 1
 130 892 l 1
 237 784 l 1
 130 677 l 1
 106 701 l 1
 173 768 l 1
 36 768 l 1
 36 -701 l 1
EndSplineSet
Validated: 1
EndChar

StartChar: RTL_mark
Encoding: 8207 8207 53
Width: 0
VWidth: 1524
GlyphClass: 2
Flags: HMW
LayerCount: 2
Fore
SplineSet
36 -701 m 1
 0 -701 l 1
 0 768 l 1
 -137 768 l 1
 -71 701 l 1
 -95 677 l 1
 -202 784 l 1
 -95 892 l 1
 -71 867 l 1
 -134 804 l 1
 36 804 l 1
 36 -701 l 1
EndSplineSet
Validated: 1
EndChar

StartChar: uni2010
Encoding: 8208 8208 54
Width: 576
VWidth: 1524
GlyphClass: 2
Flags: HMW
LayerCount: 2
Fore
SplineSet
500 300 m 1
 79 300 l 1
 79 428 l 1
 500 428 l 1
 500 300 l 1
EndSplineSet
Validated: 1
EndChar

StartChar: uni20AC
Encoding: 8364 8364 55
Width: 1017
VWidth: 1524
GlyphClass: 2
Flags: HMW
LayerCount: 2
Fore
SplineSet
311 589 m 1
 309 570.333333333 308 543.333333333 308 508 c 128
 308 472.666666667 309 446 311 428 c 1
 660 428 l 1
 616 332 l 1
 323 332 l 1
 339.666666667 234 374.5 158.666666667 427.5 106 c 128
 480.5 53.3333333333 548 27 630 27 c 0
 684 27 732.666666667 38.6666666667 776 62 c 128
 819.333333333 85.3333333333 865 124.666666667 913 180 c 1
 913 14 l 1
 821 -60.6666666667 718.833333333 -98 606.5 -98 c 128
 494.166666667 -98 397.5 -60.1666666667 316.5 15.5 c 128
 235.5 91.1666666667 184.666666667 196.666666667 164 332 c 1
 0 332 l 1
 43 428 l 1
 152 428 l 1
 151 508 l 1
 152 589 l 1
 0 589 l 1
 43 684 l 1
 164 684 l 1
 184.666666667 818 235.666666667 923.166666667 317 999.5 c 128
 398.333333333 1075.83333333 495.333333333 1114 608 1114 c 128
 720.666666667 1114 822.333333333 1076.66666667 913 1002 c 1
 913 836 l 1
 865.666666667 891.333333333 819.833333333 930.666666667 775.5 954 c 128
 731.166666667 977.333333333 682.666666667 989 630 989 c 0
 548 989 480.666666667 962.666666667 428 910 c 128
 375.333333333 857.333333333 340.333333333 782 323 684 c 1
 775 684 l 1
 732 589 l 1
 311 589 l 1
EndSplineSet
Validated: 1
EndChar

StartChar: uni2212
Encoding: 8722 8722 56
Width: 1340
VWidth: 1524
GlyphClass: 2
Flags: HMW
LayerCount: 2
Fore
SplineSet
1172 360 m 1
 170 360 l 1
 170 493 l 1
 1172 493 l 1
 1172 360 l 1
EndSplineSet
Validated: 1
EndChar

StartChar: uni2219
Encoding: 8729 8729 57
Width: 507
VWidth: 1524
GlyphClass: 2
Flags: HMW
LayerCount: 2
Fore
SplineSet
172 382 m 1
 172 580 l 1
 337 580 l 1
 337 382 l 1
 172 382 l 1
EndSplineSet
Validated: 1
EndChar

StartChar: uni25CC
Encoding: 9676 9676 58
Width: 1191
VWidth: 1524
GlyphClass: 2
Flags: HMW
AnchorPoint: "Anchor-5" 598 -380 basechar 0
AnchorPoint: "Anchor-4" 574 1004 basechar 0
LayerCount: 2
Fore
SplineSet
876 655 m 1
 845.333333333 681.666666667 805.666666667 704 757 722 c 1
 785 797 l 1
 838.333333333 775.666666667 886.666666667 747.333333333 930 712 c 1
 876 655 l 1
436 723 m 1
 388.666666667 706.333333333 348 682.333333333 314 651 c 1
 266 715 l 1
 308 751 355.333333333 778.666666667 408 798 c 1
 436 723 l 1
250 586 m 1
 219.333333333 548.666666667 196 508.333333333 180 465 c 1
 105 493 l 1
 123 541 150.333333333 588.333333333 187 635 c 1
 250 586 l 1
149 304 m 256
 149 299.333333333 151.333333333 276 156 234 c 1
 77 224 l 1
 73 246 71 272.666666667 71 304 c 256
 71 334 73 362.333333333 77 389 c 1
 156 374 l 1
 151.333333333 347.333333333 149 324 149 304 c 256
187 -25 m 1
 151 17 123.666666667 64.3333333333 105 117 c 1
 180 145 l 1
 196.666666667 101.666666667 220 61.3333333333 250 24 c 1
 187 -25 l 1
407 -185 m 1
 355 -166.333333333 307.666666667 -139 265 -103 c 1
 316 -42 l 1
 353.333333333 -71.3333333333 392.666666667 -94.3333333333 434 -111 c 1
 407 -185 l 1
596 -141 m 256
 614.666666667 -141 638 -139.333333333 666 -136 c 1
 679 -214 l 1
 654.333333333 -218.666666667 628.666666667 -221 602 -221 c 0
 575.333333333 -221 546.666666667 -218.666666667 516 -214 c 1
 524 -136 l 1
 542.666666667 -139.333333333 566.666666667 -141 596 -141 c 256
926 -104 m 1
 876.666666667 -142.666666667 829.333333333 -170 784 -186 c 1
 756 -112 l 1
 799.333333333 -96 839.666666667 -72.6666666667 877 -42 c 1
 926 -104 l 1
1087 117 m 1
 1066.33333333 64.3333333333 1039 16.6666666667 1005 -26 c 1
 945 25 l 1
 974.333333333 61.6666666667 997.333333333 102 1014 146 c 1
 1087 117 l 1
1039 237 m 1
 1042.33333333 250.333333333 1044 269.166666667 1044 293.5 c 128
 1044 317.833333333 1042.33333333 345.333333333 1039 376 c 1
 1116 386 l 1
 1120.66666667 366.666666667 1123 342 1123 312 c 0
 1123 282 1120.66666667 252.333333333 1116 223 c 1
 1039 237 l 1
1014 465 m 1
 998 509.666666667 975.333333333 550 946 586 c 1
 1005 636 l 1
 1040.33333333 594 1067.66666667 546.333333333 1087 493 c 1
 1014 465 l 1
513 826 m 1
 531 829.333333333 557.333333333 831 592 831 c 0
 626.666666667 831 655.666666667 829.333333333 679 826 c 1
 667 748 l 1
 643 752 621.666666667 754 603 754 c 128
 584.333333333 754 558 752 524 748 c 1
 513 826 l 1
EndSplineSet
Validated: 1
EndChar

StartChar: virgul
Encoding: 1548 1548 59
Width: 507
VWidth: 1524
GlyphClass: 2
Flags: HMW
LayerCount: 2
Fore
SplineSet
288 -75 m 1
 123 -75 l 1
 123 60 l 1
 252 309 l 1
 353 309 l 1
 288 60 l 1
 288 -75 l 1
EndSplineSet
Validated: 1
Substitution2: "'calt' Contextual Alternates in Arabic lookup 9 subtable" virgul.fa
EndChar

StartChar: noqte_virgul
Encoding: 1563 1563 60
Width: 537
VWidth: 1524
GlyphClass: 2
Flags: HMW
LayerCount: 2
Fore
SplineSet
242 -75 m 1
 78 -75 l 1
 78 123 l 1
 242 123 l 1
 242 -75 l 1
242 421 m 1
 78 421 l 1
 78 556 l 1
 206 806 l 1
 242 806 l 1
 242 421 l 1
EndSplineSet
Validated: 1
Substitution2: "'calt' Contextual Alternates in Arabic lookup 9 subtable" noqte_virgul.fa
EndChar

StartChar: soal
Encoding: 1567 1567 61
Width: 848
VWidth: 1524
GlyphClass: 2
Flags: HMW
LayerCount: 2
Fore
SplineSet
547 -75 m 1
 389 -75 l 1
 389 123 l 1
 547 123 l 1
 547 -75 l 1
738 878 m 1
 636 949.333333333 542.666666667 985 458 985 c 128
 373.333333333 985 316.333333333 954.333333333 287 893 c 0
 277.666666667 873.666666667 273 851.666666667 273 827 c 0
 273 784.333333333 301 734.333333333 357 677 c 1
 428 607 l 2
 474 561 503.833333333 523.166666667 517.5 493.5 c 128
 531.166666667 463.833333333 539.333333333 418.666666667 542 358 c 2
 547 239 l 1
 393 239 l 1
 393 336 l 2
 393 388 389.666666667 422.666666667 383 440 c 0
 376.333333333 457.333333333 368.666666667 471.833333333 360 483.5 c 128
 351.333333333 495.166666667 334.666666667 513 310 537 c 2
 242 603 l 2
 194.666666667 649 161.666666667 689.833333333 143 725.5 c 128
 124.333333333 761.166666667 115 798.666666667 115 838 c 0
 115 920.666666667 144.333333333 987.333333333 203 1038 c 128
 261.666666667 1088.66666667 340.833333333 1114 440.5 1114 c 128
 540.166666667 1114 639.333333333 1084.33333333 738 1025 c 1
 738 878 l 1
EndSplineSet
Validated: 1
EndChar

StartChar: hamze
Encoding: 1569 1569 62
Width: 600
VWidth: 1524
GlyphClass: 2
Flags: HMW
AnchorPoint: "Anchor-1" 293 -27 basechar 0
AnchorPoint: "Anchor-0" 282 686 basechar 0
LayerCount: 2
Fore
SplineSet
143 163 m 1
 97.6666666667 203 75 251.166666667 75 307.5 c 128
 75 363.833333333 99.5 418.333333333 148.5 471 c 128
 197.5 523.666666667 247.333333333 550 298 550 c 128
 348.666666667 550 391 537.333333333 425 512 c 0
 436.333333333 503.333333333 449.666666667 492 465 478 c 1
 387 368 l 1
 367 388 332.333333333 398 283 398 c 0
 264.333333333 398 244.5 388.166666667 223.5 368.5 c 128
 202.5 348.833333333 192 327.666666667 192 305 c 0
 192 286.333333333 228.333333333 262 301 232 c 1
 359.666666667 250.666666667 429 266.666666667 509 280 c 1
 534 133 l 1
 349.333333333 95 204.666666667 41.6666666667 100 -27 c 1
 38 101 l 1
 64 117.666666667 99 138.333333333 143 163 c 1
EndSplineSet
Validated: 1
Substitution2: "'isol' Isolated Forms in Arabic lookup 6 subtable" uniFE80
EndChar

StartChar: kashidas
Encoding: 1600 1600 63
Width: 548
VWidth: 1524
GlyphClass: 2
Flags: HMW
AnchorPoint: "Anchor-1" 234 -161 basechar 0
AnchorPoint: "Anchor-0" 246 707 basechar 0
LayerCount: 2
Fore
SplineSet
551 0 m 1
 -55 0 l 1
 -55 150 l 1
 551 150 l 1
 551 0 l 1
EndSplineSet
Validated: 1
EndChar

StartChar: uni0660
Encoding: 1632 1632 64
Width: 1017
VWidth: 1584
GlyphClass: 2
Flags: HMW
LayerCount: 2
Fore
SplineSet
528 381 m 1
 323 545 l 1
 485 746 l 1
 695 588 l 1
 528 381 l 1
EndSplineSet
EndChar

StartChar: uni0661
Encoding: 1633 1633 65
Width: 1017
VWidth: 1584
GlyphClass: 2
Flags: HMW
LayerCount: 2
Fore
SplineSet
632 5 m 1
 618.666666667 356.333333333 525.666666667 677.333333333 353 968 c 0
 327.666666667 1010 303.666666667 1048.66666667 281 1084 c 1
 383 1169 l 1
 617.666666667 804.333333333 740.666666667 416.333333333 752 5 c 1
 632 5 l 1
EndSplineSet
EndChar

StartChar: uni0662
Encoding: 1634 1634 66
Width: 1017
VWidth: 1584
GlyphClass: 2
Flags: HMW
LayerCount: 2
Fore
SplineSet
922 1160 m 1
 852 932.666666667 745.333333333 819 602 819 c 0
 515.333333333 819 446.333333333 829 395 849 c 1
 519 589 581 307.666666667 581 5 c 1
 461 5 l 1
 461 302.333333333 391.333333333 583.666666667 252 849 c 0
 210.666666667 927.666666667 166.333333333 1003 119 1075 c 1
 218 1160 l 1
 320.666666667 1047.33333333 418 985.666666667 510 975 c 0
 539.333333333 971.666666667 570 970 602 970 c 0
 691.333333333 970 759.333333333 1048 806 1204 c 1
 922 1160 l 1
EndSplineSet
EndChar

StartChar: uni0663
Encoding: 1635 1635 67
Width: 1017
VWidth: 1584
GlyphClass: 2
Flags: HMW
LayerCount: 2
Fore
SplineSet
611 937 m 1
 567.666666667 860.333333333 510 822 438 822 c 0
 402 822 364 829.333333333 324 844 c 1
 418.666666667 618.666666667 485.666666667 339 525 5 c 1
 406 5 l 1
 352 447.666666667 236.666666667 805.333333333 60 1078 c 1
 157 1161 l 1
 243.666666667 1035.66666667 337.333333333 973 438 973 c 0
 468.666666667 973 495.5 993.5 518.5 1034.5 c 128
 541.5 1075.5 553 1133.66666667 553 1209 c 1
 669 1209 l 1
 669.666666667 1095 692.666666667 1025.33333333 738 1000 c 0
 750 993.333333333 762.666666667 990 776 990 c 0
 821.333333333 990 850.333333333 1063.33333333 863 1210 c 1
 979 1200 l 1
 966.333333333 1066.66666667 944 973.333333333 912 920 c 0
 880 866.666666667 831.833333333 840 767.5 840 c 128
 703.166666667 840 651 872.333333333 611 937 c 1
EndSplineSet
EndChar

StartChar: uni0664
Encoding: 1636 1636 68
Width: 1017
VWidth: 1584
GlyphClass: 2
Flags: HMW
LayerCount: 2
Fore
SplineSet
714 -47 m 1
 408.666666667 8.33333333333 256 103.333333333 256 238 c 0
 256 319.333333333 293.333333333 408 368 504 c 0
 394 537.333333333 425 574 461 614 c 1
 321.666666667 696 252 780.333333333 252 867 c 128
 252 953.666666667 328.666666667 1040 482 1126 c 0
 530 1152.66666667 582 1177.66666667 638 1201 c 1
 684 1062 l 1
 537.333333333 1003.33333333 440 951 392 905 c 0
 376.666666667 890.333333333 369 877.333333333 369 866 c 0
 369 832 467 762 663 656 c 1
 469.666666667 451.333333333 373 312 373 238 c 0
 373 199.333333333 442.666666667 163.333333333 582 130 c 0
 632 118 682 108.666666667 732 102 c 1
 714 -47 l 1
EndSplineSet
EndChar

StartChar: uni0665
Encoding: 1637 1637 69
Width: 1017
VWidth: 1584
GlyphClass: 2
Flags: HMW
LayerCount: 2
Fore
SplineSet
853 444 m 0
 853 254.666666667 732.333333333 160 491 160 c 0
 337 160 236.333333333 218.666666667 189 336 c 0
 173 376 165 421 165 471 c 128
 165 521 174 571.333333333 192 622 c 0
 238 750.666666667 335.666666667 837.666666667 485 883 c 1
 599 863 688.666666667 812.833333333 754 732.5 c 128
 819.333333333 652.166666667 852.333333333 556 853 444 c 0
492 311 m 0
 655.333333333 311 737 354.666666667 737 442 c 0
 737 510.666666667 714.833333333 571.333333333 670.5 624 c 128
 626.166666667 676.666666667 565.666666667 711.333333333 489 728 c 1
 351.666666667 673.333333333 283 588.333333333 283 473 c 0
 283.666666667 393.666666667 325.333333333 343 408 321 c 0
 433.333333333 314.333333333 461.333333333 311 492 311 c 0
EndSplineSet
EndChar

StartChar: uni0666
Encoding: 1638 1638 70
Width: 1017
VWidth: 1584
GlyphClass: 2
Flags: HMW
LayerCount: 2
Fore
SplineSet
172 1084 m 1
 226.666666667 1030.66666667 285.666666667 1004 349 1004 c 0
 466.333333333 1004 601.333333333 1027.33333333 754 1074 c 1
 746.666666667 1018.66666667 740.166666667 971 734.5 931 c 128
 728.833333333 891 722.666666667 841.666666667 716 783 c 128
 709.333333333 724.333333333 706 645.833333333 706 547.5 c 128
 706 449.166666667 710.333333333 380.666666667 719 342 c 0
 745.666666667 223.333333333 795 142.666666667 867 100 c 1
 810 -30 l 1
 748.666666667 4.66666666667 696.333333333 67 653 157 c 128
 609.666666667 247 588 364.333333333 588 509 c 128
 588 653.666666667 594.666666667 778.666666667 608 884 c 1
 500.666666667 862 423.333333333 851 376 851 c 128
 328.666666667 851 295.333333333 854 276 860 c 0
 217.333333333 876.666666667 155.333333333 915.333333333 90 976 c 1
 172 1084 l 1
EndSplineSet
EndChar

StartChar: uni0667
Encoding: 1639 1639 71
Width: 1017
VWidth: 1584
GlyphClass: 2
Flags: HMW
LayerCount: 2
Fore
SplineSet
452 5 m 1
 412.666666667 225.666666667 380 388.333333333 354 493 c 128
 328 597.666666667 292 699.5 246 798.5 c 128
 200 897.5 134.333333333 1005.33333333 49 1122 c 1
 147 1209 l 1
 287.666666667 1017.66666667 383.666666667 839.333333333 435 674 c 0
 452.333333333 618 479.333333333 504.666666667 516 334 c 1
 558.666666667 533.333333333 605 693 655 813 c 128
 705 933 781.333333333 1065 884 1209 c 1
 980 1122 l 1
 898 1010 834.333333333 905.333333333 789 808 c 128
 743.666666667 710.666666667 705.666666667 601.166666667 675 479.5 c 128
 644.333333333 357.833333333 612.333333333 199.666666667 579 5 c 1
 452 5 l 1
EndSplineSet
EndChar

StartChar: uni0668
Encoding: 1640 1640 72
Width: 1017
VWidth: 1584
GlyphClass: 2
Flags: HMW
LayerCount: 2
Fore
SplineSet
865 -24 m 1
 757.666666667 122.666666667 680.166666667 255.5 632.5 374.5 c 128
 584.833333333 493.5 538.666666667 652 494 850 c 1
 459.333333333 681.333333333 430.333333333 559.666666667 407 485 c 0
 361 339 267.333333333 169.333333333 126 -24 c 1
 28 65 l 1
 114.666666667 184.333333333 181 293 227 391 c 128
 273 489 310.333333333 596.833333333 339 714.5 c 128
 367.666666667 832.166666667 398.333333333 987 431 1179 c 1
 558 1179 l 1
 610.666666667 883.666666667 657 677.166666667 697 559.5 c 128
 737 441.833333333 780.5 344.166666667 827.5 266.5 c 128
 874.5 188.833333333 919 121.666666667 961 65 c 1
 865 -24 l 1
EndSplineSet
EndChar

StartChar: uni0669
Encoding: 1641 1641 73
Width: 1017
VWidth: 1584
GlyphClass: 2
Flags: HMW
LayerCount: 2
Fore
SplineSet
360 1059 m 0
 358 1059 358 1059 356 1059 c 0
 320.666666667 1059 290.166666667 1039.33333333 264.5 1000 c 128
 238.833333333 960.666666667 226 919.5 226 876.5 c 128
 226 833.5 236.5 803.5 257.5 786.5 c 128
 278.5 769.5 308.333333333 761 347 761 c 128
 385.666666667 761 413.666666667 762 431 764 c 128
 448.333333333 766 464.333333333 769 479 773 c 128
 493.666666667 777 507.5 782.5 520.5 789.5 c 128
 533.5 796.5 547 803.666666667 561 811 c 1
 549.666666667 889 524.5 949.666666667 485.5 993 c 128
 446.5 1036.33333333 404.666666667 1058.33333333 360 1059 c 0
851 -37 m 1
 683.666666667 49.6666666667 588.666666667 279.333333333 566 652 c 1
 511.333333333 624 452.666666667 610 390 610 c 0
 280.666666667 610 206.333333333 631 167 673 c 128
 127.666666667 715 108 778.5 108 863.5 c 128
 108 948.5 132.666666667 1027.5 182 1100.5 c 128
 231.333333333 1173.5 292.666666667 1210 366 1210 c 128
 439.333333333 1210 510.333333333 1168.66666667 579 1086 c 128
 647.666666667 1003.33333333 682 893.666666667 682 757 c 0
 682 477.666666667 729.666666667 279 825 161 c 0
 847.666666667 133 873.666666667 111.333333333 903 96 c 1
 851 -37 l 1
EndSplineSet
EndChar

StartChar: uni066A
Encoding: 1642 1642 74
Width: 996
VWidth: 1524
GlyphClass: 2
Flags: HMW
LayerCount: 2
Fore
SplineSet
162 -235 m 1
 63 -235 l 1
 842 1247 l 1
 940 1247 l 1
 162 -235 l 1
885 -161 m 1
 631 -161 l 1
 631 95 l 1
 885 95 l 1
 885 -161 l 1
371 910 m 1
 114 910 l 1
 114 1165 l 1
 371 1165 l 1
 371 910 l 1
EndSplineSet
Validated: 1
EndChar

StartChar: uni066B
Encoding: 1643 1643 75
Width: 507
VWidth: 1524
GlyphClass: 2
Flags: HMW
LayerCount: 2
Fore
SplineSet
10 -398 m 1
 -85 -398 l 1
 380 828 l 1
 482 828 l 1
 10 -398 l 1
EndSplineSet
Validated: 1
Substitution2: "'calt' Contextual Alternates in Arabic lookup 10 subtable" uni066B.ar
EndChar

StartChar: uni066C
Encoding: 1644 1644 76
Width: 507
VWidth: 1524
GlyphClass: 2
Flags: HMW
LayerCount: 2
Fore
SplineSet
316 79 m 1
 305.333333333 68.3333333333 289.666666667 63 269 63 c 0
 248.333333333 63 228.833333333 72.3333333333 210.5 91 c 128
 192.166666667 109.666666667 183 131.666666667 183 157 c 0
 183 182.333333333 193.166666667 203.666666667 213.5 221 c 128
 233.833333333 238.333333333 253.666666667 247 273 247 c 0
 357.666666667 247 400 206.333333333 400 125 c 0
 400 49 375.833333333 -19.5 327.5 -80.5 c 128
 279.166666667 -141.5 213.666666667 -193.666666667 131 -237 c 1
 66 -189 l 1
 138 -159 197.5 -117.666666667 244.5 -65 c 128
 291.5 -12.3333333333 315.666666667 33 317 71 c 1
 316 79 l 1
EndSplineSet
Validated: 1
Substitution2: "'calt' Contextual Alternates in Arabic lookup 10 subtable" uni066C.ar
EndChar

StartChar: uni066B.ar
Encoding: 65537 -1 77
Width: 507
VWidth: 1524
GlyphClass: 2
Flags: HMW
LayerCount: 2
Fore
SplineSet
340 -49 m 1
 320 -67.6666666667 295.666666667 -77 267 -77 c 0
 238.333333333 -77 211.333333333 -64.8333333333 186 -40.5 c 128
 160.666666667 -16.1666666667 148 13.8333333333 148 49.5 c 128
 148 85.1666666667 160.666666667 115.333333333 186 140 c 0
 212.666666667 164.666666667 238 177 262 177 c 0
 309.333333333 177 351 160.333333333 387 127 c 128
 423 93.6666666667 441 44.1666666667 441 -21.5 c 128
 441 -87.1666666667 422.166666667 -146.666666667 384.5 -200 c 128
 346.833333333 -253.333333333 287.333333333 -308 206 -364 c 1
 130 -319 l 1
 205.333333333 -279 259.833333333 -238.333333333 293.5 -197 c 128
 327.166666667 -155.666666667 344 -116.666666667 344 -80 c 0
 344 -65.3333333333 342.666666667 -55 340 -49 c 1
EndSplineSet
Validated: 1
EndChar

StartChar: uni066C.ar
Encoding: 65538 -1 78
Width: 507
VWidth: 1524
GlyphClass: 2
Flags: HMW
LayerCount: 2
Fore
SplineSet
404 409 m 1
 391.333333333 397.666666667 375.333333333 392 356 392 c 0
 336.666666667 392 318.333333333 400 301 416 c 128
 283.666666667 432 275 452 275 476 c 256
 275 512 292.333333333 538 327 554 c 0
 337 558.666666667 351.666666667 561 371 561 c 0
 390.333333333 561 411.5 550 434.5 528 c 128
 457.5 506 469 473 469 429 c 0
 469 340.333333333 417.333333333 263.666666667 314 199 c 1
 263 228 l 1
 358.333333333 280.666666667 406 335 406 391 c 0
 406 396.333333333 405.333333333 402.333333333 404 409 c 1
EndSplineSet
Validated: 1
EndChar

StartChar: num.zero
Encoding: 1776 1776 79
Width: 1017
VWidth: 1584
GlyphClass: 2
Flags: HMW
LayerCount: 2
Fore
SplineSet
508 317 m 258
 442.666666667 317 387.666666667 340.666666667 343 388 c 128
 298.333333333 435.333333333 275 493.333333333 273 562 c 256
 273.666666667 630 296.666666667 688 342 736 c 128
 387.333333333 784 442.666666667 808 508 808 c 256
 572 808 627 784 673 736 c 128
 719 688 742 630 742 562 c 256
 742 494 718.833333333 436.166666667 672.5 388.5 c 128
 626.166666667 340.833333333 572.333333333 317 511 317 c 2
 508 317 l 258
511 707 m 0
 508 707 508 707 505 707 c 0
 465 707 429.833333333 693.166666667 399.5 665.5 c 128
 369.166666667 637.833333333 354 603.333333333 354 562 c 256
 354 500.666666667 385.333333333 456.666666667 448 430 c 0
 466.666666667 422 486.666666667 418 508 418 c 256
 549.333333333 418 585.5 432.333333333 616.5 461 c 128
 647.5 489.666666667 663 523.333333333 663 562 c 256
 662.333333333 600.666666667 646.833333333 634.5 616.5 663.5 c 128
 586.166666667 692.5 551 707 511 707 c 0
EndSplineSet
EndChar

StartChar: num.four
Encoding: 1780 1780 83
Width: 1017
VWidth: 1584
GlyphClass: 2
Flags: HMW
LayerCount: 2
Fore
SplineSet
651 899 m 1
 763.666666667 907 851 928 913 962 c 1
 946 839 l 1
 841.333333333 777 738 746 636 746 c 128
 534 746 446 768.666666667 372 814 c 1
 485.333333333 560.666666667 542 291 542 5 c 1
 425 5 l 1
 424.333333333 305.666666667 354.666666667 588.666666667 216 854 c 0
 174.666666667 932.666666667 131 1007 85 1077 c 1
 180 1155 l 1
 182 1160 l 1
 297.333333333 1035.33333333 392.666666667 957 468 925 c 1
 453.333333333 960.333333333 446 995.333333333 446 1030 c 0
 446 1101.33333333 470.166666667 1159.83333333 518.5 1205.5 c 128
 566.833333333 1251.16666667 619.5 1274 676.5 1274 c 128
 733.5 1274 771.5 1269.5 790.5 1260.5 c 128
 809.5 1251.5 826.333333333 1244 841 1238 c 1
 836 1101 l 1
 776 1117.66666667 728.666666667 1126 694 1126 c 0
 659.333333333 1126 629 1116.66666667 603 1098 c 128
 577 1079.33333333 564 1059 564 1037 c 128
 564 1015 567.666666667 997.333333333 575 984 c 128
 582.333333333 970.666666667 590.666666667 958.333333333 600 947 c 128
 609.333333333 935.666666667 619.166666667 925.833333333 629.5 917.5 c 128
 639.833333333 909.166666667 647 903 651 899 c 1
EndSplineSet
EndChar

StartChar: num.five
Encoding: 1781 1781 84
Width: 1017
VWidth: 1584
GlyphClass: 2
Flags: HMW
LayerCount: 2
Fore
SplineSet
508 96 m 1
 464.666666667 22.6666666667 402.666666667 -14 322 -14 c 0
 222 -14 156.666666667 35.3333333333 126 134 c 0
 115.333333333 168 110 211 110 263 c 0
 110 359.666666667 135.333333333 466 186 582 c 128
 236.666666667 698 314.333333333 846.333333333 419 1027 c 1
 350 1091 l 1
 428 1202 l 1
 632 1014.66666667 768 839 836 675 c 0
 885.333333333 556.333333333 910 436.5 910 315.5 c 128
 910 194.5 884 106 832 50 c 0
 792 7.33333333333 742.333333333 -14 683 -14 c 0
 603 -14 544.666666667 22.6666666667 508 96 c 1
574 331 m 1
 578.666666667 201.666666667 615 137 683 137 c 0
 755.666666667 137 792 196 792 314 c 0
 792 520.666666667 698 727.666666667 510 935 c 1
 417.333333333 775 354.333333333 657.666666667 321 583 c 0
 259 443 228 334.666666667 228 258 c 0
 228 215.333333333 237 184.5 255 165.5 c 128
 273 146.5 294.666666667 137 320 137 c 0
 364 137 397.5 157.5 420.5 198.5 c 128
 443.5 239.5 456 283.666666667 458 331 c 1
 574 331 l 1
EndSplineSet
EndChar

StartChar: num.six
Encoding: 1782 1782 85
Width: 1017
VWidth: 1584
GlyphClass: 2
Flags: HMW
LayerCount: 2
Fore
SplineSet
287 916 m 2
 287 914 l 2
 287 831.333333333 344 776.333333333 458 749 c 0
 498 739.666666667 539.333333333 735 582 735 c 128
 624.666666667 735 657.666666667 736.833333333 681 740.5 c 128
 704.333333333 744.166666667 726.5 750.166666667 747.5 758.5 c 128
 768.5 766.833333333 790.333333333 776.333333333 813 787 c 128
 835.666666667 797.666666667 862.333333333 810 893 824 c 1
 940 687 l 1
 740 601 600.333333333 523 521 453 c 128
 441.666666667 383 352 279.333333333 252 142 c 0
 217.333333333 94 178 39.3333333333 134 -22 c 1
 43 70 l 1
 191.666666667 280 304.666666667 426.333333333 382 509 c 0
 412.666666667 541 443.333333333 570 474 596 c 1
 374 612 298.333333333 649.333333333 247 708 c 128
 195.666666667 766.666666667 170 835 170 913 c 128
 170 991 211.333333333 1061.66666667 294 1125 c 128
 376.666666667 1188.33333333 455.333333333 1220 530 1220 c 128
 604.666666667 1220 687.333333333 1201.33333333 778 1164 c 1
 734 1025 l 1
 658 1056.33333333 592.333333333 1072 537 1072 c 128
 481.666666667 1072 426.166666667 1055.5 370.5 1022.5 c 128
 314.833333333 989.5 287 954 287 916 c 2
EndSplineSet
EndChar

StartChar: As
Encoding: 65539 -1 89
Width: 561
VWidth: 1524
GlyphClass: 2
Flags: HMW
LayerCount: 2
Fore
SplineSet
341 0 m 1
 222 0 l 1
 222 863 l 1
 341 863 l 1
 341 0 l 1
EndSplineSet
Validated: 1
EndChar

StartChar: uniFE8D
Encoding: 65165 65165 90
Width: 474
VWidth: 1524
GlyphClass: 2
Flags: HMW
AnchorPoint: "Anchor-1" 234 -161 basechar 0
AnchorPoint: "Anchor-0" 188 1332 basechar 0
LayerCount: 2
Fore
SplineSet
292 0 m 1
 173 0 l 1
 173 1141 l 1
 292 1141 l 1
 292 0 l 1
EndSplineSet
Validated: 1
PairPos2: "'kern' Horizontal Kerning in Arabic lookup 0 subtable" gaf_ye.farsi.isol dx=50 dy=0 dh=50 dv=0 dx=0 dy=0 dh=0 dv=0
PairPos2: "'kern' Horizontal Kerning in Arabic lookup 0 subtable" kaf.farsi_ye.farsi.isol dx=50 dy=0 dh=50 dv=0 dx=0 dy=0 dh=0 dv=0
PairPos2: "'kern' Horizontal Kerning in Arabic lookup 0 subtable" uniFEDB dx=50 dy=0 dh=50 dv=0 dx=0 dy=0 dh=0 dv=0
PairPos2: "'kern' Horizontal Kerning in Arabic lookup 0 subtable" uniFE83 dx=62 dy=0 dh=62 dv=0 dx=0 dy=0 dh=0 dv=0
PairPos2: "'kern' Horizontal Kerning in Arabic lookup 0 subtable" uniFE81 dx=62 dy=0 dh=62 dv=0 dx=0 dy=0 dh=0 dv=0
PairPos2: "'kern' Horizontal Kerning in Arabic lookup 0 subtable" kaf.init dx=50 dy=0 dh=50 dv=0 dx=0 dy=0 dh=0 dv=0
PairPos2: "'kern' Horizontal Kerning in Arabic lookup 0 subtable" uniFB8E dx=50 dy=0 dh=50 dv=0 dx=0 dy=0 dh=0 dv=0
PairPos2: "'kern' Horizontal Kerning in Arabic lookup 0 subtable" uniFB50 dx=62 dy=0 dh=62 dv=0 dx=0 dy=0 dh=0 dv=0
PairPos2: "'kern' Horizontal Kerning in Arabic lookup 0 subtable" gaf.init dx=50 dy=0 dh=50 dv=0 dx=0 dy=0 dh=0 dv=0
PairPos2: "'kern' Horizontal Kerning in Arabic lookup 0 subtable" uniFB92 dx=50 dy=0 dh=50 dv=0 dx=0 dy=0 dh=0 dv=0
EndChar

StartChar: Af
Encoding: 65540 -1 91
Width: 612
VWidth: 1524
GlyphClass: 2
Flags: HMW
LayerCount: 2
Fore
SplineSet
614 0 m 1
 520 0 l 2
 358 0 263.333333333 51.3333333333 236 154 c 0
 226.666666667 188.666666667 222 230 222 278 c 2
 222 863 l 1
 341 863 l 1
 341 278 l 1
 341.666666667 232 354.666666667 199.166666667 380 179.5 c 128
 405.333333333 159.833333333 448.333333333 150 509 150 c 2
 614 150 l 1
 614 0 l 1
EndSplineSet
Validated: 1
EndChar

StartChar: alef.fina
Encoding: 65166 65166 92
Width: 514
VWidth: 1524
GlyphClass: 2
Flags: HMW
AnchorPoint: "Anchor-1" 234 -161 basechar 0
AnchorPoint: "Anchor-0" 176 1332 basechar 0
LayerCount: 2
Fore
SplineSet
516 0 m 1
 470 0 l 2
 358 0 280.666666667 21.3333333333 238 64 c 0
 195.333333333 106.666666667 173.666666667 178 173 278 c 1
 173 1141 l 1
 292 1141 l 1
 292 278 l 2
 292 232.666666667 305 200 331 180 c 0
 357 160 403.333333333 150 470 150 c 2
 516 150 l 1
 516 0 l 1
EndSplineSet
Validated: 1
PairPos2: "'kern' Horizontal Kerning in Arabic lookup 0 subtable" gaf_ye.farsi.isol dx=50 dy=0 dh=50 dv=0 dx=0 dy=0 dh=0 dv=0
PairPos2: "'kern' Horizontal Kerning in Arabic lookup 0 subtable" kaf.farsi_ye.farsi.isol dx=50 dy=0 dh=50 dv=0 dx=0 dy=0 dh=0 dv=0
PairPos2: "'kern' Horizontal Kerning in Arabic lookup 0 subtable" uniFEDB dx=50 dy=0 dh=50 dv=0 dx=0 dy=0 dh=0 dv=0
PairPos2: "'kern' Horizontal Kerning in Arabic lookup 0 subtable" uniFE83 dx=62 dy=0 dh=62 dv=0 dx=0 dy=0 dh=0 dv=0
PairPos2: "'kern' Horizontal Kerning in Arabic lookup 0 subtable" uniFE81 dx=62 dy=0 dh=62 dv=0 dx=0 dy=0 dh=0 dv=0
PairPos2: "'kern' Horizontal Kerning in Arabic lookup 0 subtable" kaf.init dx=50 dy=0 dh=50 dv=0 dx=0 dy=0 dh=0 dv=0
PairPos2: "'kern' Horizontal Kerning in Arabic lookup 0 subtable" uniFB8E dx=50 dy=0 dh=50 dv=0 dx=0 dy=0 dh=0 dv=0
PairPos2: "'kern' Horizontal Kerning in Arabic lookup 0 subtable" uniFB50 dx=62 dy=0 dh=62 dv=0 dx=0 dy=0 dh=0 dv=0
PairPos2: "'kern' Horizontal Kerning in Arabic lookup 0 subtable" gaf.init dx=50 dy=0 dh=50 dv=0 dx=0 dy=0 dh=0 dv=0
PairPos2: "'kern' Horizontal Kerning in Arabic lookup 0 subtable" uniFB92 dx=50 dy=0 dh=50 dv=0 dx=0 dy=0 dh=0 dv=0
EndChar

StartChar: Bs
Encoding: 65541 -1 93
Width: 1725
VWidth: 1524
GlyphClass: 2
Flags: HMW
LayerCount: 2
Fore
SplineSet
1557 602 m 1
 1604.33333333 458 1628 353.333333333 1628 288 c 0
 1628 222.666666667 1614 177.333333333 1586 152 c 0
 1540.66666667 109.333333333 1413 68.5 1203 29.5 c 0
 993 -9.5 829.333333333 -29 712 -29 c 0
 594.666666667 -29 503 -22.6666666667 437 -10 c 0
 217 31.3333333333 107 129.333333333 107 284 c 0
 107 372.666666667 130.666666667 479.666666667 178 605 c 1
 299 579 l 1
 292.333333333 555.666666667 278.833333333 513.833333333 258.5 453.5 c 128
 238.166666667 393.166666667 228 336.5 228 283.5 c 128
 228 230.5 266.5 190 343.5 162 c 128
 420.5 134 522.333333333 120 649 120 c 0
 861.666666667 120 1088.33333333 148.333333333 1329 205 c 0
 1410.33333333 224.333333333 1460 238.5 1478 247.5 c 128
 1496 256.5 1505 265 1505 273 c 0
 1505 336.333333333 1480.66666667 442.333333333 1432 591 c 1
 1557 602 l 1
EndSplineSet
Validated: 1
EndChar

StartChar: Bf
Encoding: 65542 -1 94
Width: 1825
VWidth: 1524
GlyphClass: 2
Flags: HMW
LayerCount: 2
Fore
SplineSet
1828 0 m 1
 1653.33333333 0 1545 45 1503 135 c 1
 1436.33333333 78.3333333333 1271.33333333 31.6666666667 1008 -5 c 0
 893.333333333 -21 810.333333333 -29 759 -29 c 2
 679 -29 l 2
 498.333333333 -29 357.833333333 -3.33333333333 257.5 48 c 128
 157.166666667 99.3333333333 107 177.666666667 107 283 c 0
 107 372.333333333 130.666666667 479.666666667 178 605 c 1
 299 579 l 1
 291.666666667 555.666666667 278 514 258 454 c 128
 238 394 228 337.333333333 228 284 c 128
 228 230.666666667 266.5 190 343.5 162 c 128
 420.5 134 525.833333333 120 659.5 120 c 128
 793.166666667 120 947.666666667 134.5 1123 163.5 c 128
 1298.33333333 192.5 1405.33333333 229.666666667 1444 275 c 0
 1471.33333333 307 1490.33333333 339.5 1501 372.5 c 128
 1511.66666667 405.5 1519.66666667 432 1525 452 c 1
 1540 494 l 1
 1647 452 l 1
 1615.66666667 344 1600 280.333333333 1600 261 c 0
 1600 223.666666667 1616.83333333 195.833333333 1650.5 177.5 c 128
 1684.16666667 159.166666667 1743.33333333 150 1828 150 c 1
 1828 0 l 1
EndSplineSet
Validated: 1
EndChar

StartChar: Bi
Encoding: 65543 -1 95
Width: 507
VWidth: 1524
GlyphClass: 2
Flags: HMW
LayerCount: 2
Fore
SplineSet
341 586 m 1
 388.333333333 443.333333333 412 335.333333333 412 262 c 0
 412 188.666666667 379.333333333 126.666666667 314 76 c 0
 248.666666667 25.3333333333 165 0 63 0 c 2
 0 0 l 2
 -18 0 -36.3333333333 3.33333333333 -55 10 c 1
 -55 150 l 1
 63 150 l 2
 129.666666667 150 178.5 158 209.5 174 c 128
 240.5 190 261.333333333 204.333333333 272 217 c 128
 282.666666667 229.666666667 288 243.333333333 288 258 c 0
 288 318 264.333333333 423.666666667 217 575 c 1
 341 586 l 1
EndSplineSet
Validated: 1
EndChar

StartChar: Bm
Encoding: 65544 -1 96
Width: 548
VWidth: 1524
GlyphClass: 2
Flags: HMW
LayerCount: 2
Fore
SplineSet
271 85 m 1
 219.666666667 28.3333333333 138.333333333 0 27 0 c 2
 0 0 l 2
 -18 0 -36.3333333333 3.33333333333 -55 10 c 1
 -55 150 l 1
 27 150 l 2
 92.3333333333 150 140.666666667 161.833333333 172 185.5 c 128
 203.333333333 209.166666667 219 240 219 278 c 2
 219 452 l 1
 338 452 l 1
 338 278 l 2
 338 234 352.666666667 201.666666667 382 181 c 0
 411.333333333 160.333333333 467.666666667 150 551 150 c 1
 551 0 l 1
 405.666666667 0 312.333333333 28.3333333333 271 85 c 1
EndSplineSet
Validated: 1
EndChar

StartChar: Js
Encoding: 65545 -1 97
Width: 1177
VWidth: 1524
GlyphClass: 2
Flags: HMW
LayerCount: 2
Fore
SplineSet
108 30 m 0
 108 243.333333333 266.666666667 407.666666667 584 523 c 1
 382 633 l 1
 350 648.333333333 328.333333333 656 317 656 c 128
 305.666666667 656 295.333333333 650 286 638 c 1
 180 523 l 1
 108 593 l 1
 199 740 l 1
 205 747.333333333 211.333333333 755.166666667 218 763.5 c 128
 224.666666667 771.833333333 236.333333333 781 253 791 c 128
 269.666666667 801 291.666666667 806 319 806 c 128
 346.333333333 806 386 792.666666667 438 766 c 1
 696 627 l 1
 743.333333333 604.333333333 805.333333333 593 882 593 c 0
 903.333333333 593 922.333333333 592.666666667 939 592 c 1
 1051 592 l 1
 1051 442 l 1
 950 442 l 2
 816.666666667 442 678.333333333 413.666666667 535 357 c 0
 333.666666667 277.666666667 233 171.333333333 233 38 c 128
 233 -95.3333333333 294 -182.333333333 416 -223 c 0
 464 -239 520 -247 584 -247 c 0
 744 -247 879 -230.666666667 989 -198 c 1
 1020 -323 l 1
 876.666666667 -372.333333333 731.333333333 -397 584 -397 c 2
 581 -397 l 2
 333 -397 182 -302 128 -112 c 0
 114.666666667 -66.6666666667 108 -19.3333333333 108 30 c 0
EndSplineSet
Validated: 1
EndChar

StartChar: Jf
Encoding: 65546 -1 98
Width: 1177
VWidth: 1524
GlyphClass: 2
Flags: HMW
LayerCount: 2
Fore
SplineSet
108 30 m 0
 108 243.333333333 266.666666667 407.666666667 584 523 c 1
 382 633 l 1
 350 648.333333333 328.333333333 656 317 656 c 128
 305.666666667 656 295.333333333 650 286 638 c 1
 180 523 l 1
 108 593 l 1
 199 740 l 1
 205 747.333333333 211.333333333 755.166666667 218 763.5 c 128
 224.666666667 771.833333333 236.333333333 781 253 791 c 128
 269.666666667 801 291.666666667 806 319 806 c 128
 346.333333333 806 386 792.666666667 438 766 c 1
 696 627 l 1
 743.333333333 604.333333333 805.333333333 593 882 593 c 0
 903.333333333 593 922.333333333 592.666666667 939 592 c 1
 1051 592 l 1
 1051 442 l 1
 930 442 l 1
 985 289 l 2
 1000.33333333 245 1018 214.333333333 1038 197 c 0
 1075.33333333 165.666666667 1122.33333333 150 1179 150 c 1
 1179 0 l 1
 1049.66666667 0 960.333333333 50 911 150 c 0
 895.666666667 180.666666667 883.333333333 214.666666667 874 252 c 1
 825 431 l 1
 521.666666667 379.666666667 333.333333333 288 260 156 c 0
 241.333333333 122.666666667 232 86 232 46 c 0
 233.333333333 -149.333333333 355 -247 597 -247 c 0
 748.333333333 -247 879 -230.666666667 989 -198 c 1
 1020 -323 l 1
 876.666666667 -372.333333333 731.333333333 -397 584 -397 c 2
 581 -397 l 2
 333 -397 182 -302 128 -112 c 0
 114.666666667 -66.6666666667 108 -19.3333333333 108 30 c 0
EndSplineSet
Validated: 1
EndChar

StartChar: Ji
Encoding: 65547 -1 99
Width: 1177
VWidth: 1524
GlyphClass: 2
Flags: HMW
LayerCount: 2
Fore
SplineSet
1068 276 m 1
 970 276 l 2
 918.666666667 276 871 260.666666667 827 230 c 1
 709.666666667 138.666666667 610.333333333 77.5 529 46.5 c 128
 447.666666667 15.5 383.666666667 0 337 0 c 2
 0 0 l 2
 -18 0 -36.3333333333 3.33333333333 -55 10 c 1
 -55 150 l 1
 337 150 l 2
 420.333333333 150 521.333333333 188.333333333 640 265 c 0
 669.333333333 283.666666667 692 300 708 314 c 1
 701.333333333 317.333333333 694 320.666666667 686 324 c 128
 678 327.333333333 671.333333333 331 666 335 c 1
 396 492 l 1
 365.333333333 508 342.666666667 516 328 516 c 128
 313.333333333 516 299.333333333 508.666666667 286 494 c 2
 184 384 l 1
 109 456 l 1
 206 600 l 1
 238 644 284 666 344 666 c 0
 373.333333333 666 410 652 454 624 c 1
 723 466 l 1
 771.666666667 442 822 429.333333333 874 428 c 128
 926 426.666666667 972 426 1012 426 c 2
 1068 426 l 1
 1068 276 l 1
EndSplineSet
Validated: 1
EndChar

StartChar: Jm
Encoding: 65548 -1 100
Width: 1201
VWidth: 1524
GlyphClass: 2
Flags: HMW
LayerCount: 2
Fore
SplineSet
1204 0 m 1
 1078.66666667 0 992.166666667 12.6666666667 944.5 38 c 128
 896.833333333 63.3333333333 859.333333333 116 832 196 c 2
 821 228 l 1
 695 134.666666667 595.333333333 73.5 522 44.5 c 128
 448.666666667 15.5 385 0.666666666667 331 0 c 1
 0 0 l 2
 -18 0 -36.3333333333 3.33333333333 -55 10 c 1
 -55 150 l 1
 331 150 l 2
 414.333333333 150 515.333333333 188.333333333 634 265 c 0
 663.333333333 283.666666667 686.333333333 300 703 314 c 1
 696.333333333 317.333333333 688.833333333 320.666666667 680.5 324 c 128
 672.166666667 327.333333333 665.666666667 331 661 335 c 1
 391 492 l 1
 360.333333333 508 337.333333333 516 322 516 c 128
 306.666666667 516 293.333333333 508.666666667 282 494 c 1
 180 384 l 1
 105 456 l 1
 201 600 l 1
 232.333333333 644 278 666 338 666 c 0
 367.333333333 666 404.333333333 652 449 624 c 1
 719 466 l 1
 767.666666667 442 818 429.333333333 870 428 c 128
 922 426.666666667 968 426 1008 426 c 2
 1063 426 l 1
 1063 276 l 1
 964 276 l 2
 956.666666667 276 949.166666667 275.5 941.5 274.5 c 128
 933.833333333 273.5 927 272.666666667 921 272 c 1
 931 251 l 2
 949 213 977 186.666666667 1015 172 c 128
 1053 157.333333333 1116 150 1204 150 c 1
 1204 0 l 1
EndSplineSet
Validated: 1
EndChar

StartChar: Ds
Encoding: 65549 -1 101
Width: 898
VWidth: 1524
GlyphClass: 2
Flags: HMW
LayerCount: 2
Fore
SplineSet
690 215 m 0
 690 373.666666667 611 529.666666667 453 683 c 1
 530 798 l 1
 636 701.333333333 717 579.666666667 773 433 c 0
 798.333333333 367 811 294.333333333 811 215 c 0
 811 150.333333333 758 93.6666666667 652 45 c 128
 546 -3.66666666667 447.833333333 -28 357.5 -28 c 128
 267.166666667 -28 197 -12.6666666667 147 18 c 1
 206 150 l 1
 236.666666667 132 272.666666667 123 314 123 c 0
 448 123 553.666666667 138.333333333 631 169 c 0
 670.333333333 184.333333333 690 199.666666667 690 215 c 0
EndSplineSet
Validated: 1
EndChar

StartChar: Df
Encoding: 65550 -1 102
Width: 1053
VWidth: 1524
GlyphClass: 2
Flags: HMW
LayerCount: 2
Fore
SplineSet
718 225 m 1
 711.333333333 238.333333333 630.666666667 403.333333333 476 720 c 1
 584 788 l 1
 815 311 l 1
 849 243.666666667 881.833333333 200 913.5 180 c 128
 945.166666667 160 992.333333333 150 1055 150 c 1
 1055 0 l 1
 989 0 936.5 7.5 897.5 22.5 c 128
 858.5 37.5 822.333333333 65.3333333333 789 106 c 1
 693.666666667 44.6666666667 583.333333333 3.33333333333 458 -18 c 0
 416.666666667 -24.6666666667 377 -28 339 -28 c 0
 261 -28 197 -12.6666666667 147 18 c 1
 206 150 l 1
 236.666666667 132 281.833333333 123 341.5 123 c 128
 401.166666667 123 466.833333333 132.833333333 538.5 152.5 c 128
 610.166666667 172.166666667 670 196.333333333 718 225 c 1
EndSplineSet
Validated: 1
EndChar

StartChar: Rs
Encoding: 65551 -1 103
Width: 840
VWidth: 1524
GlyphClass: 2
Flags: HMW
LayerCount: 2
Fore
SplineSet
63 -290 m 1
 350.333333333 -186 526 -75.3333333333 590 42 c 0
 604 66.6666666667 611 98.6666666667 611 138 c 0
 611 177.333333333 601 227.5 581 288.5 c 0
 561 349.5 541 392.333333333 521 417 c 1
 616 510 l 1
 663.333333333 451.333333333 699.666666667 358 725 230 c 0
 732.333333333 192.666666667 736 155.333333333 736 118 c 0
 736 46 704.666666667 -28 642 -104 c 0
 534.666666667 -235.333333333 355 -345.333333333 103 -434 c 1
 63 -290 l 1
EndSplineSet
Validated: 1
EndChar

StartChar: Rf
Encoding: 65552 -1 104
Width: 981
VWidth: 1524
GlyphClass: 2
Flags: HMW
LayerCount: 2
Fore
SplineSet
981 0 m 1
 872.333333333 0 791 20 737 60 c 1
 709 -92 546.333333333 -234.666666667 249 -368 c 0
 203.666666667 -388 160 -407.666666667 118 -427 c 1
 67 -293 l 1
 107.666666667 -273 150 -253 194 -233 c 0
 360 -157.666666667 473.333333333 -90.3333333333 534 -31 c 128
 594.666666667 28.3333333333 625 88 625 148 c 0
 625 257.333333333 608.333333333 351.333333333 575 430 c 1
 692 476 l 1
 742 301 l 1
 758 247.666666667 776.333333333 213 797 197 c 0
 837 165.666666667 898.333333333 150 981 150 c 1
 981 0 l 1
EndSplineSet
Validated: 1
EndChar

StartChar: Ss
Encoding: 65553 -1 105
Width: 2003
VWidth: 1524
GlyphClass: 2
Flags: HMW
LayerCount: 2
Fore
SplineSet
975 8 m 0
 975 83.3333333333 938.333333333 177.333333333 865 290 c 1
 969 368 l 1
 1020 288 l 2
 1050 242 1079 207.5 1107 184.5 c 128
 1135 161.5 1170.83333333 150 1214.5 150 c 128
 1258.16666667 150 1293.33333333 165 1320 195 c 128
 1346.66666667 225 1360 252.666666667 1360 278 c 2
 1360 392 l 1
 1481 392 l 1
 1481 272 l 1
 1481.66666667 210.666666667 1510.66666667 172 1568 156 c 0
 1584 152 1601.66666667 150 1621 150 c 128
 1640.33333333 150 1665.83333333 154.333333333 1697.5 163 c 128
 1729.16666667 171.666666667 1751.5 186.333333333 1764.5 207 c 128
 1777.5 227.666666667 1784.66666667 244.666666667 1786 258 c 0
 1786 313.333333333 1761.66666667 419 1713 575 c 1
 1837 586 l 1
 1875.66666667 468 1897.16666667 389.5 1901.5 350.5 c 128
 1905.83333333 311.5 1908 277.666666667 1908 249 c 0
 1908 187 1878.16666667 130 1818.5 78 c 0
 1758.83333333 26 1687.5 0 1604.5 0 c 128
 1521.5 0 1457 32.6666666667 1411 98 c 1
 1361.66666667 32.6666666667 1298 0 1220 0 c 0
 1167.33333333 0 1126 6.66666666667 1096 20 c 1
 1096 10 l 2
 1096 -122 1026 -222 886 -290 c 0
 773.333333333 -344.666666667 626.666666667 -372 446 -372 c 0
 333.333333333 -372 245.833333333 -345 183.5 -291 c 128
 121.166666667 -237 90 -160.5 90 -61.5 c 128
 90 37.5 133.666666667 160.666666667 221 308 c 1
 320 263 l 1
 250.666666667 133 216 31.3333333333 216 -42 c 0
 216 -86 220.666666667 -117 230 -135 c 128
 239.333333333 -153 253.666666667 -168.666666667 273 -182 c 0
 315 -210 364.666666667 -224 422 -224 c 0
 706.666666667 -222.666666667 883.666666667 -170.666666667 953 -68 c 0
 967.666666667 -45.3333333333 975 -20 975 8 c 0
EndSplineSet
Validated: 1
EndChar

StartChar: Sf
Encoding: 65554 -1 106
Width: 2090
VWidth: 1524
GlyphClass: 2
Flags: HMW
LayerCount: 2
Fore
SplineSet
1481 272 m 2
 1481 190.666666667 1527 150 1619 150 c 128
 1711 150 1757 194 1757 282 c 2
 1757 392 l 1
 1877 392 l 1
 1877 275 l 2
 1877 191.666666667 1921.33333333 150 2010 150 c 2
 2092 150 l 1
 2092 0 l 1
 2010 0 l 2
 1917.33333333 0 1849.33333333 34 1806 102 c 1
 1755.33333333 34 1692.66666667 0 1618 0 c 4
 1526 0 1457 32.6666666667 1411 98 c 1
 1362.33333333 32.6666666667 1298.66666667 0 1220 0 c 0
 1167.33333333 0 1126 6.66666666667 1096 20 c 1
 1096 10 l 2
 1096 -122 1026 -222 886 -290 c 0
 773.333333333 -344.666666667 626.666666667 -372 446 -372 c 0
 208.666666667 -372 90 -268.666666667 90 -62 c 0
 90 36.6666666667 133.666666667 160 221 308 c 1
 320 263 l 1
 250.666666667 133 216 32.6666666667 216 -38 c 0
 216 -171.333333333 300.333333333 -238 469 -238 c 0
 806.333333333 -238 975 -156 975 8 c 0
 975 83.3333333333 938.333333333 177.333333333 865 290 c 1
 969 368 l 1
 1020 288 l 2
 1049.33333333 242 1078 207.5 1106 184.5 c 128
 1134 161.5 1170 150 1214 150 c 0
 1311.33333333 150 1360 192.666666667 1360 278 c 2
 1360 392 l 1
 1481 392 l 1
 1481 272 l 2
EndSplineSet
EndChar

StartChar: Si
Encoding: 65555 -1 107
Width: 1486
VWidth: 1524
GlyphClass: 2
Flags: HMW
LayerCount: 2
Fore
SplineSet
570 268 m 2
 570 189.333333333 616.666666667 150 710 150 c 0
 745.333333333 150 776.666666667 165 804 195 c 128
 831.333333333 225 845 252.666666667 845 278 c 2
 845 392 l 1
 964 392 l 1
 964 272 l 2
 964 232 977.5 201.666666667 1004.5 181 c 128
 1031.5 160.333333333 1065.33333333 150 1106 150 c 128
 1146.66666667 150 1183.66666667 160.833333333 1217 182.5 c 128
 1250.33333333 204.166666667 1267 229.333333333 1267 258 c 0
 1267 320 1243 425.666666667 1195 575 c 1
 1322 586 l 1
 1368 447.333333333 1391 341.666666667 1391 269 c 0
 1391 196.333333333 1361.16666667 133.666666667 1301.5 81 c 0
 1241.83333333 28.3333333333 1170.66666667 1.33333333333 1088 0 c 0
 1087 0 1087 0 1086 0 c 0
 1003.33333333 0 939.333333333 32.6666666667 894 98 c 1
 844.666666667 32.6666666667 777.5 0 692.5 0 c 128
 607.5 0 543 31.3333333333 499 94 c 1
 481 68 452.833333333 45.8333333333 414.5 27.5 c 128
 376.166666667 9.16666666667 334.333333333 0 289 0 c 2
 0 0 l 2
 -18 0 -36.3333333333 3.33333333333 -55 10 c 1
 -55 150 l 1
 289 150 l 2
 332.333333333 150 369.666666667 165 401 195 c 128
 432.333333333 225 448.333333333 251.333333333 449 274 c 1
 449 392 l 1
 570 392 l 1
 570 268 l 2
EndSplineSet
Validated: 1
EndChar

StartChar: Sm
Encoding: 65556 -1 108
Width: 1574
VWidth: 1524
GlyphClass: 2
Flags: HMW
LayerCount: 2
Fore
SplineSet
570 268 m 2
 570 189.333333333 616.666666667 150 710 150 c 0
 745.333333333 150 776.666666667 165 804 195 c 128
 831.333333333 225 845 252.666666667 845 278 c 2
 845 392 l 1
 964 392 l 1
 964 272 l 2
 964 232 977.5 201.666666667 1004.5 181 c 128
 1031.5 160.333333333 1064 150 1102 150 c 0
 1140 150 1172.33333333 165.5 1199 196.5 c 128
 1225.66666667 227.5 1239 256 1239 282 c 2
 1239 392 l 1
 1359 392 l 1
 1359 275 l 1
 1359.66666667 233.666666667 1373.66666667 202.5 1401 181.5 c 128
 1428.33333333 160.5 1459 150 1493 150 c 2
 1575 150 l 1
 1575 0 l 1
 1493 0 l 2
 1431.66666667 0 1377.33333333 19 1330 57 c 0
 1313.33333333 70.3333333333 1299.66666667 85.3333333333 1289 102 c 1
 1238.33333333 34 1171.33333333 0 1088 0 c 128
 1004.66666667 0 940 32.6666666667 894 98 c 1
 844.666666667 32.6666666667 777.5 0 692.5 0 c 128
 607.5 0 543 31.3333333333 499 94 c 1
 481 68 452.833333333 45.8333333333 414.5 27.5 c 128
 376.166666667 9.16666666667 334.333333333 0 289 0 c 2
 0 0 l 2
 -18 0 -36.3333333333 3.33333333333 -55 10 c 1
 -55 150 l 1
 289 150 l 2
 332.333333333 150 369.666666667 165 401 195 c 128
 432.333333333 225 448.333333333 251.333333333 449 274 c 1
 449 392 l 1
 570 392 l 1
 570 268 l 2
EndSplineSet
Validated: 1
EndChar

StartChar: Zs
Encoding: 65557 -1 109
Width: 2134
VWidth: 1524
GlyphClass: 2
Flags: HMW
LayerCount: 2
Fore
SplineSet
1484 150 m 2
 1624 150 1731.33333333 170 1806 210 c 128
 1880.66666667 250 1918 297.333333333 1918 352 c 0
 1918 379.333333333 1909.33333333 403 1892 423 c 0
 1858 462.333333333 1823 482 1787 482 c 0
 1696.33333333 482 1587.33333333 411.333333333 1460 270 c 0
 1425.33333333 230 1392 190 1360 150 c 1
 1484 150 l 2
975 8 m 0
 975 83.3333333333 938.333333333 177.333333333 865 290 c 1
 969 368 l 1
 1020 288 l 1
 1072.66666667 200 1131.66666667 155 1197 153 c 1
 1343 348.333333333 1468 482 1572 554 c 0
 1647.33333333 606 1713.5 632 1770.5 632 c 0
 1827.5 632 1878 614.666666667 1922 580 c 0
 2001.33333333 516 2041 433.333333333 2041 332 c 0
 2041 303.333333333 2029.83333333 267.666666667 2007.5 225 c 128
 1985.16666667 182.333333333 1951 144.333333333 1905 111 c 0
 1803 37 1662.66666667 0 1484 0 c 2
 1230 0 l 2
 1170.66666667 0 1126 6.66666666667 1096 20 c 1
 1096 10 l 2
 1096 -122 1026 -222 886 -290 c 0
 773.333333333 -344.666666667 626.666666667 -372 446 -372 c 0
 333.333333333 -372 245.833333333 -345 183.5 -291 c 128
 121.166666667 -237 90 -160.5 90 -61.5 c 128
 90 37.5 133.666666667 160.666666667 221 308 c 1
 320 263 l 1
 250.666666667 133 216 31.3333333333 216 -42 c 0
 216 -86 220.666666667 -117 230 -135 c 128
 239.333333333 -153 253.666666667 -168.666666667 273 -182 c 0
 315 -210 364.666666667 -224 422 -224 c 0
 706.666666667 -222.666666667 883.666666667 -170.666666667 953 -68 c 0
 967.666666667 -45.3333333333 975 -20 975 8 c 0
EndSplineSet
Validated: 1
EndChar

StartChar: Zf
Encoding: 65558 -1 110
Width: 2187
VWidth: 1524
GlyphClass: 2
Flags: HMW
LayerCount: 2
Fore
SplineSet
1486 150 m 2
 1624.66666667 150 1731.5 170.166666667 1806.5 210.5 c 0
 1881.5 250.833333333 1919 299 1919 355 c 0
 1919 381 1910.66666667 403.666666667 1894 423 c 0
 1860.66666667 462.333333333 1825.66666667 482 1789 482 c 0
 1723.66666667 482 1655.66666667 451.333333333 1585 390 c 128
 1514.33333333 328.666666667 1439.66666667 248.666666667 1361 150 c 1
 1486 150 l 2
975 8 m 0
 975 83.3333333333 938.333333333 177.333333333 865 290 c 1
 969 368 l 1
 1020 288 l 1
 1072.66666667 200 1132.33333333 155 1199 153 c 1
 1350.33333333 351 1476.66666667 484 1578 552 c 0
 1657.33333333 605.333333333 1730 632 1796 632 c 0
 1862 632 1919.5 599.666666667 1968.5 535 c 128
 2017.5 470.333333333 2042 407.333333333 2042 346 c 128
 2042 284.666666667 2016.66666667 224 1966 164 c 1
 1998 154.666666667 2072.33333333 150 2189 150 c 1
 2189 0 l 1
 2119 0 2070.66666667 1.33333333333 2044 4 c 2
 1977 12 l 2
 1931.66666667 17.3333333333 1876.66666667 33 1812 59 c 1
 1714.66666667 19.6666666667 1606 0 1486 0 c 2
 1231 0 l 2
 1171 0 1126 6.66666666667 1096 20 c 1
 1096 10 l 2
 1096 -122 1026 -222 886 -290 c 0
 773.333333333 -344.666666667 626.666666667 -372 446 -372 c 0
 333.333333333 -372 245.833333333 -345 183.5 -291 c 128
 121.166666667 -237 90 -160.5 90 -61.5 c 128
 90 37.5 133.666666667 160.666666667 221 308 c 1
 320 263 l 1
 250.666666667 133 216 31.3333333333 216 -42 c 0
 216 -86 220.666666667 -117 230 -135 c 128
 239.333333333 -153 253.666666667 -168.666666667 273 -182 c 0
 315 -210 364.666666667 -224 422 -224 c 0
 706.666666667 -222.666666667 883.666666667 -170.666666667 953 -68 c 0
 967.666666667 -45.3333333333 975 -20 975 8 c 0
EndSplineSet
Validated: 1
EndChar

StartChar: Zi
Encoding: 65559 -1 111
Width: 1434
VWidth: 1524
GlyphClass: 2
Flags: HMW
LayerCount: 2
Fore
SplineSet
497 148 m 1
 741.666666667 468 934.333333333 628 1075 628 c 0
 1173 628 1249.33333333 575.333333333 1304 470 c 0
 1328 424.666666667 1340 382.333333333 1340 343 c 128
 1340 303.666666667 1328.66666667 262.666666667 1306 220 c 128
 1283.33333333 177.333333333 1249.33333333 139.666666667 1204 107 c 0
 1098.66666667 31.6666666667 958.333333333 -6 783 -6 c 2
 523 -6 l 2
 491 -6 455.166666667 1.83333333333 415.5 17.5 c 128
 375.833333333 33.1666666667 344 58.6666666667 320 94 c 1
 303.333333333 69.3333333333 275.333333333 47.5 236 28.5 c 128
 196.666666667 9.5 154.666666667 0 110 0 c 2
 0 0 l 2
 -18 0 -36.3333333333 3.33333333333 -55 10 c 1
 -55 150 l 1
 110 150 l 2
 152.666666667 150 190 165 222 195 c 128
 254 225 270 251.333333333 270 274 c 2
 270 392 l 1
 391 392 l 1
 391 268 l 1
 391.666666667 210.666666667 415.333333333 173 462 155 c 0
 474 150.333333333 485.666666667 148 497 148 c 1
783 146 m 2
 993 146 1129 188.666666667 1191 274 c 0
 1208.33333333 298 1217 322.833333333 1217 348.5 c 128
 1217 374.166666667 1204.16666667 401.833333333 1178.5 431.5 c 128
 1152.83333333 461.166666667 1122 476 1086 476 c 0
 1085 476 1085 476 1084 476 c 0
 1018.66666667 476 950.333333333 445.166666667 879 383.5 c 0
 807.666666667 321.833333333 734.666666667 242.666666667 660 146 c 1
 783 146 l 2
EndSplineSet
Validated: 1
EndChar

StartChar: Zm
Encoding: 65560 -1 112
Width: 1486
VWidth: 1524
GlyphClass: 2
Flags: HMW
LayerCount: 2
Fore
SplineSet
1260 160 m 1
 1286.66666667 153.333333333 1362.66666667 150 1488 150 c 1
 1488 0 l 1
 1347.33333333 0 1256.33333333 6 1215 18 c 128
 1173.66666667 30 1137 42.3333333333 1105 55 c 1
 1004.33333333 14.3333333333 896 -6 780 -6 c 2
 519 -6 l 2
 487 -6 451.5 1.66666666667 412.5 17 c 128
 373.5 32.3333333333 341.333333333 58 316 94 c 1
 298.666666667 68.6666666667 270.5 46.6666666667 231.5 28 c 128
 192.5 9.33333333333 151 0 107 0 c 2
 0 0 l 2
 -18 0 -36.3333333333 3.33333333333 -55 10 c 1
 -55 150 l 1
 107 150 l 2
 147.666666667 150 184.333333333 164.833333333 217 194.5 c 128
 249.666666667 224.166666667 266 250.666666667 266 274 c 2
 266 392 l 1
 387 392 l 1
 387 268 l 1
 387.666666667 210.666666667 411.333333333 173 458 155 c 0
 470 150.333333333 481.666666667 148 493 148 c 1
 641.666666667 342.666666667 768 476 872 548 c 0
 949.333333333 601.333333333 1021.66666667 628 1089 628 c 128
 1156.33333333 628 1214.33333333 595.666666667 1263 531 c 0
 1311.66666667 466.333333333 1336 403.166666667 1336 341.5 c 0
 1336 279.833333333 1310.66666667 219.333333333 1260 160 c 1
780 146 m 2
 921.333333333 146 1028.83333333 166 1102.5 206 c 0
 1176.16666667 246 1213 290.666666667 1213 340 c 0
 1213 389.333333333 1188 430.333333333 1138 463 c 0
 1122.66666667 472.333333333 1100.66666667 477 1072 477 c 0
 966.666666667 477 828 366.666666667 656 146 c 1
 780 146 l 2
EndSplineSet
Validated: 1
EndChar

StartChar: Ts
Encoding: 65561 -1 113
Width: 1249
VWidth: 1524
GlyphClass: 2
Flags: HMW
LayerCount: 2
Fore
SplineSet
252 162 m 1
 276 191 l 1
 276 1141 l 1
 397 1141 l 1
 397 325 l 1
 582.333333333 527 750.666666667 628 902 628 c 0
 950 628 998.166666667 608.5 1046.5 569.5 c 128
 1094.83333333 530.5 1128.66666667 474.666666667 1148 402 c 0
 1153.33333333 382 1156 357.333333333 1156 328 c 128
 1156 298.666666667 1144.33333333 262.666666667 1121 220 c 128
 1097.66666667 177.333333333 1062.66666667 139.666666667 1016 107 c 0
 907.333333333 31.6666666667 754 -6 556 -6 c 128
 358 -6 213.666666667 10.3333333333 123 43 c 1
 164 185 l 1
 189.333333333 174.333333333 218.666666667 166.666666667 252 162 c 1
415 148 m 1
 445.666666667 146.666666667 476.333333333 146 507 146 c 2
 593 146 l 2
 735 146 843.666666667 166 919 206 c 128
 994.333333333 246 1032 290.666666667 1032 340 c 128
 1032 389.333333333 1006.66666667 430 956 462 c 0
 938 472.666666667 914.5 478 885.5 478 c 0
 856.5 478 819.666666667 468.333333333 775 449 c 0
 730.333333333 429.666666667 680.333333333 398.666666667 625 356 c 128
 569.666666667 313.333333333 499.666666667 244 415 148 c 1
EndSplineSet
Validated: 1
EndChar

StartChar: Tf
Encoding: 65562 -1 114
Width: 1302
VWidth: 1524
GlyphClass: 2
Flags: HMW
LayerCount: 2
Fore
SplineSet
413 148 m 1
 443 146.666666667 473.333333333 146 504 146 c 2
 590 146 l 2
 731.333333333 146 840 166 916 206 c 128
 992 246 1030.33333333 293 1031 347 c 0
 1030.33333333 373.666666667 1021.33333333 397.333333333 1004 418 c 0
 969.333333333 457.333333333 932.666666667 477 894 477 c 0
 818 477 740 446.166666667 660 384.5 c 128
 580 322.833333333 497.666666667 244 413 148 c 1
159 186 m 1
 171 180.666666667 201.666666667 172.666666667 251 162 c 1
 265.666666667 180.666666667 273.333333333 190.333333333 274 191 c 1
 274 1141 l 1
 395 1141 l 1
 395 325 l 1
 580.333333333 527 748.666666667 628 900 628 c 0
 947.333333333 628 995.166666667 608.5 1043.5 569.5 c 128
 1091.83333333 530.5 1125.66666667 474.666666667 1145 402 c 0
 1150.33333333 382 1153 363.666666667 1153 347 c 0
 1153 280.333333333 1126 217.333333333 1072 158 c 1
 1096 152.666666667 1127 150 1165 150 c 2
 1306 150 l 1
 1306 0 l 1
 1166 0 1073.83333333 6 1029.5 18 c 128
 985.166666667 30 947.666666667 42.3333333333 917 55 c 1
 816.333333333 14.3333333333 703 -6 577 -6 c 0
 363 -6 210.666666667 10.3333333333 120 43 c 1
 159 186 l 1
EndSplineSet
Validated: 1
EndChar

StartChar: Ti
Encoding: 65563 -1 115
Width: 1145
VWidth: 1524
GlyphClass: 2
Flags: HMW
LayerCount: 2
Fore
SplineSet
489 150 m 2
 630.333333333 150 739 169.333333333 815 208 c 128
 891 246.666666667 929 290.666666667 929 340 c 128
 929 389.333333333 903.333333333 430.666666667 852 464 c 0
 835.333333333 474 813 479 785 479 c 0
 757 479 719.333333333 468.666666667 672 448 c 0
 566.666666667 401.333333333 446.666666667 302 312 150 c 1
 489 150 l 2
139 150 m 1
 173 190 l 1
 173 1141 l 1
 293 1141 l 1
 293 325 l 1
 481.666666667 527 650.333333333 628 799 628 c 0
 843.666666667 628 890.666666667 608.666666667 940 570 c 128
 989.333333333 531.333333333 1023.66666667 475.333333333 1043 402 c 0
 1048.33333333 381.333333333 1051 357 1051 329 c 0
 1051 301 1039.5 265.166666667 1016.5 221.5 c 0
 993.5 177.833333333 958.666666667 140 912 108 c 0
 808.666666667 36 667.666666667 0 489 0 c 2
 0 0 l 2
 -18 0 -36.3333333333 3.33333333333 -55 10 c 1
 -55 150 l 1
 139 150 l 1
EndSplineSet
Validated: 1
EndChar

StartChar: Tm
Encoding: 65564 -1 116
Width: 1201
VWidth: 1524
GlyphClass: 2
Flags: HMW
LayerCount: 2
Fore
SplineSet
491 150 m 2
 633 150 741.666666667 169.333333333 817 208 c 128
 892.333333333 246.666666667 930 291 930 341 c 128
 930 391 906.333333333 430 859 458 c 0
 837.666666667 470.666666667 812 477 782 477 c 0
 752 477 715.666666667 467.333333333 673 448 c 0
 569.666666667 402.666666667 450 303.333333333 314 150 c 1
 491 150 l 2
140 150 m 1
 174 190 l 1
 174 1141 l 1
 295 1141 l 1
 295 325 l 1
 383.666666667 420.333333333 456.333333333 486 513 522 c 0
 622.333333333 592.666666667 715.166666667 628 791.5 628 c 128
 867.833333333 628 930.333333333 595.333333333 979 530 c 0
 1027.66666667 464.666666667 1052 401 1052 339 c 0
 1052 277 1025.33333333 216.666666667 972 158 c 1
 996 152.666666667 1026.66666667 150 1064 150 c 2
 1204 150 l 1
 1204 0 l 1
 1066 0 964.666666667 8.66666666667 900 26 c 0
 872.666666667 32.6666666667 843.333333333 42.3333333333 812 55 c 1
 718.666666667 18.3333333333 611.666666667 0 491 0 c 2
 0 0 l 2
 -18 0 -36.3333333333 3.33333333333 -55 10 c 1
 -55 150 l 1
 140 150 l 1
EndSplineSet
Validated: 1
EndChar

StartChar: Is
Encoding: 65565 -1 117
Width: 981
VWidth: 1524
GlyphClass: 2
Flags: HMW
LayerCount: 2
Fore
SplineSet
462 763 m 0
 460 763 460 763 458 763 c 0
 430.666666667 763 401.5 751.833333333 370.5 729.5 c 128
 339.5 707.166666667 324 683.333333333 324 658 c 0
 324 581.333333333 380.333333333 519.666666667 493 473 c 1
 587.666666667 515.666666667 691.333333333 550.666666667 804 578 c 1
 831 442 l 1
 423 333.333333333 219 173.333333333 219 -38 c 0
 219 -113.333333333 268.666666667 -170.666666667 368 -210 c 0
 440 -239.333333333 532.666666667 -254 646 -254 c 0
 682 -254 748.333333333 -252.333333333 845 -249 c 1
 866 -365 l 1
 783.333333333 -391.666666667 715.333333333 -405 662 -405 c 128
 608.666666667 -405 552.666666667 -401.666666667 494 -395 c 128
 435.333333333 -388.333333333 377 -371 319 -343 c 128
 261 -315 218 -287.333333333 190 -260 c 0
 126 -198 94 -123.333333333 94 -36 c 0
 94 125.333333333 176.333333333 267.666666667 341 391 c 1
 249 454.333333333 203 544 203 660 c 0
 203 720.666666667 232.5 777.333333333 291.5 830 c 128
 350.5 882.666666667 402.333333333 909 447 909 c 0
 448 909 448 909 449 909 c 0
 531 909 614.666666667 891.666666667 700 857 c 1
 660 740 l 1
 624.666666667 755.333333333 558.666666667 763 462 763 c 0
EndSplineSet
Validated: 1
EndChar

StartChar: If
Encoding: 65566 -1 118
Width: 981
VWidth: 1524
GlyphClass: 2
Flags: HMW
LayerCount: 2
Fore
SplineSet
637 -237 m 0
 687 -237 761.333333333 -235.666666667 860 -233 c 1
 871 -361 l 1
 801.666666667 -379 731 -388 659 -388 c 2
 652 -388 l 2
 446.666666667 -388 300.666666667 -344.333333333 214 -257 c 0
 151.333333333 -193.666666667 119.666666667 -119 119 -33 c 0
 119 115.666666667 196.666666667 247.333333333 352 362 c 0
 407.333333333 403.333333333 471.333333333 439 544 469 c 1
 521.333333333 514.333333333 479.666666667 537 419 537 c 1
 413 651 l 1
 504.333333333 688.333333333 577 707 631 707 c 128
 685 707 730.833333333 694 768.5 668 c 128
 806.166666667 642 825 606.5 825 561.5 c 128
 825 516.5 801.333333333 469.333333333 754 420 c 0
 739.333333333 404 721.666666667 389.333333333 701 376 c 1
 731.666666667 282 768 220.833333333 810 192.5 c 128
 852 164.166666667 909 150 981 150 c 1
 981 0 l 1
 873.666666667 0 796.666666667 16 750 48 c 0
 683.333333333 93.3333333333 628.666666667 186.666666667 586 328 c 1
 500 296 421.5 247 350.5 181 c 128
 279.5 115 244 43.6666666667 244 -33 c 0
 244 -80.3333333333 265.333333333 -121.333333333 308 -156 c 0
 374 -209.333333333 483.666666667 -236.333333333 637 -237 c 0
EndSplineSet
Validated: 1
EndChar

StartChar: Ii
Encoding: 65567 -1 119
Width: 898
VWidth: 1524
GlyphClass: 2
Flags: HMW
LayerCount: 2
Fore
SplineSet
468 220 m 1
 791 326 l 1
 826 182 l 1
 763.333333333 159.333333333 701.333333333 137.333333333 640 116 c 0
 420 38.6666666667 230 0 70 0 c 2
 0 0 l 2
 -18 0 -36.3333333333 3.33333333333 -55 10 c 1
 -55 150 l 1
 70 150 l 2
 144.666666667 150 210.333333333 155.666666667 267 167 c 1
 176.333333333 243 131 339.666666667 131 457 c 0
 131 517.666666667 160.166666667 574.666666667 218.5 628 c 128
 276.833333333 681.333333333 347.166666667 708 429.5 708 c 128
 511.833333333 708 600.333333333 694.333333333 695 667 c 1
 664 522 l 1
 568 546 493.5 558 440.5 558 c 128
 387.5 558 343.166666667 547.333333333 307.5 526 c 128
 271.833333333 504.666666667 254 483 254 461 c 0
 254 419 269.833333333 375.666666667 301.5 331 c 0
 333.166666667 286.333333333 388.666666667 249.333333333 468 220 c 1
EndSplineSet
Validated: 1
EndChar

StartChar: Im
Encoding: 65568 -1 120
Width: 698
VWidth: 1524
GlyphClass: 2
Flags: HMW
LayerCount: 2
Fore
SplineSet
125 473 m 1
 236.333333333 514.333333333 318 535 370 535 c 0
 422 535 466 522.5 502 497.5 c 128
 538 472.5 556 438 556 394 c 128
 556 350 537 308 499 268 c 0
 487.666666667 255.333333333 474.666666667 241.333333333 460 226 c 1
 484.666666667 196.666666667 515.333333333 176.666666667 552 166 c 128
 588.666666667 155.333333333 638.333333333 150 701 150 c 1
 701 0 l 1
 618.333333333 0 558.666666667 6.66666666667 522 20 c 0
 455.333333333 44 404.666666667 80.3333333333 370 129 c 1
 298.666666667 61.6666666667 220 21.6666666667 134 9 c 0
 106 3 79.6666666667 0 55 0 c 2
 0 0 l 2
 -18 0 -36.3333333333 3.33333333333 -55 10 c 1
 -55 150 l 1
 55 150 l 2
 149 150 230.666666667 182 300 246 c 1
 255.333333333 323.333333333 198.666666667 362 130 362 c 1
 125 473 l 1
EndSplineSet
Validated: 1
EndChar

StartChar: Fs
Encoding: 65569 -1 121
Width: 1647
VWidth: 1524
GlyphClass: 2
Flags: HMW
LayerCount: 2
Fore
SplineSet
1187 489 m 0
 1187 465.666666667 1232.33333333 454 1323 454 c 2
 1358 454 l 2
 1379.33333333 454 1406.33333333 461.333333333 1439 476 c 1
 1420.33333333 566.666666667 1379 626 1315 654 c 0
 1299 662 1284.16666667 666 1270.5 666 c 0
 1256.83333333 666 1245.33333333 660 1236 648 c 0
 1205.33333333 608 1189 555 1187 489 c 0
1323 304 m 0
 1151.66666667 304 1066 365.666666667 1066 489 c 0
 1066 560.333333333 1081.33333333 624.333333333 1112 681 c 0
 1160 769.666666667 1211.33333333 814 1266 814 c 0
 1335.33333333 814 1398.66666667 783.333333333 1456 722 c 0
 1526.66666667 648.666666667 1562 554 1562 438 c 0
 1562 251.333333333 1535.5 136.833333333 1482.5 94.5 c 128
 1429.5 52.1666666667 1324 21 1166 1 c 0
 1008 -19 865 -29 737 -29 c 0
 735 -28.3333333333 701 -28 635 -28 c 0
 569 -28 503 -22 437 -10 c 0
 217 31.3333333333 107 129.333333333 107 284 c 0
 107 372.666666667 130.666666667 479.666666667 178 605 c 1
 299 579 l 1
 291.666666667 555.666666667 278 514 258 454 c 128
 238 394 228 337.333333333 228 284 c 128
 228 230.666666667 266.666666667 190 344 162 c 128
 421.333333333 134 517.333333333 120 632 120 c 0
 989.333333333 120 1240.33333333 148 1385 204 c 1
 1411.66666667 217.333333333 1429.33333333 256.333333333 1438 321 c 1
 1407.33333333 309.666666667 1369 304 1323 304 c 0
EndSplineSet
Validated: 1
EndChar

StartChar: Ff
Encoding: 65570 -1 122
Width: 1647
VWidth: 1524
GlyphClass: 2
Flags: HMW
LayerCount: 2
Fore
SplineSet
228 286 m 0
 228 175.333333333 379.666666667 120 683 120 c 0
 832.333333333 120 987.666666667 140.666666667 1149 182 c 1
 1105 230.666666667 1083 295.5 1083 376.5 c 128
 1083 457.5 1132 534 1230 606 c 0
 1272.66666667 637.333333333 1315.33333333 653 1358 653 c 128
 1400.66666667 653 1442.33333333 625.5 1483 570.5 c 128
 1523.66666667 515.5 1544 453.333333333 1544 384 c 128
 1544 314.666666667 1507.66666667 245.666666667 1435 177 c 1
 1509.66666667 159 1581.33333333 150 1650 150 c 1
 1650 0 l 1
 1514.66666667 0 1394.33333333 26.3333333333 1289 79 c 1
 1126.33333333 7 913 -29 649 -29 c 0
 646 -29 646 -29 643 -29 c 0
 487.666666667 -29 359.5 -3.33333333333 258.5 48 c 128
 157.5 99.3333333333 107 177.666666667 107 283 c 0
 107 372.333333333 130.666666667 479.666666667 178 605 c 1
 299 579 l 1
 291.666666667 555.666666667 278 513.833333333 258 453.5 c 128
 238 393.166666667 228 337.333333333 228 286 c 0
1292 242 m 1
 1379.33333333 294.666666667 1423 343.333333333 1423 388 c 0
 1423 416 1415.16666667 442.333333333 1399.5 467 c 128
 1383.83333333 491.666666667 1367.66666667 504.333333333 1351 505 c 0
 1319 505 1286.5 489.833333333 1253.5 459.5 c 128
 1220.5 429.166666667 1204 400 1204 372 c 128
 1204 344 1211.16666667 320.666666667 1225.5 302 c 128
 1239.83333333 283.333333333 1262 263.333333333 1292 242 c 1
EndSplineSet
Validated: 1
EndChar

StartChar: Fi
Encoding: 65571 -1 123
Width: 698
VWidth: 1524
GlyphClass: 2
Flags: HMW
LayerCount: 2
Fore
SplineSet
366 302 m 0
 194 302 108 363.666666667 108 487 c 0
 108 561 127.666666667 633.666666667 167 705 c 128
 206.333333333 776.333333333 256.666666667 812 318 812 c 128
 379.333333333 812 442.5 778 507.5 710 c 128
 572.5 642 605 545.666666667 605 421 c 0
 605 243 578.666666667 133.333333333 526 92 c 0
 446.666666667 30.6666666667 288.333333333 0 51 0 c 2
 0 0 l 2
 -18 0 -36.3333333333 3.33333333333 -55 10 c 1
 -55 150 l 1
 51 150 l 2
 188.333333333 150 285.333333333 157.666666667 342 173 c 128
 398.666666667 188.333333333 431.166666667 200.333333333 439.5 209 c 128
 447.833333333 217.666666667 455.333333333 228 462 240 c 128
 468.666666667 252 475 278.666666667 481 320 c 1
 448.333333333 308 410 302 366 302 c 0
228 487 m 0
 228 463.666666667 274 452 366 452 c 0
 408.666666667 452 447.333333333 459.666666667 482 475 c 1
 464 565 422.666666667 624 358 652 c 0
 340.666666667 660 325.666666667 664 313 664 c 128
 300.333333333 664 290.666666667 660 284 652 c 0
 246.666666667 607.333333333 228 552.333333333 228 487 c 0
EndSplineSet
Validated: 1
EndChar

StartChar: Fm
Encoding: 65572 -1 124
Width: 698
VWidth: 1524
GlyphClass: 2
Flags: HMW
LayerCount: 2
Fore
SplineSet
348 233 m 1
 427.333333333 281 467 333 467 389 c 0
 467 414.333333333 458.5 439.833333333 441.5 465.5 c 128
 424.5 491.166666667 408 504 392 504 c 0
 361.333333333 504 329.333333333 489.166666667 296 459.5 c 128
 262.666666667 429.833333333 246 400.5 246 371.5 c 128
 246 342.5 254.5 318 271.5 298 c 128
 288.5 278 314 256.333333333 348 233 c 1
481 176 m 1
 551.666666667 158.666666667 625 150 701 150 c 1
 701 0 l 1
 562.333333333 0 441.333333333 24.6666666667 338 74 c 1
 240.666666667 24.6666666667 141 0 39 0 c 2
 0 0 l 2
 -18 0 -36.3333333333 3.33333333333 -55 10 c 1
 -55 150 l 1
 39 150 l 2
 93.6666666667 150 147.333333333 157.666666667 200 173 c 1
 149.333333333 226.333333333 124 288.166666667 124 358.5 c 128
 124 428.833333333 155.166666667 495.666666667 217.5 559 c 128
 279.833333333 622.333333333 335.833333333 654 385.5 654 c 128
 435.166666667 654 480.666666667 627.333333333 522 574 c 0
 564 518.666666667 585 455 585 383 c 0
 585 313 550.333333333 244 481 176 c 1
EndSplineSet
Validated: 1
EndChar

StartChar: Gs
Encoding: 65573 -1 125
Width: 1229
VWidth: 1524
GlyphClass: 2
Flags: HMW
LayerCount: 2
Fore
SplineSet
881 248 m 0
 921 248 959.333333333 255 996 269 c 1
 980 327 957.5 373 928.5 407 c 128
 899.5 441 866 458 828 458 c 0
 806.666666667 458 787.5 439.666666667 770.5 403 c 128
 753.5 366.333333333 745 327.666666667 745 287 c 0
 745 261 790.333333333 248 881 248 c 0
320 263 m 1
 250.666666667 133 216 31.3333333333 216 -42 c 0
 216 -86 220.666666667 -117 230 -135 c 128
 239.333333333 -153 253.666666667 -168.666666667 273 -182 c 0
 315 -210 364.666666667 -224 422 -224 c 0
 726.666666667 -222 915.666666667 -170 989 -68 c 0
 1005 -44.6666666667 1013.33333333 -18.6666666667 1014 10 c 1
 1014 119 l 1
 970.666666667 105 921.333333333 98 866 98 c 128
 810.666666667 98 762.666666667 106.666666667 722 124 c 0
 656.666666667 151.333333333 624 202.833333333 624 278.5 c 128
 624 354.166666667 644 428 684 500 c 128
 724 572 769.333333333 608 820 608 c 0
 821 608 821 608 822 608 c 0
 918.666666667 608 995 561.333333333 1051 468 c 128
 1107 374.666666667 1135 255 1135 109 c 2
 1135 10 l 2
 1135 -122 1058.66666667 -222 906 -290 c 0
 783.333333333 -344.666666667 630 -372 446 -372 c 0
 333.333333333 -372 245.833333333 -345 183.5 -291 c 128
 121.166666667 -237 90 -160.5 90 -61.5 c 128
 90 37.5 133.666666667 160.666666667 221 308 c 1
 320 263 l 1
EndSplineSet
Validated: 1
EndChar

StartChar: Gf
Encoding: 65574 -1 126
Width: 1290
VWidth: 1524
GlyphClass: 2
Flags: HMW
LayerCount: 2
Fore
SplineSet
320 263 m 1
 250.666666667 133 216 31.3333333333 216 -42 c 0
 216 -86 220.666666667 -117 230 -135 c 128
 239.333333333 -153 253.666666667 -168.666666667 273 -182 c 0
 315 -210 364.666666667 -224 422 -224 c 0
 654 -222.666666667 822.666666667 -190.666666667 928 -128 c 0
 989.333333333 -90.6666666667 1020 -44 1020 12 c 1
 911.333333333 28.6666666667 835.166666667 48.3333333333 791.5 71 c 128
 747.833333333 93.6666666667 715.833333333 117.833333333 695.5 143.5 c 128
 675.166666667 169.166666667 665 199.666666667 665 235 c 0
 665 311 685 384.666666667 725 456 c 128
 765 527.333333333 812.333333333 563.333333333 867 564 c 0
 1040.33333333 564 1131 427 1139 153 c 1
 1183 151 1233.66666667 150 1291 150 c 1
 1291 0 l 1
 1228.33333333 0 1178 1.33333333333 1140 4 c 1
 1136 -128 1057.66666667 -226.666666667 905 -292 c 0
 779.666666667 -345.333333333 626.666666667 -372 446 -372 c 0
 333.333333333 -372 245.833333333 -345 183.5 -291 c 128
 121.166666667 -237 90 -160.5 90 -61.5 c 128
 90 37.5 133.666666667 160.666666667 221 308 c 1
 320 263 l 1
1019 157 m 1
 1007.66666667 327.666666667 957 413 867 413 c 0
 845.666666667 413 826.666666667 393.333333333 810 354 c 128
 793.333333333 314.666666667 785 275.666666667 785 237 c 0
 785 205 833.333333333 182 930 168 c 0
 958 164 987.666666667 160.333333333 1019 157 c 1
EndSplineSet
Validated: 1
EndChar

StartChar: Qs
Encoding: 65575 -1 127
Width: 1249
VWidth: 1524
GlyphClass: 2
Flags: HMW
LayerCount: 2
Fore
SplineSet
725 793 m 1
 655 793 602.666666667 776.666666667 568 744 c 0
 549.333333333 725.333333333 549.333333333 711.666666667 568 703 c 0
 576 699 586 693.666666667 598 687 c 258
 636 668 l 1
 689.333333333 642.666666667 716 606 716 558 c 256
 716 508.666666667 674.333333333 467.333333333 591 434 c 0
 526.333333333 408 468.666666667 395 418 395 c 0
 416 395 416 395 414 395 c 1
 414 496 l 1
 476 496 523.666666667 501.833333333 557 513.5 c 128
 590.333333333 525.166666667 611.333333333 533.833333333 620 539.5 c 128
 628.666666667 545.166666667 633 551.333333333 633 558 c 0
 633 560.666666667 627.333333333 564.666666667 616 570 c 2
 579 588 l 2
 540.333333333 607.333333333 512.666666667 625.833333333 496 643.5 c 128
 479.333333333 661.166666667 471 682.666666667 471 708 c 0
 471 754.666666667 496.333333333 797.666666667 547 837 c 128
 597.666666667 876.333333333 657 896 725 896 c 1
 725 793 l 1
140 180 m 1
 215.333333333 146.666666667 324.333333333 130 467 130 c 0
 717 130 866 140.833333333 914 162.5 c 128
 962 184.166666667 986 236.333333333 986 319 c 2
 986 1141 l 1
 1106 1141 l 1
 1106 319 l 2
 1106 169.666666667 1068.33333333 76.3333333333 993 39 c 0
 933.666666667 9 795.333333333 -10.6666666667 578 -20 c 0
 539.333333333 -21.3333333333 493 -22 439 -22 c 0
 303.666666667 -22 188.666666667 1 94 47 c 1
 140 180 l 1
EndSplineSet
Validated: 1
EndChar

StartChar: Qf
Encoding: 65576 -1 128
Width: 1316
VWidth: 1524
GlyphClass: 2
Flags: HMW
LayerCount: 2
Fore
SplineSet
140 180 m 1
 215.333333333 146.666666667 324.333333333 130 467 130 c 0
 708.333333333 130 852.833333333 140.833333333 900.5 162.5 c 128
 948.166666667 184.166666667 972 236.333333333 972 319 c 2
 972 1141 l 1
 1092 1141 l 1
 1092 372 l 2
 1092 290.666666667 1102.33333333 238.166666667 1123 214.5 c 128
 1143.66666667 190.833333333 1168.83333333 174.166666667 1198.5 164.5 c 128
 1228.16666667 154.833333333 1268.33333333 150 1319 150 c 1
 1319 0 l 1
 1242.33333333 0 1183.66666667 8.66666666667 1143 26 c 0
 1102.33333333 43.3333333333 1069 67.6666666667 1043 99 c 1
 1014.33333333 56.3333333333 971 28.3333333333 913 15 c 0
 781.666666667 -9.66666666667 656.333333333 -22 537 -22 c 128
 417.666666667 -22 326 -16.3333333333 262 -5 c 128
 198 6.33333333333 142 23.6666666667 94 47 c 1
 140 180 l 1
725 793 m 1
 655 793 602.666666667 776.666666667 568 744 c 0
 549.333333333 725.333333333 549.333333333 711.666666667 568 703 c 0
 576 699 586 693.666666667 598 687 c 2
 636 668 l 1
 689.333333333 642.666666667 716 605.666666667 716 557 c 0
 716 508.333333333 674.333333333 467.333333333 591 434 c 0
 526.333333333 408 468.666666667 395 418 395 c 0
 416 395 416 395 414 395 c 1
 414 496 l 1
 476 496 523.666666667 501.833333333 557 513.5 c 128
 590.333333333 525.166666667 611.333333333 533.833333333 620 539.5 c 128
 628.666666667 545.166666667 633 551.333333333 633 558 c 0
 633 560.666666667 627.333333333 564.666666667 616 570 c 2
 579 588 l 2
 540.333333333 607.333333333 512.666666667 625.833333333 496 643.5 c 128
 479.333333333 661.166666667 471 682.666666667 471 708 c 0
 471 754.666666667 496.333333333 797.666666667 547 837 c 128
 597.666666667 876.333333333 657 896 725 896 c 1
 725 793 l 1
EndSplineSet
Validated: 1
EndChar

StartChar: Ks
Encoding: 65577 -1 129
Width: 1725
VWidth: 1524
GlyphClass: 2
Flags: HMW
LayerCount: 2
Fore
SplineSet
1462 289 m 0
 1462 77 1191 -29 649 -29 c 0
 646 -29 646 -29 643 -29 c 0
 487.666666667 -29 359.5 -3.33333333333 258.5 48 c 0
 157.5 99.3333333333 107 177.666666667 107 283 c 0
 107 372.333333333 130.666666667 479.666666667 178 605 c 1
 299 579 l 1
 291.666666667 555.666666667 278 514 258 454 c 128
 238 394 228 337.333333333 228 284 c 128
 228 230.666666667 266.5 190 343.5 162 c 128
 420.5 134 522.333333333 120 649 120 c 0
 1109.66666667 120 1340 176.333333333 1340 289 c 0
 1340 379 1267.66666667 468 1123 556 c 0
 1079.66666667 582.666666667 1033.33333333 609.333333333 984 636 c 1
 1003 837 l 1
 1172.33333333 951.666666667 1338.33333333 1050.33333333 1501 1133 c 0
 1554.33333333 1159.66666667 1604.33333333 1180.66666667 1651 1196 c 1
 1690 1053 l 1
 1531.33333333 994.333333333 1335.66666667 888 1103 734 c 1
 1218.33333333 666.666666667 1297.33333333 609.5 1340 562.5 c 128
 1382.66666667 515.5 1413.66666667 471 1433 429 c 128
 1452.33333333 387 1462 340.333333333 1462 289 c 0
EndSplineSet
Validated: 1
EndChar

StartChar: Kf
Encoding: 65578 -1 130
Width: 1825
VWidth: 1524
GlyphClass: 2
Flags: HMW
LayerCount: 2
Fore
SplineSet
649 120 m 0
 1109.66666667 120 1340 176.333333333 1340 289 c 0
 1340 379 1267.66666667 468 1123 556 c 0
 1079.66666667 582.666666667 1033.33333333 609.333333333 984 636 c 1
 1003 837 l 1
 1172.33333333 951.666666667 1338.33333333 1050.33333333 1501 1133 c 0
 1554.33333333 1159.66666667 1604.33333333 1180.66666667 1651 1196 c 1
 1690 1053 l 1
 1530 993.666666667 1334 887.333333333 1102 734 c 1
 1268.66666667 634.666666667 1390.5 546.833333333 1467.5 470.5 c 128
 1544.5 394.166666667 1595.16666667 333.5 1619.5 288.5 c 128
 1643.83333333 243.5 1666.66666667 213 1688 197 c 0
 1730.66666667 165.666666667 1775 150 1821 150 c 2
 1828 150 l 1
 1828 0 l 1
 1718.66666667 0 1631.33333333 46 1566 138 c 0
 1547.33333333 163.333333333 1532.33333333 187.333333333 1521 210 c 128
 1509.66666667 232.666666667 1489.66666667 261 1461 295 c 1
 1459 162.333333333 1364.66666667 71.3333333333 1178 22 c 0
 1066 -7.33333333333 963.333333333 -23.3333333333 870 -26 c 0
 795.333333333 -28 729 -29 671 -29 c 0
 649 -29 649 -29 628 -29 c 0
 481.333333333 -29 357.833333333 -3.33333333333 257.5 48 c 128
 157.166666667 99.3333333333 107 177.666666667 107 283 c 0
 107 372.333333333 130.666666667 479.666666667 178 605 c 1
 299 579 l 1
 291.666666667 555.666666667 278 514 258 454 c 128
 238 394 228 337.333333333 228 284 c 128
 228 230.666666667 266.333333333 190 343 162 c 128
 419.666666667 134 521.666666667 120 649 120 c 0
EndSplineSet
Validated: 1
EndChar

StartChar: Ki
Encoding: 65579 -1 131
Width: 796
VWidth: 1524
GlyphClass: 2
Flags: HMW
LayerCount: 2
Fore
SplineSet
-55 10 m 1
 -55 150 l 1
 55 150 l 2
 208.333333333 150 315.333333333 176 376 228 c 0
 396.666666667 245.333333333 407 268.666666667 407 298 c 0
 407 356.666666667 372.333333333 415.666666667 303 475 c 0
 252.333333333 518.333333333 168.666666667 572 52 636 c 1
 71 837 l 1
 242.333333333 953 408 1051.66666667 568 1133 c 0
 621.333333333 1159.66666667 671.666666667 1180.66666667 719 1196 c 1
 757 1053 l 1
 598.333333333 994.333333333 402.666666667 888 170 734 c 1
 284.666666667 667.333333333 363.333333333 610.333333333 406 563 c 0
 488 472.333333333 529 386 529 304 c 0
 529 261.333333333 522.666666667 226 510 198 c 0
 475.333333333 122 398.666666667 66 280 30 c 0
 213.333333333 10 155.333333333 0 106 0 c 2
 2 0 l 2
 -17.3333333333 0 -36.3333333333 3.33333333333 -55 10 c 1
EndSplineSet
Validated: 1
EndChar

StartChar: Km
Encoding: 65580 -1 132
Width: 898
VWidth: 1524
GlyphClass: 2
Flags: HMW
LayerCount: 2
Fore
SplineSet
900 0 m 1
 786.666666667 0 698 45.3333333333 634 136 c 0
 615.333333333 161.333333333 600.666666667 184.666666667 590 206 c 128
 579.333333333 227.333333333 568.833333333 244.5 558.5 257.5 c 128
 548.166666667 270.5 538 284 528 298 c 1
 528 200.666666667 478 124.666666667 378 70 c 0
 292 23.3333333333 184.333333333 0 55 0 c 2
 0 0 l 2
 -18 0 -36.3333333333 3.33333333333 -55 10 c 1
 -55 150 l 1
 55 150 l 2
 208.333333333 150 315.333333333 176 376 228 c 0
 396.666666667 245.333333333 407 268.666666667 407 298 c 0
 407 356.666666667 372.333333333 415.666666667 303 475 c 0
 252.333333333 518.333333333 168.666666667 572 52 636 c 1
 71 837 l 1
 242.333333333 953 408 1051.66666667 568 1133 c 0
 621.333333333 1159.66666667 671.666666667 1180.66666667 719 1196 c 1
 757 1053 l 1
 597 993.666666667 401 887.333333333 169 734 c 1
 334.333333333 635.333333333 454.833333333 549.166666667 530.5 475.5 c 128
 606.166666667 401.833333333 657.333333333 341 684 293 c 128
 710.666666667 245 734.666666667 213 756 197 c 0
 798.666666667 165.666666667 846.666666667 150 900 150 c 1
 900 0 l 1
EndSplineSet
Validated: 1
EndChar

StartChar: Ls
Encoding: 65581 -1 133
Width: 1236
VWidth: 1524
GlyphClass: 2
Flags: HMW
LayerCount: 2
Fore
SplineSet
320 263 m 1
 250.666666667 133 216 31.3333333333 216 -42 c 0
 216 -86 220.666666667 -117 230 -135 c 128
 239.333333333 -153 253.666666667 -168.666666667 273 -182 c 0
 315 -210 364.666666667 -224 422 -224 c 0
 707.333333333 -222.666666667 884.666666667 -170.666666667 954 -68 c 0
 968.666666667 -45.3333333333 976 -27 976 -13 c 2
 976 1141 l 1
 1096 1141 l 1
 1096 10 l 2
 1096 -122 1026 -222 886 -290 c 0
 773.333333333 -344.666666667 626.666666667 -372 446 -372 c 0
 333.333333333 -372 245.833333333 -345 183.5 -291 c 128
 121.166666667 -237 90 -160.5 90 -61.5 c 128
 90 37.5 133.666666667 160.666666667 221 308 c 1
 320 263 l 1
EndSplineSet
Validated: 1
EndChar

StartChar: Lf
Encoding: 65582 -1 134
Width: 1316
VWidth: 1524
GlyphClass: 2
Flags: HMW
LayerCount: 2
Fore
SplineSet
320 263 m 1
 250.666666667 133 216 31.3333333333 216 -42 c 0
 216 -86 220.666666667 -117 230 -135 c 128
 239.333333333 -153 253.666666667 -168.666666667 273 -182 c 0
 315 -210 364.666666667 -224 422 -224 c 0
 707.333333333 -222.666666667 884.666666667 -170.666666667 954 -68 c 0
 968.666666667 -45.3333333333 976 -27 976 -13 c 2
 976 1141 l 1
 1096 1141 l 1
 1096 282 l 2
 1096 194 1170.33333333 150 1319 150 c 1
 1319 0 l 1
 1227.66666667 0 1153.33333333 14 1096 42 c 1
 1096 10 l 2
 1096 -122 1026 -222 886 -290 c 0
 773.333333333 -344.666666667 626.666666667 -372 446 -372 c 0
 333.333333333 -372 245.833333333 -345 183.5 -291 c 128
 121.166666667 -237 90 -160.5 90 -61.5 c 128
 90 37.5 133.666666667 160.666666667 221 308 c 1
 320 263 l 1
EndSplineSet
Validated: 1
EndChar

StartChar: Li
Encoding: 65583 -1 135
Width: 507
VWidth: 1524
GlyphClass: 2
Flags: HMW
LayerCount: 2
Fore
SplineSet
240 1141 m 1
 360 1141 l 1
 360 319 l 2
 360 191.666666667 336 106.666666667 288 64 c 0
 240 21.3333333333 169.333333333 0 76 0 c 2
 0 0 l 2
 -18 0 -36.3333333333 3.33333333333 -55 10 c 1
 -55 150 l 1
 76 150 l 2
 130 150 167 158 187 174 c 0
 222.333333333 204 240 252.333333333 240 319 c 2
 240 1141 l 1
EndSplineSet
Validated: 1
EndChar

StartChar: Lm
Encoding: 65584 -1 136
Width: 548
VWidth: 1524
GlyphClass: 2
Flags: HMW
LayerCount: 2
Fore
SplineSet
551 0 m 1
 411.666666667 0 315.666666667 30.3333333333 263 91 c 1
 237 53.6666666667 209 31 179 23 c 0
 125.666666667 7.66666666667 75 0 27 0 c 2
 0 0 l 2
 -18 0 -36.3333333333 3.33333333333 -55 10 c 1
 -55 150 l 1
 27 150 l 2
 81.6666666667 150 119 158 139 174 c 0
 174.333333333 204 192 252.333333333 192 319 c 2
 192 1141 l 1
 313 1141 l 1
 313 354 l 1
 313.666666667 284.666666667 330.666666667 233.333333333 364 200 c 0
 397.333333333 166.666666667 459.666666667 150 551 150 c 1
 551 0 l 1
EndSplineSet
Validated: 1
EndChar

StartChar: Ms
Encoding: 65585 -1 137
Width: 1004
VWidth: 1524
GlyphClass: 2
Flags: HMW
LayerCount: 2
Fore
SplineSet
774 482 m 1
 778 490 780 503.333333333 780 522 c 0
 780 562.666666667 761.333333333 604.833333333 724 648.5 c 128
 686.666666667 692.166666667 641.333333333 714 588 714 c 0
 556 714 534 690 522 642 c 0
 518 627.333333333 516 608.666666667 516 586 c 128
 516 563.333333333 522 540 534 516 c 1
 612.666666667 514.666666667 692.666666667 503.333333333 774 482 c 1
218 320 m 0
 218 240 246 -15.6666666667 302 -447 c 1
 182 -467 l 1
 126 -23.6666666667 98 238.666666667 98 320 c 0
 98 407.333333333 163.333333333 464 294 490 c 0
 331.333333333 497.333333333 368.333333333 503.333333333 405 508 c 1
 398.333333333 529.333333333 395 560 395 600 c 0
 395 672 414 734.166666667 452 786.5 c 128
 490 838.833333333 535 865 587 865 c 0
 588 865 588 865 589 865 c 0
 641.666666667 864.333333333 694 845.333333333 746 808 c 0
 816.666666667 757.333333333 864.333333333 686.666666667 889 596 c 0
 896.333333333 569.333333333 900 541.5 900 512.5 c 128
 900 483.5 894.666666667 454.333333333 884 425 c 1
 845 302 l 1
 737 344.666666667 619.833333333 366 493.5 366 c 128
 367.166666667 366 280 355.333333333 232 334 c 0
 222.666666667 330 218 325.333333333 218 320 c 0
EndSplineSet
Validated: 1
EndChar

StartChar: Mf
Encoding: 65586 -1 138
Width: 1145
VWidth: 1524
GlyphClass: 2
Flags: HMW
LayerCount: 2
Fore
SplineSet
609 532 m 1
 570 598 l 1
 673 674 l 1
 898 294 l 1
 947.333333333 209.333333333 1007.33333333 162.666666667 1078 154 c 0
 1100.66666667 151.333333333 1123.66666667 150 1147 150 c 1
 1147 0 l 1
 1073.66666667 0 1016.33333333 10 975 30 c 1
 943.666666667 -42 893.333333333 -89.3333333333 824 -112 c 0
 801.333333333 -119.333333333 776 -123 748 -123 c 128
 720 -123 693.333333333 -114.666666667 668 -98 c 0
 618 -65.3333333333 581.333333333 -16.6666666667 558 48 c 0
 547.333333333 76.6666666667 541.666666667 104 541 130 c 0
 541 217.333333333 561 299.333333333 601 376 c 1
 557 404 491.333333333 418 404 418 c 128
 316.666666667 418 258.666666667 397.333333333 230 356 c 0
 222 344 218 332 218 320 c 0
 218 240 246 -15.6666666667 302 -447 c 1
 182 -467 l 1
 126 -23.6666666667 98 226.333333333 98 283 c 128
 98 339.666666667 104.333333333 383 117 413 c 128
 129.666666667 443 149 469.333333333 175 492 c 0
 233 542.666666667 304.666666667 568 390 568 c 128
 475.333333333 568 548.333333333 556 609 532 c 1
725 336 m 1
 683.666666667 272 663 203.333333333 663 130 c 0
 663.666666667 108.666666667 672.666666667 86 690 62 c 0
 707.333333333 38 729 26 755 26 c 128
 781 26 804.666666667 33.6666666667 826 49 c 128
 847.333333333 64.3333333333 863 84 873 108 c 1
 846.333333333 136.666666667 823.833333333 166.333333333 805.5 197 c 128
 787.166666667 227.666666667 772 252.833333333 760 272.5 c 128
 748 292.166666667 736.333333333 313.333333333 725 336 c 1
EndSplineSet
Validated: 1
EndChar

StartChar: Mi
Encoding: 65587 -1 139
Width: 850
VWidth: 1524
GlyphClass: 2
Flags: HMW
LayerCount: 2
Fore
SplineSet
587 115 m 0
 615.666666667 115 630 136.166666667 630 178.5 c 128
 630 220.833333333 620.666666667 255 602 281 c 0
 570 327 540.666666667 350 514 350 c 128
 487.333333333 350 450.666666667 320.666666667 404 262 c 0
 390.666666667 244.666666667 376.333333333 227.333333333 361 210 c 1
 424.333333333 146.666666667 499.666666667 115 587 115 c 0
598 -36 m 0
 476.666666667 -36 369 12 275 108 c 1
 241 77.3333333333 198.166666667 51.8333333333 146.5 31.5 c 0
 94.8333333333 11.1666666667 52.6666666667 1 20 1 c 0
 -12.6666666667 1 -37.6666666667 4 -55 10 c 1
 -55 150 l 1
 0 150 l 2
 98.6666666667 150 179.166666667 190.666666667 241.5 272 c 128
 303.833333333 353.333333333 347 405.333333333 371 428 c 0
 423 476 473.166666667 500 521.5 500 c 128
 569.833333333 500 620.333333333 466.166666667 673 398.5 c 128
 725.666666667 330.833333333 752 258 752 180 c 0
 752 73.3333333333 720 5.66666666667 656 -23 c 0
 636 -31.6666666667 616.666666667 -36 598 -36 c 0
EndSplineSet
Validated: 1
EndChar

StartChar: Mm
Encoding: 65588 -1 140
Width: 1004
VWidth: 1524
GlyphClass: 2
Flags: HMW
LayerCount: 2
Fore
SplineSet
703 124 m 1
 676.333333333 -1.33333333333 616 -64 522 -64 c 128
 428 -64 338 -0.333333333333 252 127 c 1
 167.333333333 42.3333333333 83.3333333333 0 0 0 c 0
 -18 0 -36.3333333333 3.33333333333 -55 10 c 1
 -55 150 l 1
 0 150 l 2
 54.6666666667 150 109.333333333 176.666666667 164 230 c 0
 178.666666667 244.666666667 207 274.333333333 249 319 c 0
 357.666666667 434.333333333 445.333333333 492 512 492 c 0
 513 492 513 492 514 492 c 0
 552.666666667 492 597 462 647 402 c 1
 772 249 l 1
 824.666666667 183 903.333333333 150 1008 150 c 1
 1008 0 l 1
 916.666666667 0 842 17.6666666667 784 53 c 0
 758 69.6666666667 731 93.3333333333 703 124 c 1
342 222 m 1
 402 130.666666667 461.333333333 85 520 85 c 0
 540 85 556.333333333 95.1666666667 569 115.5 c 128
 581.666666667 135.833333333 588 163.333333333 588 198 c 128
 588 232.666666667 580.333333333 265 565 295 c 128
 549.666666667 325 535.333333333 340 522 340 c 0
 496 339.333333333 467.5 327.166666667 436.5 303.5 c 128
 405.5 279.833333333 374 252.666666667 342 222 c 1
EndSplineSet
Validated: 1
EndChar

StartChar: Ns
Encoding: 65589 -1 141
Width: 1177
VWidth: 1524
GlyphClass: 2
Flags: HMW
LayerCount: 2
Fore
SplineSet
320 263 m 1
 250.666666667 133 216 31.3333333333 216 -42 c 0
 216 -86 220.833333333 -117 230.5 -135 c 128
 240.166666667 -153 254.666666667 -168.666666667 274 -182 c 0
 315.333333333 -210 365.333333333 -224 424 -224 c 0
 709.333333333 -222.666666667 886.666666667 -170.666666667 956 -68 c 0
 970.666666667 -45.3333333333 978 -18.6666666667 978 12 c 128
 978 42.6666666667 964.833333333 100.666666667 938.5 186 c 128
 912.166666667 271.333333333 883.666666667 345.666666667 853 409 c 1
 963 468 l 1
 1022.33333333 338.666666667 1065.33333333 212.333333333 1092 89 c 0
 1100 53.6666666667 1104 19.5 1104 -13.5 c 128
 1104 -46.5 1094.66666667 -81.3333333333 1076 -118 c 0
 1024 -224 919.333333333 -296.666666667 762 -336 c 0
 663.333333333 -360 571.666666667 -372 487 -372 c 128
 402.333333333 -372 338 -364.666666667 294 -350 c 0
 158 -304.666666667 90 -213.333333333 90 -76 c 0
 90 32.6666666667 133.666666667 160.666666667 221 308 c 1
 320 263 l 1
EndSplineSet
Validated: 1
EndChar

StartChar: Nf
Encoding: 65590 -1 142
Width: 1268
VWidth: 1524
GlyphClass: 2
Flags: HMW
LayerCount: 2
Fore
SplineSet
975 8 m 0
 975 83.3333333333 938.333333333 177.333333333 865 290 c 1
 969 368 l 1
 1020 288 l 2
 1057.33333333 229.333333333 1091.66666667 191.666666667 1123 175 c 128
 1154.33333333 158.333333333 1203.66666667 150 1271 150 c 1
 1271 0 l 1
 1190.33333333 0 1132 13 1096 39 c 1
 1096 10 l 2
 1096 -122 1026 -222 886 -290 c 0
 773.333333333 -344.666666667 626.666666667 -372 446 -372 c 0
 333.333333333 -372 245.833333333 -345 183.5 -291 c 128
 121.166666667 -237 90 -160.5 90 -61.5 c 128
 90 37.5 133.666666667 160.666666667 221 308 c 1
 320 263 l 1
 250.666666667 133 216 31.3333333333 216 -42 c 0
 216 -86 220.666666667 -117 230 -135 c 128
 239.333333333 -153 253.666666667 -168.666666667 273 -182 c 0
 315 -210 364.666666667 -224 422 -224 c 0
 706.666666667 -222.666666667 883.666666667 -170.666666667 953 -68 c 0
 967.666666667 -45.3333333333 975 -20 975 8 c 0
EndSplineSet
Validated: 1
EndChar

StartChar: Vs
Encoding: 65591 -1 143
Width: 840
VWidth: 1524
GlyphClass: 2
Flags: HMW
LayerCount: 2
Fore
SplineSet
601 83 m 1
 566.333333333 71 533.833333333 65 503.5 65 c 128
 473.166666667 65 449.333333333 65.6666666667 432 67 c 0
 301.333333333 77 236 138.333333333 236 251 c 0
 236 323 262.833333333 399.333333333 316.5 480 c 128
 370.166666667 560.666666667 422.333333333 601 473 601 c 0
 548.333333333 600.333333333 610.5 556.166666667 659.5 468.5 c 0
 708.5 380.833333333 733 292.333333333 733 203 c 0
 733 113.666666667 724 44 706 -6 c 0
 674.666666667 -91.3333333333 617 -169 533 -239 c 128
 449 -309 327.666666667 -373.666666667 169 -433 c 1
 128 -294 l 1
 130 -290 l 1
 401.333333333 -188.666666667 558.333333333 -64.3333333333 601 83 c 1
356 251 m 0
 356 227.666666667 397 216 479 216 c 0
 523.666666667 216 567.666666667 225.333333333 611 244 c 1
 594.333333333 336.666666667 565.333333333 399.666666667 524 433 c 0
 509.333333333 445 493.666666667 451 477 451 c 0
 446.333333333 451 418.5 427 393.5 379 c 128
 368.5 331 356 288.333333333 356 251 c 0
EndSplineSet
Validated: 1
EndChar

StartChar: Vf
Encoding: 65592 -1 144
Width: 981
VWidth: 1524
GlyphClass: 2
Flags: HMW
LayerCount: 2
Fore
SplineSet
936 0 m 2
 840 0 769.333333333 2.33333333333 724 7 c 1
 696 -79.6666666667 639.833333333 -159.333333333 555.5 -232 c 128
 471.166666667 -304.666666667 347 -371.666666667 183 -433 c 1
 141 -291 l 1
 385.666666667 -197.666666667 536 -93.6666666667 592 21 c 1
 374 57 265 133.666666667 265 251 c 0
 265 319.666666667 291.166666667 395.166666667 343.5 477.5 c 128
 395.833333333 559.833333333 448 601 500 601 c 128
 552 601 600.666666667 575.833333333 646 525.5 c 128
 691.333333333 475.166666667 722.666666667 395.333333333 740 286 c 0
 745.333333333 254 748 222.666666667 748 192 c 2
 748 153 l 1
 798 151 847.666666667 150 897 150 c 2
 981 150 l 1
 981 0 l 1
 936 0 l 2
626 159 m 1
 627.333333333 170.333333333 628 194.666666667 628 232 c 0
 628 269.333333333 616.833333333 315.166666667 594.5 369.5 c 128
 572.166666667 423.833333333 541 451 501 451 c 0
 475 451 449.333333333 427.333333333 424 380 c 128
 398.666666667 332.666666667 386 290.166666667 386 252.5 c 128
 386 214.833333333 436 188 536 172 c 0
 565.333333333 167.333333333 595.333333333 163 626 159 c 1
EndSplineSet
Validated: 1
EndChar

StartChar: Hs
Encoding: 65593 -1 145
Width: 855
VWidth: 1524
GlyphClass: 2
Flags: HMW
LayerCount: 2
Fore
SplineSet
341 703 m 1
 396.333333333 683.666666667 449.666666667 657.333333333 501 624 c 0
 683.666666667 506.666666667 775 386.666666667 775 264 c 0
 775 218.666666667 750 168.333333333 700 113 c 128
 650 57.6666666667 572 17.3333333333 466 -8 c 0
 435.333333333 -15.3333333333 402.666666667 -19 368 -19 c 0
 292.666666667 -19 228.166666667 4.83333333333 174.5 52.5 c 128
 120.833333333 100.166666667 94 161.333333333 94 236 c 0
 94 330.666666667 144 449 244 591 c 0
 284.666666667 649 317 686.333333333 341 703 c 1
366 535 m 1
 332 497 298.166666667 448 264.5 388 c 128
 230.833333333 328 214 277.333333333 214 236 c 0
 214 189.333333333 247 157.333333333 313 140 c 0
 333 134.666666667 364.333333333 132 407 132 c 128
 449.666666667 132 501.5 145.333333333 562.5 172 c 128
 623.5 198.666666667 654 229.333333333 654 264 c 0
 654 350.666666667 558 441 366 535 c 1
EndSplineSet
Validated: 1
EndChar

StartChar: Hf
Encoding: 65594 -1 146
Width: 912
VWidth: 1524
GlyphClass: 2
Flags: HMW
LayerCount: 2
Fore
SplineSet
913 0 m 1
 837 0 781.666666667 7.33333333333 747 22 c 128
 712.333333333 36.6666666667 683.666666667 56.8333333333 661 82.5 c 128
 638.333333333 108.166666667 618.666666667 143.666666667 602 189 c 1
 580 89 l 1
 432 97.6666666667 335.666666667 108.666666667 291 122 c 0
 173 157.333333333 114 215 114 295 c 0
 114 434.333333333 187.666666667 547.666666667 335 635 c 0
 379.666666667 662.333333333 428.333333333 685 481 703 c 1
 455 817 l 1
 572 850 l 1
 702 282 l 1
 718.666666667 200.666666667 766.333333333 157.333333333 845 152 c 0
 867 150.666666667 889.666666667 150 913 150 c 1
 913 0 l 1
514 557 m 1
 327.333333333 488.333333333 234 404.333333333 234 305 c 0
 234 273.666666667 309.333333333 254 460 246 c 0
 502 243.333333333 544 241 586 239 c 1
 514 557 l 1
EndSplineSet
Validated: 1
EndChar

StartChar: Hi
Encoding: 65595 -1 147
Width: 981
VWidth: 1524
GlyphClass: 2
Flags: HMW
LayerCount: 2
Fore
SplineSet
477 393 m 0
 476.333333333 523 455.666666667 588 415 588 c 0
 402.333333333 588 384.666666667 583.166666667 362 573.5 c 128
 339.333333333 563.833333333 317.666666667 549.333333333 297 530 c 0
 247 483.333333333 222 428.666666667 222 366 c 128
 222 303.333333333 255 251 321 209 c 1
 425 250.333333333 477 311.666666667 477 393 c 0
598 393 m 2
 598 293 555.666666667 209.333333333 471 142 c 1
 545.666666667 118.666666667 604.666666667 107 648 107 c 0
 691.333333333 107 722.5 115.833333333 741.5 133.5 c 0
 760.5 151.166666667 770 173.333333333 770 200 c 128
 770 226.666666667 756 262.833333333 728 308.5 c 128
 700 354.166666667 656 405 596 461 c 1
 597.333333333 444.333333333 598 430.333333333 598 419 c 2
 598 393 l 2
321 57 m 1
 219 19 112 0 0 0 c 0
 -18 0 -36.3333333333 3.33333333333 -55 10 c 1
 -55 150 l 1
 0 150 l 2
 60.6666666667 150 120 155.333333333 178 166 c 1
 127.333333333 222 102 289 102 367 c 0
 102 495 159.333333333 600.666666667 274 684 c 1
 254.666666667 693.333333333 225 709 185 731 c 1
 240 865 l 1
 329.333333333 818.333333333 409 771.333333333 479 724 c 1
 606.333333333 649.333333333 710 553.666666667 790 437 c 0
 856.666666667 341 890 261.333333333 890 198 c 128
 890 134.666666667 867.833333333 78.5 823.5 29.5 c 128
 779.166666667 -19.5 725.833333333 -44 663.5 -44 c 128
 601.166666667 -44 521.333333333 -26 424 10 c 0
 388.666666667 22 354.333333333 37.6666666667 321 57 c 1
EndSplineSet
Validated: 1
EndChar

StartChar: Hm
Encoding: 65596 -1 148
Width: 850
VWidth: 1524
GlyphClass: 2
Flags: HMW
LayerCount: 2
Fore
SplineSet
265 167 m 1
 342.333333333 181 400 199.333333333 438 222 c 0
 502.666666667 260.666666667 535 294.666666667 535 324 c 0
 535 382.666666667 513.833333333 440.666666667 471.5 498 c 128
 429.166666667 555.333333333 387 584 345 584 c 0
 325.666666667 584 307.5 549.166666667 290.5 479.5 c 128
 273.5 409.833333333 265 316.333333333 265 199 c 1
 264 179 l 2
 264 175.666666667 264.333333333 171.666666667 265 167 c 1
630 -98 m 0
 622 -114 618 -140 618 -176 c 128
 618 -212 623 -241.666666667 633 -265 c 1
 591 -405 l 1
 367 -319.666666667 227.333333333 -182.666666667 172 6 c 1
 144 2 114.666666667 0 84 0 c 2
 0 0 l 2
 -18 0 -36.3333333333 3.33333333333 -55 10 c 1
 -55 150 l 1
 84 150 l 2
 104 150 124.666666667 150.666666667 146 152 c 1
 144.666666667 158.666666667 144 166 144 174 c 2
 144 199 l 2
 144 363.666666667 166.666666667 496.666666667 212 598 c 0
 232 643.333333333 254 677.333333333 278 700 c 128
 302 722.666666667 324.666666667 734 346 734 c 0
 388 734 433.5 712.666666667 482.5 670 c 128
 531.5 627.333333333 572.333333333 574.333333333 605 511 c 128
 637.666666667 447.666666667 654 386.333333333 654 327 c 128
 654 267.666666667 620.833333333 209.833333333 554.5 153.5 c 128
 488.166666667 97.1666666667 402.333333333 54.6666666667 297 26 c 1
 333.666666667 -63.3333333333 401.333333333 -139 500 -201 c 1
 499.333333333 -193 499 -183.666666667 499 -173 c 2
 499 -140 l 2
 499 -76.6666666667 526.5 -12.5 581.5 52.5 c 128
 636.5 117.5 708.333333333 150 797 150 c 2
 852 150 l 1
 852 0 l 1
 797 0 l 2
 719 0 663.333333333 -32.6666666667 630 -98 c 0
EndSplineSet
Validated: 1
EndChar

StartChar: Ys
Encoding: 65597 -1 149
Width: 1400
VWidth: 1524
GlyphClass: 2
Flags: HMW
LayerCount: 2
Fore
SplineSet
1083 -47 m 2
 1083 -44 l 2
 1083 -29.3333333333 1073.66666667 -16.5 1055 -5.5 c 128
 1036.33333333 5.5 990.666666667 20.8333333333 918 40.5 c 128
 845.333333333 60.1666666667 795.833333333 83.5 769.5 110.5 c 128
 743.166666667 137.5 730 183 730 247 c 128
 730 311 772 380.5 856 455.5 c 128
 940 530.5 1022.16666667 568 1102.5 568 c 128
 1182.83333333 568 1256.33333333 514.666666667 1323 408 c 1
 1220 324 l 1
 1183.33333333 383.333333333 1140.5 413 1091.5 413 c 128
 1042.5 413 990.333333333 393.166666667 935 353.5 c 128
 879.666666667 313.833333333 852 275.666666667 852 239 c 0
 852 227.666666667 860.5 217.833333333 877.5 209.5 c 128
 894.5 201.166666667 939.166666667 186.833333333 1011.5 166.5 c 128
 1083.83333333 146.166666667 1134.66666667 120.833333333 1164 90.5 c 128
 1193.33333333 60.1666666667 1208 14.6666666667 1208 -46 c 0
 1208 -138 1116 -213 932 -271 c 0
 776 -320.333333333 629.333333333 -345 492 -345 c 0
 223.333333333 -345 89 -245.666666667 89 -47 c 0
 89 61.6666666667 133 190 221 338 c 1
 320 290 l 1
 310 271.333333333 298.666666667 250.333333333 286 227 c 0
 238 138.333333333 214 47 214 -47 c 0
 214 -145.666666667 298.666666667 -195 468 -195 c 0
 667.333333333 -195 834.666666667 -173.333333333 970 -130 c 0
 1045.33333333 -106 1083 -78.3333333333 1083 -47 c 2
EndSplineSet
Validated: 1
EndChar

StartChar: Yf
Encoding: 65598 -1 150
Width: 1308
VWidth: 1524
GlyphClass: 2
Flags: HMW
LayerCount: 2
Fore
SplineSet
214 -76 m 0
 214 -178.666666667 328.666666667 -230 558 -230 c 0
 610 -230 677.333333333 -226.5 760 -219.5 c 0
 842.666666667 -212.5 909.166666667 -204.166666667 959.5 -194.5 c 128
 1009.83333333 -184.833333333 1035 -171.333333333 1035 -154 c 0
 1035 -111.333333333 967 -56.6666666667 831 10 c 1
 903 173 l 1
 957 172.333333333 1021.33333333 168.333333333 1096 161 c 128
 1170.66666667 153.666666667 1241.33333333 150 1308 150 c 1
 1308 0 l 1
 1245.33333333 0 1185.66666667 5.83333333333 1129 17.5 c 128
 1072.33333333 29.1666666667 1031.66666667 37.3333333333 1007 42 c 1
 1106.33333333 -24 1156 -89.3333333333 1156 -154 c 0
 1156 -199.333333333 1118.66666667 -240.666666667 1044 -278 c 0
 908.666666667 -346 726.666666667 -380 498 -380 c 0
 307.333333333 -380 181.333333333 -323.666666667 120 -211 c 0
 99.3333333333 -173 89 -131.666666667 89 -87 c 0
 89 31 133 162.666666667 221 308 c 1
 320 263 l 1
 284.666666667 197 258.166666667 140.666666667 240.5 94 c 128
 222.833333333 47.3333333333 214 -9.33333333333 214 -76 c 0
EndSplineSet
Validated: 1
EndChar

StartChar: LAs
Encoding: 65599 -1 151
Width: 1126
VWidth: 1524
GlyphClass: 2
Flags: HMW
LayerCount: 2
Fore
SplineSet
391 37 m 1
 449 55 495.666666667 70 531 82 c 1
 517 251.333333333 488 391.666666667 444 503 c 0
 400 614.333333333 334 705.666666667 246 777 c 1
 320 895 l 1
 505.333333333 747.666666667 615 490 649 122 c 1
 724.333333333 152.666666667 775 178.333333333 801 199 c 0
 851 238.333333333 876 278.333333333 876 319 c 2
 876 1141 l 1
 996 1141 l 1
 996 319 l 2
 996 217 948.666666667 133.333333333 854 68 c 0
 778 15.3333333333 675 -30.6666666667 545 -70 c 1
 425 -108 l 1
 391 37 l 1
EndSplineSet
Validated: 1
EndChar

StartChar: uniFEFB
Encoding: 65275 65275 152
Width: 1004
VWidth: 1524
GlyphClass: 3
LigCaretCntFixed: 1
Flags: HMW
AnchorPoint: "Anchor-3" 739 -75 baselig 0
AnchorPoint: "Anchor-2" 703 1274 baselig 0
AnchorPoint: "Anchor-3" 234 -169 baselig 1
AnchorPoint: "Anchor-2" 164 1204 baselig 1
LayerCount: 2
Fore
SplineSet
209 1087 m 1
 386.333333333 889 490.666666667 567.333333333 522 122 c 1
 595.333333333 151.333333333 645.666666667 176.666666667 673 198 c 0
 723.666666667 237.333333333 749 277.666666667 749 319 c 2
 749 1141 l 1
 868 1141 l 1
 868 319 l 2
 868 191.666666667 790 90 634 14 c 0
 572 -16 500 -44 418 -70 c 2
 298 -108 l 1
 263 37 l 1
 337.666666667 59 384.666666667 74 404 82 c 1
 393.333333333 223.333333333 380.666666667 337.666666667 366 425 c 0
 351.333333333 512.333333333 324.666666667 607.833333333 286 711.5 c 128
 247.333333333 815.166666667 192 907 120 987 c 1
 209 1087 l 1
EndSplineSet
Validated: 1
Ligature2: "'rlig' Required Ligatures in Arabic lookup 2 subtable" lam.init alef.fina8E
PairPos2: "'kern' Horizontal Kerning in Arabic lookup 0 subtable" gaf_ye.farsi.isol dx=50 dy=0 dh=50 dv=0 dx=0 dy=0 dh=0 dv=0
PairPos2: "'kern' Horizontal Kerning in Arabic lookup 0 subtable" kaf.farsi_ye.farsi.isol dx=50 dy=0 dh=50 dv=0 dx=0 dy=0 dh=0 dv=0
PairPos2: "'kern' Horizontal Kerning in Arabic lookup 0 subtable" uniFEDB dx=50 dy=0 dh=50 dv=0 dx=0 dy=0 dh=0 dv=0
PairPos2: "'kern' Horizontal Kerning in Arabic lookup 0 subtable" uniFE83 dx=62 dy=0 dh=62 dv=0 dx=0 dy=0 dh=0 dv=0
PairPos2: "'kern' Horizontal Kerning in Arabic lookup 0 subtable" uniFE81 dx=62 dy=0 dh=62 dv=0 dx=0 dy=0 dh=0 dv=0
PairPos2: "'kern' Horizontal Kerning in Arabic lookup 0 subtable" kaf.init dx=50 dy=0 dh=50 dv=0 dx=0 dy=0 dh=0 dv=0
PairPos2: "'kern' Horizontal Kerning in Arabic lookup 0 subtable" uniFB8E dx=50 dy=0 dh=50 dv=0 dx=0 dy=0 dh=0 dv=0
PairPos2: "'kern' Horizontal Kerning in Arabic lookup 0 subtable" uniFB50 dx=62 dy=0 dh=62 dv=0 dx=0 dy=0 dh=0 dv=0
PairPos2: "'kern' Horizontal Kerning in Arabic lookup 0 subtable" gaf.init dx=50 dy=0 dh=50 dv=0 dx=0 dy=0 dh=0 dv=0
PairPos2: "'kern' Horizontal Kerning in Arabic lookup 0 subtable" uniFB92 dx=50 dy=0 dh=50 dv=0 dx=0 dy=0 dh=0 dv=0
LCarets2: 1 496
EndChar

StartChar: LAf
Encoding: 65600 -1 153
Width: 1229
VWidth: 1524
GlyphClass: 2
Flags: HMW
LayerCount: 2
Fore
SplineSet
340 46 m 1
 564 85 l 1
 549.333333333 241.666666667 526.833333333 360.666666667 496.5 442 c 128
 466.166666667 523.333333333 432.333333333 592.666666667 395 650 c 0
 357 707.333333333 308.666666667 759.333333333 250 806 c 1
 322 925 l 1
 494 783.666666667 603.333333333 587.666666667 650 337 c 0
 663.333333333 264.333333333 673.666666667 192.666666667 681 122 c 1
 809 170.666666667 873 236.333333333 873 319 c 2
 873 1141 l 1
 994 1141 l 1
 994 319 l 2
 994 254.333333333 1011.66666667 210 1047 186 c 0
 1082.33333333 162 1143.66666667 150 1231 150 c 1
 1231 0 l 1
 1141.66666667 0 1079.83333333 6.33333333333 1045.5 19 c 128
 1011.16666667 31.6666666667 983.666666667 45.3333333333 963 60 c 0
 944.333333333 75.3333333333 928.333333333 94 915 116 c 1
 833.666666667 22 706.666666667 -40.6666666667 534 -72 c 1
 359 -102 l 1
 340 46 l 1
EndSplineSet
Validated: 1
EndChar

StartChar: uniFEFC
Encoding: 65276 65276 154
Width: 1077
VWidth: 1524
GlyphClass: 3
LigCaretCntFixed: 1
Flags: HMW
AnchorPoint: "Anchor-3" 739 -75 baselig 0
AnchorPoint: "Anchor-2" 703 1274 baselig 0
AnchorPoint: "Anchor-3" 234 -169 baselig 1
AnchorPoint: "Anchor-2" 164 1204 baselig 1
LayerCount: 2
Fore
SplineSet
208 1087 m 1
 392.666666667 877.666666667 497 555 521 119 c 1
 653.666666667 168.333333333 720 235 720 319 c 2
 720 1141 l 1
 841 1141 l 1
 841 319 l 1
 841.666666667 225 885.333333333 171 972 157 c 0
 1001.33333333 152.333333333 1037 150 1079 150 c 1
 1079 0 l 1
 991 0 929.333333333 6.33333333333 894 19 c 0
 830.666666667 41.6666666667 787 74 763 116 c 1
 681 21.3333333333 554 -41.3333333333 382 -72 c 1
 208 -102 l 1
 189 46 l 1
 404 84 l 1
 400 128 396 175.333333333 392 226 c 0
 367.333333333 562.666666667 276.333333333 816.333333333 119 987 c 1
 208 1087 l 1
EndSplineSet
Validated: 1
Ligature2: "'rlig' Required Ligatures in Arabic lookup 2 subtable" lam.medi alef.fina8E
PairPos2: "'kern' Horizontal Kerning in Arabic lookup 0 subtable" gaf_ye.farsi.isol dx=50 dy=0 dh=50 dv=0 dx=0 dy=0 dh=0 dv=0
PairPos2: "'kern' Horizontal Kerning in Arabic lookup 0 subtable" kaf.farsi_ye.farsi.isol dx=50 dy=0 dh=50 dv=0 dx=0 dy=0 dh=0 dv=0
PairPos2: "'kern' Horizontal Kerning in Arabic lookup 0 subtable" uniFEDB dx=50 dy=0 dh=50 dv=0 dx=0 dy=0 dh=0 dv=0
PairPos2: "'kern' Horizontal Kerning in Arabic lookup 0 subtable" uniFE83 dx=62 dy=0 dh=62 dv=0 dx=0 dy=0 dh=0 dv=0
PairPos2: "'kern' Horizontal Kerning in Arabic lookup 0 subtable" uniFE81 dx=62 dy=0 dh=62 dv=0 dx=0 dy=0 dh=0 dv=0
PairPos2: "'kern' Horizontal Kerning in Arabic lookup 0 subtable" kaf.init dx=50 dy=0 dh=50 dv=0 dx=0 dy=0 dh=0 dv=0
PairPos2: "'kern' Horizontal Kerning in Arabic lookup 0 subtable" uniFB8E dx=50 dy=0 dh=50 dv=0 dx=0 dy=0 dh=0 dv=0
PairPos2: "'kern' Horizontal Kerning in Arabic lookup 0 subtable" uniFB50 dx=62 dy=0 dh=62 dv=0 dx=0 dy=0 dh=0 dv=0
PairPos2: "'kern' Horizontal Kerning in Arabic lookup 0 subtable" gaf.init dx=50 dy=0 dh=50 dv=0 dx=0 dy=0 dh=0 dv=0
PairPos2: "'kern' Horizontal Kerning in Arabic lookup 0 subtable" uniFB92 dx=50 dy=0 dh=50 dv=0 dx=0 dy=0 dh=0 dv=0
LCarets2: 1 579
EndChar

StartChar: D1
Encoding: 65601 -1 155
Width: 495
VWidth: 1524
GlyphClass: 5
Flags: HMW
LayerCount: 2
Fore
SplineSet
278 828 m 1
 122 828 l 1
 122 983 l 1
 278 983 l 1
 278 828 l 1
EndSplineSet
Validated: 1
EndChar

StartChar: D2
Encoding: 65602 -1 156
Width: 548
VWidth: 1524
GlyphClass: 5
Flags: HMW
LayerCount: 2
Fore
SplineSet
163 828 m 1
 8 828 l 1
 8 983 l 1
 163 983 l 1
 163 828 l 1
393 828 m 1
 237 828 l 1
 237 983 l 1
 393 983 l 1
 393 828 l 1
EndSplineSet
Validated: 1
EndChar

StartChar: D3
Encoding: 65603 -1 157
Width: 548
VWidth: 1524
GlyphClass: 5
Flags: HMW
LayerCount: 2
Fore
SplineSet
156 828 m 1
 0 828 l 1
 0 983 l 1
 156 983 l 1
 156 828 l 1
399 828 m 1
 243 828 l 1
 243 983 l 1
 399 983 l 1
 399 828 l 1
277 1065 m 1
 121 1065 l 1
 121 1221 l 1
 277 1221 l 1
 277 1065 l 1
EndSplineSet
Validated: 1
EndChar

StartChar: D1b
Encoding: 65604 -1 158
Width: 495
VWidth: 1524
GlyphClass: 5
Flags: HMW
LayerCount: 2
Fore
SplineSet
278 -361 m 1
 122 -361 l 1
 122 -205 l 1
 278 -205 l 1
 278 -361 l 1
EndSplineSet
Validated: 1
EndChar

StartChar: D2b
Encoding: 65605 -1 159
Width: 548
VWidth: 1524
GlyphClass: 5
Flags: HMW
LayerCount: 2
Fore
SplineSet
163 -361 m 1
 8 -361 l 1
 8 -205 l 1
 163 -205 l 1
 163 -361 l 1
393 -361 m 1
 237 -361 l 1
 237 -205 l 1
 393 -205 l 1
 393 -361 l 1
EndSplineSet
Validated: 1
EndChar

StartChar: D3b
Encoding: 65606 -1 160
Width: 548
VWidth: 1524
GlyphClass: 5
Flags: HMW
LayerCount: 2
Fore
SplineSet
156 -330 m 1
 0 -330 l 1
 0 -173 l 1
 156 -173 l 1
 156 -330 l 1
399 -330 m 1
 243 -330 l 1
 243 -173 l 1
 399 -173 l 1
 399 -330 l 1
277 -567 m 1
 121 -567 l 1
 121 -411 l 1
 277 -411 l 1
 277 -567 l 1
EndSplineSet
Validated: 1
EndChar

StartChar: mA
Encoding: 65607 -1 161
Width: 0
VWidth: 1524
GlyphClass: 5
Flags: HMW
LayerCount: 2
Fore
SplineSet
160 893 m 1
 216 897.666666667 262 907.666666667 298 923 c 0
 378.666666667 957 419 992.666666667 419 1030 c 0
 419 1054 395.666666667 1066 349 1066 c 0
 282.333333333 1066 219.333333333 1008.33333333 160 893 c 1
46 824 m 0
 39.3333333333 830.666666667 32.3333333333 837.333333333 25 844 c 128
 17.6666666667 850.666666667 8.33333333333 854 -3 854 c 128
 -14.3333333333 854 -26 846.333333333 -38 831 c 1
 -99 897 l 1
 -68.3333333333 937 -33.6666666667 957 5 957 c 0
 21.6666666667 957 35.3333333333 952.833333333 46 944.5 c 128
 56.6666666667 936.166666667 67.6666666667 927 79 917 c 1
 107.666666667 983 140 1036 176 1076 c 0
 230.666666667 1137.33333333 283 1168 333 1168 c 0
 443 1168 498 1122.66666667 498 1032 c 0
 498 964 455.5 906.666666667 370.5 860 c 128
 285.5 813.333333333 216.333333333 790 163 790 c 0
 162 790 162 790 161 790 c 0
 108.333333333 790 70 801.333333333 46 824 c 0
EndSplineSet
Validated: 1
EndChar

StartChar: mH
Encoding: 65608 -1 162
Width: 0
VWidth: 1524
GlyphClass: 5
Flags: HMW
LayerCount: 2
Fore
SplineSet
137 850 m 1
 85.6666666667 878 60 919 60 973 c 128
 60 1027 79.8333333333 1073 119.5 1111 c 128
 159.166666667 1149 211 1168 275 1168 c 0
 313.666666667 1168 356.333333333 1160 403 1144 c 1
 377 1048 l 1
 339 1060.66666667 303.333333333 1067 270 1067 c 0
 236.666666667 1067 206.666666667 1058 180 1040 c 128
 153.333333333 1022 140 999.333333333 140 972 c 0
 140 949.333333333 164 934.333333333 212 927 c 0
 225.333333333 925 239.833333333 924 255.5 924 c 128
 271.166666667 924 293 928 321 936 c 1
 354 852 l 1
 248 778.666666667 131.333333333 737.333333333 4 728 c 1
 -4 829 l 1
 55.3333333333 834.333333333 102.333333333 841.333333333 137 850 c 1
EndSplineSet
Validated: 1
EndChar

StartChar: earab.tanvin_fatheh
Encoding: 1611 1611 163
Width: 0
VWidth: 1524
GlyphClass: 4
Flags: HMW
AnchorPoint: "Anchor-4" 223 746 mark 0
AnchorPoint: "Anchor-2" 223 746 mark 0
AnchorPoint: "Anchor-0" 223 746 mark 0
LayerCount: 2
Fore
SplineSet
392 1102 m 1
 10 948 l 1
 10 1021 l 1
 392 1174 l 1
 392 1102 l 1
392 898 m 1
 10 744 l 1
 10 816 l 1
 392 969 l 1
 392 898 l 1
EndSplineSet
Validated: 1
EndChar

StartChar: earab.tanvin_kasreh
Encoding: 1612 1612 164
Width: 0
VWidth: 1524
GlyphClass: 4
Flags: HMW
AnchorPoint: "Anchor-4" 176 630 mark 0
AnchorPoint: "Anchor-2" 176 630 mark 0
AnchorPoint: "Anchor-0" 176 630 mark 0
LayerCount: 2
Fore
SplineSet
318 1000 m 0
 318 1048.66666667 298.666666667 1081 260 1097 c 1
 200 1097 160.666666667 1058.33333333 142 981 c 1
 161.333333333 961.666666667 185.833333333 947.666666667 215.5 939 c 128
 245.166666667 930.333333333 268.333333333 922.666666667 285 916 c 1
 307 956.666666667 318 984.666666667 318 1000 c 0
335 900 m 1
 346.333333333 893.333333333 365.666666667 887.666666667 393 883 c 1
 393 822 l 1
 305 851 l 1
 249 763.666666667 138.333333333 690.333333333 -27 631 c 1
 -29.6666666667 637.666666667 -31.8333333333 644 -33.5 650 c 128
 -35.1666666667 656 -37.5 663.5 -40.5 672.5 c 128
 -43.5 681.5 -46 690.666666667 -48 700 c 1
 -30 702 -5 710.333333333 27 725 c 1
 28.3333333333 732.333333333 29 738 29 742 c 2
 29 754 l 1
 28.3333333333 800.666666667 14 831.666666667 -14 847 c 0
 -30.6666666667 856.333333333 -46.3333333333 861 -61 861 c 128
 -75.6666666667 861 -89 859 -101 855 c 1
 -105.666666667 861.666666667 -109.166666667 867.5 -111.5 872.5 c 128
 -113.833333333 877.5 -116.333333333 882.166666667 -119 886.5 c 128
 -121.666666667 890.833333333 -124.666666667 895.166666667 -128 899.5 c 128
 -131.333333333 903.833333333 -134.333333333 909.333333333 -137 916 c 1
 -122.333333333 922 -103.666666667 925 -81 925 c 0
 -33.6666666667 925 3.33333333333 908.333333333 30 875 c 128
 56.6666666667 841.666666667 71.3333333333 796.333333333 74 739 c 1
 128.666666667 765 171.166666667 790.833333333 201.5 816.5 c 128
 231.833333333 842.166666667 250.666666667 860 258 870 c 1
 245.333333333 874.666666667 231.166666667 878.333333333 215.5 881 c 128
 199.833333333 883.666666667 179 889.333333333 153 898 c 128
 127 906.666666667 104.666666667 924.666666667 86 952 c 1
 103.333333333 1050.66666667 149 1116.66666667 223 1150 c 0
 245 1160 262.666666667 1165 276 1165 c 2
 298 1165 l 1
 347.333333333 1131 372 1090.66666667 372 1044 c 128
 372 997.333333333 366.5 963.833333333 355.5 943.5 c 128
 344.5 923.166666667 337.666666667 908.666666667 335 900 c 1
EndSplineSet
Validated: 1
EndChar

StartChar: earab.tanvin_zameh
Encoding: 1613 1613 165
Width: 0
VWidth: 1524
GlyphClass: 4
Flags: HMW
AnchorPoint: "Anchor-5" 188 -52 mark 0
AnchorPoint: "Anchor-3" 188 -52 mark 0
AnchorPoint: "Anchor-1" 188 -52 mark 0
LayerCount: 2
Fore
SplineSet
372 -140 m 1
 -12 -295 l 1
 -12 -223 l 1
 372 -68 l 1
 372 -140 l 1
372 -338 m 1
 -12 -492 l 1
 -12 -420 l 1
 372 -266 l 1
 372 -338 l 1
EndSplineSet
Validated: 1
EndChar

StartChar: earab.fatheh
Encoding: 1614 1614 166
Width: 0
VWidth: 1524
GlyphClass: 4
Flags: HMW
AnchorPoint: "Anchor-4" 199 933 mark 0
AnchorPoint: "Anchor-2" 199 933 mark 0
AnchorPoint: "Anchor-0" 199 933 mark 0
LayerCount: 2
Fore
SplineSet
372 1092 m 1
 -12 937 l 1
 -12 1010 l 1
 372 1163 l 1
 372 1092 l 1
EndSplineSet
Validated: 1
EndChar

StartChar: earab.zameh
Encoding: 1615 1615 167
Width: 0
VWidth: 1524
GlyphClass: 4
Flags: HMW
AnchorPoint: "Anchor-4" 210 630 mark 0
AnchorPoint: "Anchor-2" 210 630 mark 0
AnchorPoint: "Anchor-0" 210 630 mark 0
LayerCount: 2
Fore
SplineSet
319 895 m 1
 329.666666667 887.666666667 353.333333333 879 390 869 c 1
 374 812 l 1
 285 850 l 1
 218.333333333 754.666666667 119.333333333 682.333333333 -12 633 c 1
 -12 713 l 1
 100 743 183 793.333333333 237 864 c 1
 224.333333333 869.333333333 210.666666667 874 196 878 c 0
 181.333333333 882 160.666666667 891.333333333 134 906 c 0
 107.333333333 920.666666667 89.3333333333 933.666666667 80 945 c 1
 85.3333333333 1052.33333333 125.333333333 1120 200 1148 c 0
 222.666666667 1156.66666667 247.333333333 1161.33333333 274 1162 c 1
 323.333333333 1128 348 1082 348 1024 c 0
 348 1017.33333333 346.833333333 1008.16666667 344.5 996.5 c 128
 342.166666667 984.833333333 340 973.333333333 338 962 c 128
 336 950.666666667 332.5 939 327.5 927 c 128
 322.5 915 319.666666667 904.333333333 319 895 c 1
295 994 m 0
 295 1040.66666667 276.333333333 1072.33333333 239 1089 c 1
 208.333333333 1089 184.166666667 1081 166.5 1065 c 128
 148.833333333 1049 135.333333333 1022 126 984 c 1
 144 966 168.666666667 951.5 200 940.5 c 128
 231.333333333 929.5 255.333333333 920.666666667 272 914 c 1
 287.333333333 944.666666667 295 971.333333333 295 994 c 0
EndSplineSet
Validated: 1
EndChar

StartChar: earab.kasreh
Encoding: 1616 1616 168
Width: 0
VWidth: 1524
GlyphClass: 4
Flags: HMW
AnchorPoint: "Anchor-5" 199 -216 mark 0
AnchorPoint: "Anchor-3" 199 -216 mark 0
AnchorPoint: "Anchor-1" 199 -216 mark 0
LayerCount: 2
Fore
SplineSet
372 -336 m 1
 -12 -487 l 1
 -12 -415 l 1
 372 -263 l 1
 372 -336 l 1
EndSplineSet
Validated: 1
EndChar

StartChar: earab.tashdid
Encoding: 1617 1617 169
Width: 0
VWidth: 1524
GlyphClass: 4
Flags: HMW
AnchorPoint: "Anchor-4" 199 781 mark 0
AnchorPoint: "Anchor-2" 199 781 mark 0
AnchorPoint: "Anchor-0" 199 781 mark 0
LayerCount: 2
Fore
SplineSet
280 926 m 0
 326.666666667 926 350 969.666666667 350 1057 c 0
 350 1079 347 1111 341 1153 c 1
 391 1165 l 1
 398 1019 l 1
 398 951 376.666666667 904.666666667 334 880 c 0
 319.333333333 871.333333333 303 867 285 867 c 128
 267 867 249.333333333 874.666666667 232 890 c 128
 214.666666667 905.333333333 201.333333333 926.666666667 192 954 c 1
 170 856.666666667 133.333333333 807.333333333 82 806 c 2
 75 806 l 2
 20.3333333333 806 -14.3333333333 836 -29 896 c 0
 -36.3333333333 925.333333333 -40 945.333333333 -40 956 c 128
 -40 972 -40 972 -40 974 c 2
 -42 1033 l 1
 3 1045 l 1
 6 973 l 2
 9.33333333333 901.666666667 31 866 71 866 c 0
 128.333333333 866 157 922 157 1034 c 2
 157 1090 l 1
 200 1105 l 1
 200 1039.66666667 214.333333333 987 243 947 c 0
 253 933 265.333333333 926 280 926 c 0
EndSplineSet
Validated: 1
EndChar

StartChar: earab.sokon
Encoding: 1618 1618 170
Width: 0
VWidth: 1524
GlyphClass: 4
Flags: HMW
AnchorPoint: "Anchor-4" 188 770 mark 0
AnchorPoint: "Anchor-2" 188 770 mark 0
AnchorPoint: "Anchor-0" 188 770 mark 0
LayerCount: 2
Fore
SplineSet
133 1093 m 1
 83.6666666667 1061.66666667 59 1011.66666667 59 943 c 0
 59 898.333333333 94.3333333333 876 165 876 c 0
 214.333333333 876 252 891.333333333 278 922 c 1
 282 933 l 1
 267.333333333 996.333333333 238 1042.66666667 194 1072 c 0
 176.666666667 1084 156.333333333 1091 133 1093 c 1
326 958 m 0
 326 943.333333333 318.666666667 913.666666667 304 869 c 1
 254.666666667 823 208.333333333 800 165 800 c 128
 121.666666667 800 84.5 813.5 53.5 840.5 c 128
 22.5 867.5 7 901.333333333 7 942 c 0
 7 1042 49 1116.66666667 133 1166 c 1
 195 1152.66666667 242.666666667 1124.66666667 276 1082 c 128
 309.333333333 1039.33333333 326 998 326 958 c 0
EndSplineSet
Validated: 1
EndChar

StartChar: uni0653
Encoding: 1619 1619 171
Width: 0
VWidth: 1524
GlyphClass: 4
Flags: HMW
AnchorPoint: "Anchor-4" 199 793 mark 0
AnchorPoint: "Anchor-2" 199 793 mark 0
AnchorPoint: "Anchor-0" 199 793 mark 0
LayerCount: 2
Fore
SplineSet
492 929 m 1
 362.666666667 849.666666667 243 810 133 810 c 0
 100.333333333 810 55.3333333333 815 -2 825 c 1
 -8.66666666667 808.333333333 -12 790 -12 770 c 2
 -12 716 l 1
 -93 716 l 1
 -93 776.666666667 -85 826.166666667 -69 864.5 c 128
 -53 902.833333333 -38.6666666667 929.666666667 -26 945 c 1
 7.33333333333 923 66.6666666667 912 152 912 c 128
 237.333333333 912 336.333333333 946.333333333 449 1015 c 1
 492 929 l 1
EndSplineSet
Validated: 1
EndChar

StartChar: uni0654
Encoding: 1620 1620 172
Width: 0
VWidth: 1524
GlyphClass: 4
Flags: HMW
AnchorPoint: "Anchor-4" 188 734 mark 0
AnchorPoint: "Anchor-2" 188 734 mark 0
AnchorPoint: "Anchor-0" 188 734 mark 0
LayerCount: 2
Fore
SplineSet
103 855 m 1
 58.3333333333 893.666666667 36 935.166666667 36 979.5 c 128
 36 1023.83333333 56 1066 96 1106 c 128
 136 1146 178 1166 222 1166 c 0
 222.666666667 1166 223 1166.33333333 223 1167 c 1
 266.333333333 1167 306 1150 342 1116 c 0
 351.333333333 1106 361.333333333 1094.66666667 372 1082 c 1
 314 1015 l 1
 307.333333333 1022.33333333 298 1032.66666667 286 1046 c 128
 274 1059.33333333 256.666666667 1066 234 1066 c 128
 211.333333333 1066 194 1063.33333333 182 1058 c 0
 138 1036.66666667 116 1010 116 978 c 0
 116 954.666666667 150 929 218 901 c 1
 250.666666667 911.666666667 281.333333333 919.833333333 310 925.5 c 128
 338.666666667 931.166666667 366.666666667 937.666666667 394 945 c 1
 409 843 l 1
 381 836.333333333 355 831 331 827 c 0
 261 815 159 775.666666667 25 709 c 1
 -10 802 l 1
 48 830 85.6666666667 847.666666667 103 855 c 1
EndSplineSet
Validated: 1
EndChar

StartChar: uni0655
Encoding: 1621 1621 173
Width: 0
VWidth: 1524
GlyphClass: 4
Flags: HMW
AnchorPoint: "Anchor-5" 176 -52 mark 0
AnchorPoint: "Anchor-3" 176 -52 mark 0
AnchorPoint: "Anchor-1" 176 -52 mark 0
LayerCount: 2
Fore
SplineSet
64 -412 m 1
 19.3333333333 -373.333333333 -3 -332.333333333 -3 -289 c 128
 -3 -245.666666667 17 -203.333333333 57 -162 c 128
 97 -120.666666667 136.166666667 -100 174.5 -100 c 128
 212.833333333 -100 242.666666667 -106.833333333 264 -120.5 c 128
 285.333333333 -134.166666667 309.333333333 -156 336 -186 c 1
 275 -252 l 1
 267.666666667 -245.333333333 258.166666667 -235.333333333 246.5 -222 c 0
 234.833333333 -208.666666667 215 -202 187 -202 c 128
 159 -202 133.833333333 -211.5 111.5 -230.5 c 128
 89.1666666667 -249.5 78 -267.5 78 -284.5 c 128
 78 -301.5 87.5 -316.333333333 106.5 -329 c 128
 125.5 -341.666666667 150 -354.333333333 180 -367 c 1
 215.333333333 -353.666666667 245.833333333 -345 271.5 -341 c 128
 297.166666667 -337 325 -331 355 -323 c 1
 372 -425 l 1
 356 -429 340.666666667 -432 326 -434 c 0
 245.333333333 -445.333333333 132.666666667 -486.666666667 -12 -558 c 1
 -47 -466 l 1
 -25 -455.333333333 -5 -445.5 13 -436.5 c 128
 31 -427.5 48 -419.333333333 64 -412 c 1
EndSplineSet
Validated: 1
EndChar

StartChar: uni0656
Encoding: 1622 1622 174
Width: 0
VWidth: 1524
GlyphClass: 4
Flags: HMW
AnchorPoint: "Anchor-5" 188 -133 mark 0
AnchorPoint: "Anchor-3" 188 -133 mark 0
AnchorPoint: "Anchor-1" 188 -133 mark 0
LayerCount: 2
Fore
SplineSet
265 -378 m 0
 265 -399.333333333 261.333333333 -432 254 -476 c 1
 210 -476 l 1
 210 -372.666666667 184 -282 132 -204 c 1
 195 -147 l 1
 241.666666667 -229 265 -306 265 -378 c 0
EndSplineSet
Validated: 1
EndChar

StartChar: uni0670
Encoding: 1648 1648 175
Width: 0
VWidth: 1524
GlyphClass: 4
Flags: HMW
AnchorPoint: "Anchor-4" 176 852 mark 0
AnchorPoint: "Anchor-2" 176 852 mark 0
AnchorPoint: "Anchor-0" 176 852 mark 0
LayerCount: 2
Fore
SplineSet
156 1175 m 1
 202.666666667 1092.33333333 226 1016.66666667 226 948 c 0
 226 930 225.5 917.5 224.5 910.5 c 128
 223.5 903.5 222.5 896 221.5 888 c 128
 220 876 220 876 218.5 864 c 128
 217.5 856 216.666666667 850 216 846 c 1
 173 846 l 1
 172.333333333 929.333333333 155.333333333 1002.33333333 122 1065 c 0
 112.666666667 1083 103 1100.66666667 93 1118 c 1
 156 1175 l 1
EndSplineSet
Validated: 1
EndChar

StartChar: uniFD3E
Encoding: 64830 64830 176
Width: 1233
VWidth: 1524
GlyphClass: 2
Flags: HMW
LayerCount: 2
Fore
SplineSet
1005 -561 m 1
 683.666666667 -453 455.666666667 -261.333333333 321 14 c 1
 220 14 l 1
 220 244 l 1
 62 402 l 1
 220 560 l 1
 220 789 l 1
 321 789 l 1
 411 987 562 1145.33333333 774 1264 c 0
 844.666666667 1304 921.666666667 1337.33333333 1005 1364 c 1
 1205 1364 l 1
 1018.33333333 1180 887 988.333333333 811 789 c 1
 995 789 l 1
 995 560 l 1
 1152 402 l 1
 995 244 l 1
 995 14 l 1
 811 14 l 1
 885 -184 1016.33333333 -375.666666667 1205 -561 c 1
 1005 -561 l 1
916 92 m 1
 916 275 l 1
 1044 402 l 1
 916 529 l 1
 916 711 l 1
 734 711 l 1
 607 838 l 1
 480 711 l 1
 298 711 l 1
 298 529 l 1
 171 402 l 1
 298 275 l 1
 298 92 l 1
 480 92 l 1
 607 -35 l 1
 734 92 l 1
 916 92 l 1
865 404 m 256
 864.333333333 333.333333333 839 273 789 223 c 128
 739 173 678.333333333 147.666666667 607 147 c 256
 535.666666667 147.666666667 475.333333333 172.666666667 426 222 c 128
 376.666666667 271.333333333 351.333333333 332 350 404 c 256
 350 475.333333333 375.333333333 536 426 586 c 128
 476.666666667 636 537 661 607 661 c 258
 610 661 l 2
 677.333333333 661 736.5 635.833333333 787.5 585.5 c 0
 838.5 535.166666667 864.333333333 474.666666667 865 404 c 256
735 818 m 1
 798.333333333 990.666666667 894.333333333 1147.66666667 1023 1289 c 1
 1019 1289 l 1
 801 1213.66666667 630 1099.33333333 506 946 c 0
 466 896.666666667 432.333333333 844.333333333 405 789 c 1
 447 789 l 1
 607 946 l 1
 735 818 l 1
1023 -485 m 1
 893.666666667 -341 797.666666667 -184.333333333 735 -15 c 1
 607 -143 l 1
 447 14 l 1
 405 14 l 1
 461 -96 540.666666667 -193.833333333 644 -279.5 c 128
 747.333333333 -365.166666667 872.333333333 -433.666666667 1019 -485 c 1
 1023 -485 l 1
607 228 m 1
 783 404 l 1
 607 582 l 1
 428 404 l 1
 607 228 l 1
EndSplineSet
Validated: 1
EndChar

StartChar: uniFD3F
Encoding: 64831 64831 177
Width: 1233
VWidth: 1524
GlyphClass: 2
Flags: HMW
LayerCount: 2
Fore
SplineSet
1016 14 m 1
 915 14 l 1
 823.666666667 -183.333333333 672.666666667 -340.666666667 462 -458 c 0
 391.333333333 -498 314.333333333 -532.333333333 231 -561 c 1
 31 -561 l 1
 216.333333333 -378.333333333 347.666666667 -186.666666667 425 14 c 1
 242 14 l 1
 242 244 l 1
 84 402 l 1
 242 560 l 1
 242 789 l 1
 425 789 l 1
 371 932.333333333 280 1080.66666667 152 1234 c 0
 113.333333333 1280 73 1323.33333333 31 1364 c 1
 231 1364 l 1
 477 1281.33333333 668.666666667 1150 806 970 c 0
 850 912.666666667 886.333333333 852.333333333 915 789 c 1
 1016 789 l 1
 1016 560 l 1
 1174 402 l 1
 1016 244 l 1
 1016 14 l 1
939 92 m 1
 939 275 l 1
 1066 402 l 1
 939 529 l 1
 939 711 l 1
 756 711 l 1
 630 838 l 1
 502 711 l 1
 321 711 l 1
 321 529 l 1
 193 402 l 1
 321 275 l 1
 321 92 l 1
 502 92 l 1
 630 -35 l 1
 756 92 l 1
 939 92 l 1
886 404 m 256
 886 330.666666667 860.833333333 269.5 810.5 220.5 c 0
 760.166666667 171.5 701 147 633 147 c 2
 630 147 l 257
 559.333333333 147.666666667 498.666666667 172.666666667 448 222 c 128
 397.333333333 271.333333333 372 331.833333333 372 403.5 c 128
 372 475.166666667 397.666666667 536 449 586 c 128
 500.333333333 636 560.666666667 661 630 661 c 258
 633 661 l 2
 699.666666667 661 758.5 636.5 809.5 587.5 c 0
 860.5 538.5 886 477.333333333 886 404 c 256
213 1289 m 1
 341.666666667 1145 437.666666667 988 501 818 c 1
 630 946 l 1
 788 789 l 1
 831 789 l 1
 713.666666667 1020.33333333 509 1187 217 1289 c 1
 213 1289 l 1
788 14 m 1
 630 -143 l 1
 501 -15 l 1
 438.333333333 -184.333333333 342.333333333 -341 213 -485 c 1
 217 -485 l 1
 364.333333333 -433.666666667 489.833333333 -365 593.5 -279 c 128
 697.166666667 -193 776.333333333 -95.3333333333 831 14 c 1
 788 14 l 1
807 404 m 1
 630 582 l 1
 452 404 l 1
 630 228 l 1
 807 404 l 1
EndSplineSet
Validated: 1
EndChar

StartChar: uniFDFC
Encoding: 65020 65020 178
Width: 2263
VWidth: 1524
GlyphClass: 2
Flags: HMW
LayerCount: 2
Fore
SplineSet
1212 -120 m 1
 1055 -120 l 1
 1055 36 l 1
 1212 36 l 1
 1212 -120 l 1
1462 -120 m 1
 1306 -120 l 1
 1306 36 l 1
 1462 36 l 1
 1462 -120 l 1
1007 1203 m 1
 1007 363 l 2
 1007 61.6666666667 900 -122 686 -188 c 0
 616.666666667 -209.333333333 545.333333333 -220 472 -220 c 0
 342 -220 246.5 -192.833333333 185.5 -138.5 c 128
 124.5 -84.1666666667 94 -8.16666666667 94 89.5 c 128
 94 187.166666667 137.333333333 311.333333333 224 462 c 1
 321 416 l 1
 273 326.666666667 244 257.333333333 234 208 c 128
 224 158.666666667 219 119.333333333 219 90 c 0
 219 -16.6666666667 296.333333333 -70 451 -70 c 128
 605.666666667 -70 716.666666667 -39.5 784 21.5 c 128
 851.333333333 82.5 885 192.666666667 885 352 c 2
 885 1203 l 1
 1007 1203 l 1
1606 731 m 1
 1721 785 l 1
 1773.66666667 635 1800 523 1800 449 c 128
 1800 375 1771.83333333 313.333333333 1715.5 264 c 128
 1659.16666667 214.666666667 1577.83333333 190 1471.5 190 c 128
 1365.16666667 190 1290.33333333 211.666666667 1247 255 c 128
 1203.66666667 298.333333333 1182 369.333333333 1182 468 c 2
 1182 1203 l 1
 1304 1203 l 1
 1304 468 l 2
 1304 422.666666667 1316.66666667 389.666666667 1342 369 c 128
 1367.33333333 348.333333333 1414 338 1482 338 c 2
 1485 338 l 2
 1551 338 1599.5 348.333333333 1630.5 369 c 128
 1661.5 389.666666667 1677 414.333333333 1677 443 c 0
 1677 502.333333333 1653.33333333 598.333333333 1606 731 c 1
1564 -10 m 1
 1788.66666667 70.6666666667 1937.33333333 168 2010 282 c 0
 2034.66666667 320.666666667 2047 363.333333333 2047 410 c 128
 2047 456.666666667 2036.83333333 510.333333333 2016.5 571 c 128
 1996.16666667 631.666666667 1976.33333333 673.666666667 1957 697 c 1
 2052 790 l 1
 2097.33333333 734 2133.33333333 640 2160 508 c 0
 2168 470.666666667 2172 428.833333333 2172 382.5 c 128
 2172 336.166666667 2157.33333333 285.5 2128 230.5 c 128
 2098.66666667 175.5 2058.66666667 124.666666667 2008 78 c 0
 1904.66666667 -18 1769.66666667 -95.6666666667 1603 -155 c 1
 1564 -10 l 1
EndSplineSet
Validated: 1
EndChar

StartChar: mG
Encoding: 65609 -1 179
Width: 786
VWidth: 1524
GlyphClass: 5
Flags: HMW
LayerCount: 2
Fore
SplineSet
725 1171 m 1
 486.333333333 1094.33333333 285 1014 121 930 c 1
 86 1024 l 1
 305.333333333 1127.33333333 510.333333333 1209 701 1269 c 1
 725 1171 l 1
EndSplineSet
Validated: 1
EndChar

StartChar: uniFB92
Encoding: 64402 64402 180
Width: 1725
VWidth: 1524
GlyphClass: 2
Flags: HMW
AnchorPoint: "Anchor-1" 234 -161 basechar 0
AnchorPoint: "Anchor-0" 353 902 basechar 0
LayerCount: 2
Fore
SplineSet
1664 1169 m 1
 1440 1097 1238.66666667 1017 1060 929 c 1
 1025 1022 l 1
 1112.33333333 1063.33333333 1180.66666667 1093.83333333 1230 1113.5 c 128
 1279.33333333 1133.16666667 1336 1156.33333333 1400 1183 c 128
 1464 1209.66666667 1543.33333333 1237.66666667 1638 1267 c 1
 1664 1169 l 1
1459 289 m 0
 1459 77 1188.33333333 -29 647 -29 c 0
 644 -29 644 -29 641 -29 c 0
 487 -29 359.666666667 -3.16666666667 259 48.5 c 0
 158.333333333 100.166666667 107.666666667 179 107 285 c 0
 107 373 130.666666667 479.666666667 178 605 c 1
 299 579 l 1
 292.333333333 555.666666667 284.5 530.666666667 275.5 504 c 128
 266.5 477.333333333 256.333333333 441.833333333 245 397.5 c 128
 233.666666667 353.166666667 228 316.166666667 228 286.5 c 128
 228 256.833333333 238.666666667 231.666666667 260 211 c 0
 323.333333333 150.333333333 452.333333333 120 647 120 c 0
 1108.33333333 120 1339 176.333333333 1339 289 c 0
 1338.33333333 350.333333333 1303.33333333 408.333333333 1234 463 c 0
 1191.33333333 496.333333333 1106.66666667 547.333333333 980 616 c 1
 996 804 l 1
 1136.66666667 881.333333333 1304.66666667 954.333333333 1500 1023 c 0
 1550.66666667 1041 1593.66666667 1054.33333333 1629 1063 c 1
 1656 916 l 1
 1572 896.666666667 1473.33333333 862.333333333 1360 813 c 128
 1246.66666667 763.666666667 1166.66666667 727.333333333 1120 704 c 1
 1234 640 1310.16666667 587.5 1348.5 546.5 c 128
 1386.83333333 505.5 1414.83333333 465.5 1432.5 426.5 c 128
 1450.16666667 387.5 1459 341.666666667 1459 289 c 0
EndSplineSet
Validated: 1
PairPos2: "'kern' Horizontal Kerning in Arabic lookup 0 subtable" gaf_ye.farsi.isol dx=75 dy=0 dh=75 dv=0 dx=0 dy=0 dh=0 dv=0
PairPos2: "'kern' Horizontal Kerning in Arabic lookup 0 subtable" kaf.farsi_ye.farsi.isol dx=75 dy=0 dh=75 dv=0 dx=0 dy=0 dh=0 dv=0
PairPos2: "'kern' Horizontal Kerning in Arabic lookup 0 subtable" uniFB6C dx=100 dy=0 dh=100 dv=0 dx=0 dy=0 dh=0 dv=0
PairPos2: "'kern' Horizontal Kerning in Arabic lookup 0 subtable" uniFB6A dx=100 dy=0 dh=100 dv=0 dx=0 dy=0 dh=0 dv=0
PairPos2: "'kern' Horizontal Kerning in Arabic lookup 0 subtable" lam_ye.farsi.isol dx=100 dy=0 dh=100 dv=0 dx=0 dy=0 dh=0 dv=0
PairPos2: "'kern' Horizontal Kerning in Arabic lookup 0 subtable" mim_ye.farsi.isol dx=100 dy=0 dh=100 dv=0 dx=0 dy=0 dh=0 dv=0
PairPos2: "'kern' Horizontal Kerning in Arabic lookup 0 subtable" zad_ye.farsi.isol dx=100 dy=0 dh=100 dv=0 dx=0 dy=0 dh=0 dv=0
PairPos2: "'kern' Horizontal Kerning in Arabic lookup 0 subtable" shin_ye.farsi.isol dx=100 dy=0 dh=100 dv=0 dx=0 dy=0 dh=0 dv=0
PairPos2: "'kern' Horizontal Kerning in Arabic lookup 0 subtable" sad_ye.farsi.isol dx=100 dy=0 dh=100 dv=0 dx=0 dy=0 dh=0 dv=0
PairPos2: "'kern' Horizontal Kerning in Arabic lookup 0 subtable" sin_ye.farsi.isol dx=100 dy=0 dh=100 dv=0 dx=0 dy=0 dh=0 dv=0
PairPos2: "'kern' Horizontal Kerning in Arabic lookup 0 subtable" uniFEFB_earab.tanvin_fatheh dx=100 dy=0 dh=100 dv=0 dx=0 dy=0 dh=0 dv=0
PairPos2: "'kern' Horizontal Kerning in Arabic lookup 0 subtable" uniFEF7 dx=100 dy=0 dh=100 dv=0 dx=0 dy=0 dh=0 dv=0
PairPos2: "'kern' Horizontal Kerning in Arabic lookup 0 subtable" uniFEF5 dx=100 dy=0 dh=100 dv=0 dx=0 dy=0 dh=0 dv=0
PairPos2: "'kern' Horizontal Kerning in Arabic lookup 0 subtable" uniFEED dx=100 dy=0 dh=100 dv=0 dx=0 dy=0 dh=0 dv=0
PairPos2: "'kern' Horizontal Kerning in Arabic lookup 0 subtable" he8_uni0654.init dx=100 dy=0 dh=100 dv=0 dx=0 dy=0 dh=0 dv=0
PairPos2: "'kern' Horizontal Kerning in Arabic lookup 0 subtable" he8_uni0654.isol dx=100 dy=0 dh=100 dv=0 dx=0 dy=0 dh=0 dv=0
PairPos2: "'kern' Horizontal Kerning in Arabic lookup 0 subtable" he8.init dx=100 dy=0 dh=100 dv=0 dx=0 dy=0 dh=0 dv=0
PairPos2: "'kern' Horizontal Kerning in Arabic lookup 0 subtable" uniFEE9 dx=100 dy=0 dh=100 dv=0 dx=0 dy=0 dh=0 dv=0
PairPos2: "'kern' Horizontal Kerning in Arabic lookup 0 subtable" nun.init dx=100 dy=0 dh=100 dv=0 dx=0 dy=0 dh=0 dv=0
PairPos2: "'kern' Horizontal Kerning in Arabic lookup 0 subtable" mim.init dx=100 dy=0 dh=100 dv=0 dx=0 dy=0 dh=0 dv=0
PairPos2: "'kern' Horizontal Kerning in Arabic lookup 0 subtable" uniFEE1 dx=100 dy=0 dh=100 dv=0 dx=0 dy=0 dh=0 dv=0
PairPos2: "'kern' Horizontal Kerning in Arabic lookup 0 subtable" lam.init dx=100 dy=0 dh=100 dv=0 dx=0 dy=0 dh=0 dv=0
PairPos2: "'kern' Horizontal Kerning in Arabic lookup 0 subtable" uniFEDD dx=100 dy=0 dh=100 dv=0 dx=0 dy=0 dh=0 dv=0
PairPos2: "'kern' Horizontal Kerning in Arabic lookup 0 subtable" uniFEDB dx=75 dy=0 dh=75 dv=0 dx=0 dy=0 dh=0 dv=0
PairPos2: "'kern' Horizontal Kerning in Arabic lookup 0 subtable" uniFED9 dx=100 dy=0 dh=100 dv=0 dx=0 dy=0 dh=0 dv=0
PairPos2: "'kern' Horizontal Kerning in Arabic lookup 0 subtable" qaf.init dx=100 dy=0 dh=100 dv=0 dx=0 dy=0 dh=0 dv=0
PairPos2: "'kern' Horizontal Kerning in Arabic lookup 0 subtable" fe.init dx=100 dy=0 dh=100 dv=0 dx=0 dy=0 dh=0 dv=0
PairPos2: "'kern' Horizontal Kerning in Arabic lookup 0 subtable" uniFED1 dx=100 dy=0 dh=100 dv=0 dx=0 dy=0 dh=0 dv=0
PairPos2: "'kern' Horizontal Kerning in Arabic lookup 0 subtable" qein.init dx=100 dy=0 dh=100 dv=0 dx=0 dy=0 dh=0 dv=0
PairPos2: "'kern' Horizontal Kerning in Arabic lookup 0 subtable" uniFECD dx=100 dy=0 dh=100 dv=0 dx=0 dy=0 dh=0 dv=0
PairPos2: "'kern' Horizontal Kerning in Arabic lookup 0 subtable" ein.init dx=100 dy=0 dh=100 dv=0 dx=0 dy=0 dh=0 dv=0
PairPos2: "'kern' Horizontal Kerning in Arabic lookup 0 subtable" uniFEC9 dx=100 dy=0 dh=100 dv=0 dx=0 dy=0 dh=0 dv=0
PairPos2: "'kern' Horizontal Kerning in Arabic lookup 0 subtable" za.init dx=100 dy=0 dh=100 dv=0 dx=0 dy=0 dh=0 dv=0
PairPos2: "'kern' Horizontal Kerning in Arabic lookup 0 subtable" uniFEC5 dx=100 dy=0 dh=100 dv=0 dx=0 dy=0 dh=0 dv=0
PairPos2: "'kern' Horizontal Kerning in Arabic lookup 0 subtable" ta.init dx=100 dy=0 dh=100 dv=0 dx=0 dy=0 dh=0 dv=0
PairPos2: "'kern' Horizontal Kerning in Arabic lookup 0 subtable" uniFEC1 dx=100 dy=0 dh=100 dv=0 dx=0 dy=0 dh=0 dv=0
PairPos2: "'kern' Horizontal Kerning in Arabic lookup 0 subtable" zad.init dx=100 dy=0 dh=100 dv=0 dx=0 dy=0 dh=0 dv=0
PairPos2: "'kern' Horizontal Kerning in Arabic lookup 0 subtable" uniFEBD dx=100 dy=0 dh=100 dv=0 dx=0 dy=0 dh=0 dv=0
PairPos2: "'kern' Horizontal Kerning in Arabic lookup 0 subtable" sad.init dx=100 dy=0 dh=100 dv=0 dx=0 dy=0 dh=0 dv=0
PairPos2: "'kern' Horizontal Kerning in Arabic lookup 0 subtable" uniFEB9 dx=100 dy=0 dh=100 dv=0 dx=0 dy=0 dh=0 dv=0
PairPos2: "'kern' Horizontal Kerning in Arabic lookup 0 subtable" shin.init dx=100 dy=0 dh=100 dv=0 dx=0 dy=0 dh=0 dv=0
PairPos2: "'kern' Horizontal Kerning in Arabic lookup 0 subtable" uniFEB5 dx=100 dy=0 dh=100 dv=0 dx=0 dy=0 dh=0 dv=0
PairPos2: "'kern' Horizontal Kerning in Arabic lookup 0 subtable" sin.init dx=100 dy=0 dh=100 dv=0 dx=0 dy=0 dh=0 dv=0
PairPos2: "'kern' Horizontal Kerning in Arabic lookup 0 subtable" uniFEB1 dx=100 dy=0 dh=100 dv=0 dx=0 dy=0 dh=0 dv=0
PairPos2: "'kern' Horizontal Kerning in Arabic lookup 0 subtable" uniFEAF dx=100 dy=0 dh=100 dv=0 dx=0 dy=0 dh=0 dv=0
PairPos2: "'kern' Horizontal Kerning in Arabic lookup 0 subtable" uniFEAD dx=100 dy=0 dh=100 dv=0 dx=0 dy=0 dh=0 dv=0
PairPos2: "'kern' Horizontal Kerning in Arabic lookup 0 subtable" uniFEAB dx=100 dy=0 dh=100 dv=0 dx=0 dy=0 dh=0 dv=0
PairPos2: "'kern' Horizontal Kerning in Arabic lookup 0 subtable" uniFEA9 dx=100 dy=0 dh=100 dv=0 dx=0 dy=0 dh=0 dv=0
PairPos2: "'kern' Horizontal Kerning in Arabic lookup 0 subtable" khe.init dx=100 dy=0 dh=100 dv=0 dx=0 dy=0 dh=0 dv=0
PairPos2: "'kern' Horizontal Kerning in Arabic lookup 0 subtable" uniFEA5 dx=100 dy=0 dh=100 dv=0 dx=0 dy=0 dh=0 dv=0
PairPos2: "'kern' Horizontal Kerning in Arabic lookup 0 subtable" him.init dx=100 dy=0 dh=100 dv=0 dx=0 dy=0 dh=0 dv=0
PairPos2: "'kern' Horizontal Kerning in Arabic lookup 0 subtable" uniFEA1 dx=100 dy=0 dh=100 dv=0 dx=0 dy=0 dh=0 dv=0
PairPos2: "'kern' Horizontal Kerning in Arabic lookup 0 subtable" jim.init dx=100 dy=0 dh=100 dv=0 dx=0 dy=0 dh=0 dv=0
PairPos2: "'kern' Horizontal Kerning in Arabic lookup 0 subtable" uniFE9D dx=100 dy=0 dh=100 dv=0 dx=0 dy=0 dh=0 dv=0
PairPos2: "'kern' Horizontal Kerning in Arabic lookup 0 subtable" the.init dx=100 dy=0 dh=100 dv=0 dx=0 dy=0 dh=0 dv=0
PairPos2: "'kern' Horizontal Kerning in Arabic lookup 0 subtable" te.init dx=100 dy=0 dh=100 dv=0 dx=0 dy=0 dh=0 dv=0
PairPos2: "'kern' Horizontal Kerning in Arabic lookup 0 subtable" uniFE95 dx=100 dy=0 dh=100 dv=0 dx=0 dy=0 dh=0 dv=0
PairPos2: "'kern' Horizontal Kerning in Arabic lookup 0 subtable" uniFE93 dx=100 dy=0 dh=100 dv=0 dx=0 dy=0 dh=0 dv=0
PairPos2: "'kern' Horizontal Kerning in Arabic lookup 0 subtable" ye.hamze.init dx=100 dy=0 dh=100 dv=0 dx=0 dy=0 dh=0 dv=0
PairPos2: "'kern' Horizontal Kerning in Arabic lookup 0 subtable" uniFE83 dx=100 dy=0 dh=100 dv=0 dx=0 dy=0 dh=0 dv=0
PairPos2: "'kern' Horizontal Kerning in Arabic lookup 0 subtable" uniFE81 dx=100 dy=0 dh=100 dv=0 dx=0 dy=0 dh=0 dv=0
PairPos2: "'kern' Horizontal Kerning in Arabic lookup 0 subtable" uniFE80 dx=100 dy=0 dh=100 dv=0 dx=0 dy=0 dh=0 dv=0
PairPos2: "'kern' Horizontal Kerning in Arabic lookup 0 subtable" uniFD3D dx=100 dy=0 dh=100 dv=0 dx=0 dy=0 dh=0 dv=0
PairPos2: "'kern' Horizontal Kerning in Arabic lookup 0 subtable" uniFBE8 dx=100 dy=0 dh=100 dv=0 dx=0 dy=0 dh=0 dv=0
PairPos2: "'kern' Horizontal Kerning in Arabic lookup 0 subtable" heye dx=100 dy=0 dh=100 dv=0 dx=0 dy=0 dh=0 dv=0
PairPos2: "'kern' Horizontal Kerning in Arabic lookup 0 subtable" kaf.init dx=75 dy=0 dh=75 dv=0 dx=0 dy=0 dh=0 dv=0
PairPos2: "'kern' Horizontal Kerning in Arabic lookup 0 subtable" uniFB8E dx=75 dy=0 dh=75 dv=0 dx=0 dy=0 dh=0 dv=0
PairPos2: "'kern' Horizontal Kerning in Arabic lookup 0 subtable" uniFB8A dx=100 dy=0 dh=100 dv=0 dx=0 dy=0 dh=0 dv=0
PairPos2: "'kern' Horizontal Kerning in Arabic lookup 0 subtable" che.init dx=100 dy=0 dh=100 dv=0 dx=0 dy=0 dh=0 dv=0
PairPos2: "'kern' Horizontal Kerning in Arabic lookup 0 subtable" uniFB7A dx=100 dy=0 dh=100 dv=0 dx=0 dy=0 dh=0 dv=0
PairPos2: "'kern' Horizontal Kerning in Arabic lookup 0 subtable" uniFB56 dx=100 dy=0 dh=100 dv=0 dx=0 dy=0 dh=0 dv=0
PairPos2: "'kern' Horizontal Kerning in Arabic lookup 0 subtable" uniFB50 dx=100 dy=0 dh=100 dv=0 dx=0 dy=0 dh=0 dv=0
PairPos2: "'kern' Horizontal Kerning in Arabic lookup 0 subtable" gaf.init dx=75 dy=0 dh=75 dv=0 dx=0 dy=0 dh=0 dv=0
PairPos2: "'kern' Horizontal Kerning in Arabic lookup 0 subtable" uniFB92 dx=75 dy=0 dh=75 dv=0 dx=0 dy=0 dh=0 dv=0
PairPos2: "'kern' Horizontal Kerning in Arabic lookup 0 subtable" uniFEFB dx=100 dy=0 dh=100 dv=0 dx=0 dy=0 dh=0 dv=0
PairPos2: "'kern' Horizontal Kerning in Arabic lookup 0 subtable" uniFE8D dx=100 dy=0 dh=100 dv=0 dx=0 dy=0 dh=0 dv=0
EndChar

StartChar: gaf.fina
Encoding: 64403 64403 181
Width: 1825
VWidth: 1524
GlyphClass: 2
Flags: HMW
AnchorPoint: "Anchor-1" 234 -161 basechar 0
AnchorPoint: "Anchor-0" 353 902 basechar 0
LayerCount: 2
Fore
SplineSet
649 120 m 0
 1109.66666667 120 1340 176.333333333 1340 289 c 0
 1340 350.333333333 1305.33333333 408.333333333 1236 463 c 0
 1194.66666667 495 1110 546 982 616 c 1
 997 804 l 1
 1136.33333333 880.666666667 1304.66666667 953.666666667 1502 1023 c 0
 1552.66666667 1041 1595.66666667 1054.33333333 1631 1063 c 1
 1658 916 l 1
 1574 896.666666667 1475.33333333 862.333333333 1362 813 c 128
 1248.66666667 763.666666667 1168.33333333 727.333333333 1121 704 c 1
 1243.66666667 632.666666667 1332.33333333 576 1387 534 c 0
 1504.33333333 443.333333333 1583.66666667 359.333333333 1625 282 c 0
 1645 242 1666 213.666666667 1688 197 c 0
 1730 165.666666667 1776.66666667 150 1828 150 c 1
 1828 0 l 1
 1718.66666667 0 1632 45.3333333333 1568 136 c 0
 1550 161.333333333 1533.33333333 188 1518 216 c 128
 1502.66666667 244 1483.66666667 270.333333333 1461 295 c 1
 1459 162.333333333 1364.66666667 71.3333333333 1178 22 c 0
 1066 -7.33333333333 963.333333333 -23.3333333333 870 -26 c 0
 795.333333333 -28 729 -29 671 -29 c 0
 649 -29 649 -29 628 -29 c 0
 481.333333333 -29 357.833333333 -3.33333333333 257.5 48 c 128
 157.166666667 99.3333333333 107 177.666666667 107 283 c 0
 107 372.333333333 130.666666667 479.666666667 178 605 c 1
 299 579 l 1
 291.666666667 555.666666667 278 514 258 454 c 128
 238 394 228 337.333333333 228 284 c 128
 228 230.666666667 266.333333333 190 343 162 c 128
 419.666666667 134 521.666666667 120 649 120 c 0
1666 1171 m 1
 1421.33333333 1092.33333333 1220 1012 1062 930 c 1
 1027 1024 l 1
 1250.33333333 1129.33333333 1454.33333333 1211 1639 1269 c 1
 1666 1171 l 1
EndSplineSet
Validated: 1
PairPos2: "'kern' Horizontal Kerning in Arabic lookup 0 subtable" gaf_ye.farsi.isol dx=75 dy=0 dh=75 dv=0 dx=0 dy=0 dh=0 dv=0
PairPos2: "'kern' Horizontal Kerning in Arabic lookup 0 subtable" kaf.farsi_ye.farsi.isol dx=75 dy=0 dh=75 dv=0 dx=0 dy=0 dh=0 dv=0
PairPos2: "'kern' Horizontal Kerning in Arabic lookup 0 subtable" uniFB6C dx=100 dy=0 dh=100 dv=0 dx=0 dy=0 dh=0 dv=0
PairPos2: "'kern' Horizontal Kerning in Arabic lookup 0 subtable" uniFB6A dx=100 dy=0 dh=100 dv=0 dx=0 dy=0 dh=0 dv=0
PairPos2: "'kern' Horizontal Kerning in Arabic lookup 0 subtable" lam_ye.farsi.isol dx=100 dy=0 dh=100 dv=0 dx=0 dy=0 dh=0 dv=0
PairPos2: "'kern' Horizontal Kerning in Arabic lookup 0 subtable" mim_ye.farsi.isol dx=100 dy=0 dh=100 dv=0 dx=0 dy=0 dh=0 dv=0
PairPos2: "'kern' Horizontal Kerning in Arabic lookup 0 subtable" zad_ye.farsi.isol dx=100 dy=0 dh=100 dv=0 dx=0 dy=0 dh=0 dv=0
PairPos2: "'kern' Horizontal Kerning in Arabic lookup 0 subtable" shin_ye.farsi.isol dx=100 dy=0 dh=100 dv=0 dx=0 dy=0 dh=0 dv=0
PairPos2: "'kern' Horizontal Kerning in Arabic lookup 0 subtable" sad_ye.farsi.isol dx=100 dy=0 dh=100 dv=0 dx=0 dy=0 dh=0 dv=0
PairPos2: "'kern' Horizontal Kerning in Arabic lookup 0 subtable" sin_ye.farsi.isol dx=100 dy=0 dh=100 dv=0 dx=0 dy=0 dh=0 dv=0
PairPos2: "'kern' Horizontal Kerning in Arabic lookup 0 subtable" uniFEFB_earab.tanvin_fatheh dx=100 dy=0 dh=100 dv=0 dx=0 dy=0 dh=0 dv=0
PairPos2: "'kern' Horizontal Kerning in Arabic lookup 0 subtable" uniFEF7 dx=100 dy=0 dh=100 dv=0 dx=0 dy=0 dh=0 dv=0
PairPos2: "'kern' Horizontal Kerning in Arabic lookup 0 subtable" uniFEF5 dx=100 dy=0 dh=100 dv=0 dx=0 dy=0 dh=0 dv=0
PairPos2: "'kern' Horizontal Kerning in Arabic lookup 0 subtable" uniFEED dx=100 dy=0 dh=100 dv=0 dx=0 dy=0 dh=0 dv=0
PairPos2: "'kern' Horizontal Kerning in Arabic lookup 0 subtable" he8_uni0654.init dx=100 dy=0 dh=100 dv=0 dx=0 dy=0 dh=0 dv=0
PairPos2: "'kern' Horizontal Kerning in Arabic lookup 0 subtable" he8_uni0654.isol dx=100 dy=0 dh=100 dv=0 dx=0 dy=0 dh=0 dv=0
PairPos2: "'kern' Horizontal Kerning in Arabic lookup 0 subtable" he8.init dx=100 dy=0 dh=100 dv=0 dx=0 dy=0 dh=0 dv=0
PairPos2: "'kern' Horizontal Kerning in Arabic lookup 0 subtable" uniFEE9 dx=100 dy=0 dh=100 dv=0 dx=0 dy=0 dh=0 dv=0
PairPos2: "'kern' Horizontal Kerning in Arabic lookup 0 subtable" nun.init dx=100 dy=0 dh=100 dv=0 dx=0 dy=0 dh=0 dv=0
PairPos2: "'kern' Horizontal Kerning in Arabic lookup 0 subtable" mim.init dx=100 dy=0 dh=100 dv=0 dx=0 dy=0 dh=0 dv=0
PairPos2: "'kern' Horizontal Kerning in Arabic lookup 0 subtable" uniFEE1 dx=100 dy=0 dh=100 dv=0 dx=0 dy=0 dh=0 dv=0
PairPos2: "'kern' Horizontal Kerning in Arabic lookup 0 subtable" lam.init dx=100 dy=0 dh=100 dv=0 dx=0 dy=0 dh=0 dv=0
PairPos2: "'kern' Horizontal Kerning in Arabic lookup 0 subtable" uniFEDD dx=100 dy=0 dh=100 dv=0 dx=0 dy=0 dh=0 dv=0
PairPos2: "'kern' Horizontal Kerning in Arabic lookup 0 subtable" uniFEDB dx=75 dy=0 dh=75 dv=0 dx=0 dy=0 dh=0 dv=0
PairPos2: "'kern' Horizontal Kerning in Arabic lookup 0 subtable" uniFED9 dx=100 dy=0 dh=100 dv=0 dx=0 dy=0 dh=0 dv=0
PairPos2: "'kern' Horizontal Kerning in Arabic lookup 0 subtable" qaf.init dx=100 dy=0 dh=100 dv=0 dx=0 dy=0 dh=0 dv=0
PairPos2: "'kern' Horizontal Kerning in Arabic lookup 0 subtable" fe.init dx=100 dy=0 dh=100 dv=0 dx=0 dy=0 dh=0 dv=0
PairPos2: "'kern' Horizontal Kerning in Arabic lookup 0 subtable" uniFED1 dx=100 dy=0 dh=100 dv=0 dx=0 dy=0 dh=0 dv=0
PairPos2: "'kern' Horizontal Kerning in Arabic lookup 0 subtable" qein.init dx=100 dy=0 dh=100 dv=0 dx=0 dy=0 dh=0 dv=0
PairPos2: "'kern' Horizontal Kerning in Arabic lookup 0 subtable" uniFECD dx=100 dy=0 dh=100 dv=0 dx=0 dy=0 dh=0 dv=0
PairPos2: "'kern' Horizontal Kerning in Arabic lookup 0 subtable" ein.init dx=100 dy=0 dh=100 dv=0 dx=0 dy=0 dh=0 dv=0
PairPos2: "'kern' Horizontal Kerning in Arabic lookup 0 subtable" uniFEC9 dx=100 dy=0 dh=100 dv=0 dx=0 dy=0 dh=0 dv=0
PairPos2: "'kern' Horizontal Kerning in Arabic lookup 0 subtable" za.init dx=100 dy=0 dh=100 dv=0 dx=0 dy=0 dh=0 dv=0
PairPos2: "'kern' Horizontal Kerning in Arabic lookup 0 subtable" uniFEC5 dx=100 dy=0 dh=100 dv=0 dx=0 dy=0 dh=0 dv=0
PairPos2: "'kern' Horizontal Kerning in Arabic lookup 0 subtable" ta.init dx=100 dy=0 dh=100 dv=0 dx=0 dy=0 dh=0 dv=0
PairPos2: "'kern' Horizontal Kerning in Arabic lookup 0 subtable" uniFEC1 dx=100 dy=0 dh=100 dv=0 dx=0 dy=0 dh=0 dv=0
PairPos2: "'kern' Horizontal Kerning in Arabic lookup 0 subtable" zad.init dx=100 dy=0 dh=100 dv=0 dx=0 dy=0 dh=0 dv=0
PairPos2: "'kern' Horizontal Kerning in Arabic lookup 0 subtable" uniFEBD dx=100 dy=0 dh=100 dv=0 dx=0 dy=0 dh=0 dv=0
PairPos2: "'kern' Horizontal Kerning in Arabic lookup 0 subtable" sad.init dx=100 dy=0 dh=100 dv=0 dx=0 dy=0 dh=0 dv=0
PairPos2: "'kern' Horizontal Kerning in Arabic lookup 0 subtable" uniFEB9 dx=100 dy=0 dh=100 dv=0 dx=0 dy=0 dh=0 dv=0
PairPos2: "'kern' Horizontal Kerning in Arabic lookup 0 subtable" shin.init dx=100 dy=0 dh=100 dv=0 dx=0 dy=0 dh=0 dv=0
PairPos2: "'kern' Horizontal Kerning in Arabic lookup 0 subtable" uniFEB5 dx=100 dy=0 dh=100 dv=0 dx=0 dy=0 dh=0 dv=0
PairPos2: "'kern' Horizontal Kerning in Arabic lookup 0 subtable" sin.init dx=100 dy=0 dh=100 dv=0 dx=0 dy=0 dh=0 dv=0
PairPos2: "'kern' Horizontal Kerning in Arabic lookup 0 subtable" uniFEB1 dx=100 dy=0 dh=100 dv=0 dx=0 dy=0 dh=0 dv=0
PairPos2: "'kern' Horizontal Kerning in Arabic lookup 0 subtable" uniFEAF dx=100 dy=0 dh=100 dv=0 dx=0 dy=0 dh=0 dv=0
PairPos2: "'kern' Horizontal Kerning in Arabic lookup 0 subtable" uniFEAD dx=100 dy=0 dh=100 dv=0 dx=0 dy=0 dh=0 dv=0
PairPos2: "'kern' Horizontal Kerning in Arabic lookup 0 subtable" uniFEAB dx=100 dy=0 dh=100 dv=0 dx=0 dy=0 dh=0 dv=0
PairPos2: "'kern' Horizontal Kerning in Arabic lookup 0 subtable" uniFEA9 dx=100 dy=0 dh=100 dv=0 dx=0 dy=0 dh=0 dv=0
PairPos2: "'kern' Horizontal Kerning in Arabic lookup 0 subtable" khe.init dx=100 dy=0 dh=100 dv=0 dx=0 dy=0 dh=0 dv=0
PairPos2: "'kern' Horizontal Kerning in Arabic lookup 0 subtable" uniFEA5 dx=100 dy=0 dh=100 dv=0 dx=0 dy=0 dh=0 dv=0
PairPos2: "'kern' Horizontal Kerning in Arabic lookup 0 subtable" him.init dx=100 dy=0 dh=100 dv=0 dx=0 dy=0 dh=0 dv=0
PairPos2: "'kern' Horizontal Kerning in Arabic lookup 0 subtable" uniFEA1 dx=100 dy=0 dh=100 dv=0 dx=0 dy=0 dh=0 dv=0
PairPos2: "'kern' Horizontal Kerning in Arabic lookup 0 subtable" jim.init dx=100 dy=0 dh=100 dv=0 dx=0 dy=0 dh=0 dv=0
PairPos2: "'kern' Horizontal Kerning in Arabic lookup 0 subtable" uniFE9D dx=100 dy=0 dh=100 dv=0 dx=0 dy=0 dh=0 dv=0
PairPos2: "'kern' Horizontal Kerning in Arabic lookup 0 subtable" the.init dx=100 dy=0 dh=100 dv=0 dx=0 dy=0 dh=0 dv=0
PairPos2: "'kern' Horizontal Kerning in Arabic lookup 0 subtable" te.init dx=100 dy=0 dh=100 dv=0 dx=0 dy=0 dh=0 dv=0
PairPos2: "'kern' Horizontal Kerning in Arabic lookup 0 subtable" uniFE95 dx=100 dy=0 dh=100 dv=0 dx=0 dy=0 dh=0 dv=0
PairPos2: "'kern' Horizontal Kerning in Arabic lookup 0 subtable" uniFE93 dx=100 dy=0 dh=100 dv=0 dx=0 dy=0 dh=0 dv=0
PairPos2: "'kern' Horizontal Kerning in Arabic lookup 0 subtable" ye.hamze.init dx=100 dy=0 dh=100 dv=0 dx=0 dy=0 dh=0 dv=0
PairPos2: "'kern' Horizontal Kerning in Arabic lookup 0 subtable" uniFE83 dx=100 dy=0 dh=100 dv=0 dx=0 dy=0 dh=0 dv=0
PairPos2: "'kern' Horizontal Kerning in Arabic lookup 0 subtable" uniFE81 dx=100 dy=0 dh=100 dv=0 dx=0 dy=0 dh=0 dv=0
PairPos2: "'kern' Horizontal Kerning in Arabic lookup 0 subtable" uniFE80 dx=100 dy=0 dh=100 dv=0 dx=0 dy=0 dh=0 dv=0
PairPos2: "'kern' Horizontal Kerning in Arabic lookup 0 subtable" uniFD3D dx=100 dy=0 dh=100 dv=0 dx=0 dy=0 dh=0 dv=0
PairPos2: "'kern' Horizontal Kerning in Arabic lookup 0 subtable" uniFBE8 dx=100 dy=0 dh=100 dv=0 dx=0 dy=0 dh=0 dv=0
PairPos2: "'kern' Horizontal Kerning in Arabic lookup 0 subtable" heye dx=100 dy=0 dh=100 dv=0 dx=0 dy=0 dh=0 dv=0
PairPos2: "'kern' Horizontal Kerning in Arabic lookup 0 subtable" kaf.init dx=75 dy=0 dh=75 dv=0 dx=0 dy=0 dh=0 dv=0
PairPos2: "'kern' Horizontal Kerning in Arabic lookup 0 subtable" uniFB8E dx=75 dy=0 dh=75 dv=0 dx=0 dy=0 dh=0 dv=0
PairPos2: "'kern' Horizontal Kerning in Arabic lookup 0 subtable" uniFB8A dx=100 dy=0 dh=100 dv=0 dx=0 dy=0 dh=0 dv=0
PairPos2: "'kern' Horizontal Kerning in Arabic lookup 0 subtable" che.init dx=100 dy=0 dh=100 dv=0 dx=0 dy=0 dh=0 dv=0
PairPos2: "'kern' Horizontal Kerning in Arabic lookup 0 subtable" uniFB7A dx=100 dy=0 dh=100 dv=0 dx=0 dy=0 dh=0 dv=0
PairPos2: "'kern' Horizontal Kerning in Arabic lookup 0 subtable" uniFB56 dx=100 dy=0 dh=100 dv=0 dx=0 dy=0 dh=0 dv=0
PairPos2: "'kern' Horizontal Kerning in Arabic lookup 0 subtable" uniFB50 dx=100 dy=0 dh=100 dv=0 dx=0 dy=0 dh=0 dv=0
PairPos2: "'kern' Horizontal Kerning in Arabic lookup 0 subtable" gaf.init dx=75 dy=0 dh=75 dv=0 dx=0 dy=0 dh=0 dv=0
PairPos2: "'kern' Horizontal Kerning in Arabic lookup 0 subtable" uniFB92 dx=75 dy=0 dh=75 dv=0 dx=0 dy=0 dh=0 dv=0
PairPos2: "'kern' Horizontal Kerning in Arabic lookup 0 subtable" uniFEFB dx=100 dy=0 dh=100 dv=0 dx=0 dy=0 dh=0 dv=0
PairPos2: "'kern' Horizontal Kerning in Arabic lookup 0 subtable" uniFE8D dx=100 dy=0 dh=100 dv=0 dx=0 dy=0 dh=0 dv=0
EndChar

StartChar: gaf.init
Encoding: 64404 64404 182
Width: 796
VWidth: 1524
GlyphClass: 2
Flags: HMW
AnchorPoint: "Anchor-1" 234 -161 basechar 0
AnchorPoint: "Anchor-0" 210 1134 basechar 0
LayerCount: 2
Fore
SplineSet
725 1171 m 1
 486.333333333 1094.33333333 285 1014 121 930 c 1
 86 1024 l 1
 305.333333333 1127.33333333 510.333333333 1209 701 1269 c 1
 725 1171 l 1
0 0 m 2
 -18 0 -36.3333333333 3.33333333333 -55 10 c 1
 -55 150 l 1
 55 150 l 2
 206.333333333 150 311.333333333 176 370 228 c 0
 390 245.333333333 400 268 400 296 c 0
 400 377.333333333 327.333333333 458.333333333 182 539 c 0
 139.333333333 563 93 588.666666667 43 616 c 1
 59 804 l 1
 208.333333333 886 376.333333333 959 563 1023 c 0
 613.666666667 1041 656 1054.33333333 690 1063 c 1
 719 916 l 1
 637 896.666666667 538.666666667 862.333333333 424 813 c 128
 309.333333333 763.666666667 228.666666667 727.333333333 182 704 c 1
 294 640.666666667 369.666666667 588.333333333 409 547 c 0
 483 469 520 388 520 304 c 0
 520 172 441.333333333 81.3333333333 284 32 c 0
 213.333333333 10.6666666667 137 0 55 0 c 2
 0 0 l 2
EndSplineSet
Validated: 1
EndChar

StartChar: gaf.medi
Encoding: 64405 64405 183
Width: 898
VWidth: 1524
GlyphClass: 2
Flags: HMW
AnchorPoint: "Anchor-1" 234 -161 basechar 0
AnchorPoint: "Anchor-0" 210 1134 basechar 0
LayerCount: 2
Fore
SplineSet
725 1171 m 1
 486.333333333 1094.33333333 285 1014 121 930 c 1
 86 1024 l 1
 305.333333333 1127.33333333 510.333333333 1209 701 1269 c 1
 725 1171 l 1
900 0 m 1
 758 0 652.333333333 69.3333333333 583 208 c 0
 571.666666667 230.666666667 550.666666667 260.333333333 520 297 c 1
 520 199 474.166666667 125 382.5 75 c 128
 290.833333333 25 181.666666667 0 55 0 c 2
 0 0 l 2
 -18 0 -36.3333333333 3.33333333333 -55 10 c 1
 -55 150 l 1
 55 150 l 2
 206.333333333 150 311.333333333 176 370 228 c 0
 390 245.333333333 400 268 400 296 c 0
 400 377.333333333 327.333333333 458.333333333 182 539 c 0
 139.333333333 563 93 588.666666667 43 616 c 1
 59 804 l 1
 208.333333333 886 376.333333333 959 563 1023 c 0
 613.666666667 1041 656 1054.33333333 690 1063 c 1
 719 916 l 1
 637 896.666666667 538.666666667 862.333333333 424 813 c 128
 309.333333333 763.666666667 228.666666667 727.333333333 182 704 c 1
 305.333333333 632 394 575.333333333 448 534 c 0
 566 442.666666667 644.666666667 358.666666667 684 282 c 0
 728 194 800 150 900 150 c 1
 900 0 l 1
EndSplineSet
Validated: 1
EndChar

StartChar: khe.medi
Encoding: 65192 65192 298
Width: 1201
VWidth: 1524
GlyphClass: 2
Flags: HMW
AnchorPoint: "Anchor-1" 344 -161 basechar 0
AnchorPoint: "Anchor-0" 318 1180 basechar 0
LayerCount: 2
Fore
SplineSet
29 209 m 1053
EndSplineSet
Refer: 100 -1 N 1 0 0 1 0 0 3
Refer: 155 -1 N 1 0 0 1 344 71 2
Validated: 1
EndChar

StartChar: sin_ye.farsi.isol
Encoding: 65636 -1 406
Width: 2445
VWidth: 1524
GlyphClass: 3
LigCaretCntFixed: 1
Flags: HMW
AnchorPoint: "Anchor-3" 1559 -204 baselig 0
AnchorPoint: "Anchor-2" 1478 946 baselig 0
AnchorPoint: "Anchor-3" 328 -439 baselig 1
AnchorPoint: "Anchor-2" 398 722 baselig 1
LayerCount: 2
Fore
SplineSet
1853 98 m 1
 1803.66666667 32.6666666667 1740.33333333 0 1663 0 c 0
 1543 0 1459.33333333 48.6666666667 1412 146 c 0
 1398.66666667 174 1384.83333333 206.5 1370.5 243.5 c 128
 1356.16666667 280.5 1334.16666667 312.833333333 1304.5 340.5 c 128
 1274.83333333 368.166666667 1235.66666667 382 1187 382 c 0
 1101 382 1023.66666667 368.333333333 955 341 c 128
 886.333333333 313.666666667 851.666666667 279.666666667 851 239 c 0
 851.666666667 227.666666667 857.333333333 219.333333333 868 214 c 0
 893.333333333 202 942.5 185.833333333 1015.5 165.5 c 128
 1088.5 145.166666667 1137.66666667 121.333333333 1163 94 c 128
 1188.33333333 66.6666666667 1201 20 1201 -46 c 0
 1200.33333333 -154.666666667 1070 -240.666666667 810 -304 c 0
 698 -331.333333333 582.5 -345 463.5 -345 c 128
 344.5 -345 253.333333333 -319.333333333 190 -268 c 128
 126.666666667 -216.666666667 95 -139.833333333 95 -37.5 c 128
 95 64.8333333333 137.333333333 189.666666667 222 337 c 1
 319 290 l 1
 309 271.333333333 297.333333333 250.333333333 284 227 c 0
 236 140.333333333 212 48.3333333333 212 -49 c 128
 212 -146.333333333 297.333333333 -195 468 -195 c 0
 598.666666667 -195 707 -186.833333333 793 -170.5 c 128
 879 -154.166666667 938.666666667 -140.666666667 972 -130 c 0
 1046.66666667 -105.333333333 1084 -77.3333333333 1084 -46 c 0
 1084 -30 1075 -16.8333333333 1057 -6.5 c 128
 1039 3.83333333333 993.333333333 19.1666666667 920 39.5 c 128
 846.666666667 59.8333333333 797.166666667 83.6666666667 771.5 111 c 128
 745.833333333 138.333333333 733 173.833333333 733 217.5 c 128
 733 261.166666667 739.333333333 296 752 322 c 0
 788.666666667 397.333333333 859.666666667 454.666666667 965 494 c 0
 1033 519.333333333 1097.33333333 532 1158 532 c 0
 1261.33333333 532 1338 506.333333333 1388 455 c 0
 1420.66666667 422.333333333 1449.16666667 374.5 1473.5 311.5 c 128
 1497.83333333 248.5 1517.66666667 209.666666667 1533 195 c 0
 1563.66666667 165 1602.83333333 150 1650.5 150 c 128
 1698.16666667 150 1735.66666667 164.666666667 1763 194 c 128
 1790.33333333 223.333333333 1804 251.333333333 1804 278 c 2
 1804 392 l 1
 1924 392 l 1
 1924 272 l 2
 1924 232 1938 201 1966 179 c 0
 1994 157 2019.33333333 146 2042 146 c 0
 2064.66666667 146 2085 148.333333333 2103 153 c 0
 2154.33333333 167 2191.33333333 188.333333333 2214 217 c 0
 2223.33333333 231 2228 244.666666667 2228 258 c 0
 2228 320 2204 425.666666667 2156 575 c 1
 2280 586 l 1
 2319.33333333 465.333333333 2340.83333333 385.833333333 2344.5 347.5 c 128
 2348.16666667 309.166666667 2350 276 2350 248 c 0
 2350 186.666666667 2320.33333333 130 2261 78 c 0
 2201.66666667 26 2137.33333333 0 2068 0 c 0
 2067 0 2067 0 2066 0 c 0
 1998 0 1940.66666667 17.6666666667 1894 53 c 0
 1878 65 1864.33333333 80 1853 98 c 1
EndSplineSet
Validated: 1
Ligature2: "'liga' Standard Ligatures in Arabic lookup 7 subtable" sin.init uniFEF0
Ligature2: "'liga' Standard Ligatures in Arabic lookup 7 subtable" sin.init ye.fina.farsiina
PairPos2: "'kern' Horizontal Kerning in Arabic lookup 0 subtable" gaf_ye.farsi.isol dx=75 dy=0 dh=75 dv=0 dx=0 dy=0 dh=0 dv=0
PairPos2: "'kern' Horizontal Kerning in Arabic lookup 0 subtable" kaf.farsi_ye.farsi.isol dx=75 dy=0 dh=75 dv=0 dx=0 dy=0 dh=0 dv=0
PairPos2: "'kern' Horizontal Kerning in Arabic lookup 0 subtable" uniFB6C dx=100 dy=0 dh=100 dv=0 dx=0 dy=0 dh=0 dv=0
PairPos2: "'kern' Horizontal Kerning in Arabic lookup 0 subtable" uniFB6A dx=100 dy=0 dh=100 dv=0 dx=0 dy=0 dh=0 dv=0
PairPos2: "'kern' Horizontal Kerning in Arabic lookup 0 subtable" lam_ye.farsi.isol dx=100 dy=0 dh=100 dv=0 dx=0 dy=0 dh=0 dv=0
PairPos2: "'kern' Horizontal Kerning in Arabic lookup 0 subtable" mim_ye.farsi.isol dx=100 dy=0 dh=100 dv=0 dx=0 dy=0 dh=0 dv=0
PairPos2: "'kern' Horizontal Kerning in Arabic lookup 0 subtable" zad_ye.farsi.isol dx=100 dy=0 dh=100 dv=0 dx=0 dy=0 dh=0 dv=0
PairPos2: "'kern' Horizontal Kerning in Arabic lookup 0 subtable" shin_ye.farsi.isol dx=100 dy=0 dh=100 dv=0 dx=0 dy=0 dh=0 dv=0
PairPos2: "'kern' Horizontal Kerning in Arabic lookup 0 subtable" sad_ye.farsi.isol dx=100 dy=0 dh=100 dv=0 dx=0 dy=0 dh=0 dv=0
PairPos2: "'kern' Horizontal Kerning in Arabic lookup 0 subtable" sin_ye.farsi.isol dx=100 dy=0 dh=100 dv=0 dx=0 dy=0 dh=0 dv=0
PairPos2: "'kern' Horizontal Kerning in Arabic lookup 0 subtable" uniFEFB_earab.tanvin_fatheh dx=100 dy=0 dh=100 dv=0 dx=0 dy=0 dh=0 dv=0
PairPos2: "'kern' Horizontal Kerning in Arabic lookup 0 subtable" uniFEF7 dx=100 dy=0 dh=100 dv=0 dx=0 dy=0 dh=0 dv=0
PairPos2: "'kern' Horizontal Kerning in Arabic lookup 0 subtable" uniFEF5 dx=100 dy=0 dh=100 dv=0 dx=0 dy=0 dh=0 dv=0
PairPos2: "'kern' Horizontal Kerning in Arabic lookup 0 subtable" uniFEED dx=100 dy=0 dh=100 dv=0 dx=0 dy=0 dh=0 dv=0
PairPos2: "'kern' Horizontal Kerning in Arabic lookup 0 subtable" he8_uni0654.init dx=100 dy=0 dh=100 dv=0 dx=0 dy=0 dh=0 dv=0
PairPos2: "'kern' Horizontal Kerning in Arabic lookup 0 subtable" he8_uni0654.isol dx=100 dy=0 dh=100 dv=0 dx=0 dy=0 dh=0 dv=0
PairPos2: "'kern' Horizontal Kerning in Arabic lookup 0 subtable" he8.init dx=100 dy=0 dh=100 dv=0 dx=0 dy=0 dh=0 dv=0
PairPos2: "'kern' Horizontal Kerning in Arabic lookup 0 subtable" uniFEE9 dx=100 dy=0 dh=100 dv=0 dx=0 dy=0 dh=0 dv=0
PairPos2: "'kern' Horizontal Kerning in Arabic lookup 0 subtable" nun.init dx=100 dy=0 dh=100 dv=0 dx=0 dy=0 dh=0 dv=0
PairPos2: "'kern' Horizontal Kerning in Arabic lookup 0 subtable" mim.init dx=100 dy=0 dh=100 dv=0 dx=0 dy=0 dh=0 dv=0
PairPos2: "'kern' Horizontal Kerning in Arabic lookup 0 subtable" uniFEE1 dx=100 dy=0 dh=100 dv=0 dx=0 dy=0 dh=0 dv=0
PairPos2: "'kern' Horizontal Kerning in Arabic lookup 0 subtable" lam.init dx=100 dy=0 dh=100 dv=0 dx=0 dy=0 dh=0 dv=0
PairPos2: "'kern' Horizontal Kerning in Arabic lookup 0 subtable" uniFEDD dx=100 dy=0 dh=100 dv=0 dx=0 dy=0 dh=0 dv=0
PairPos2: "'kern' Horizontal Kerning in Arabic lookup 0 subtable" uniFEDB dx=75 dy=0 dh=75 dv=0 dx=0 dy=0 dh=0 dv=0
PairPos2: "'kern' Horizontal Kerning in Arabic lookup 0 subtable" uniFED9 dx=100 dy=0 dh=100 dv=0 dx=0 dy=0 dh=0 dv=0
PairPos2: "'kern' Horizontal Kerning in Arabic lookup 0 subtable" qaf.init dx=100 dy=0 dh=100 dv=0 dx=0 dy=0 dh=0 dv=0
PairPos2: "'kern' Horizontal Kerning in Arabic lookup 0 subtable" fe.init dx=100 dy=0 dh=100 dv=0 dx=0 dy=0 dh=0 dv=0
PairPos2: "'kern' Horizontal Kerning in Arabic lookup 0 subtable" uniFED1 dx=100 dy=0 dh=100 dv=0 dx=0 dy=0 dh=0 dv=0
PairPos2: "'kern' Horizontal Kerning in Arabic lookup 0 subtable" qein.init dx=100 dy=0 dh=100 dv=0 dx=0 dy=0 dh=0 dv=0
PairPos2: "'kern' Horizontal Kerning in Arabic lookup 0 subtable" uniFECD dx=100 dy=0 dh=100 dv=0 dx=0 dy=0 dh=0 dv=0
PairPos2: "'kern' Horizontal Kerning in Arabic lookup 0 subtable" ein.init dx=100 dy=0 dh=100 dv=0 dx=0 dy=0 dh=0 dv=0
PairPos2: "'kern' Horizontal Kerning in Arabic lookup 0 subtable" uniFEC9 dx=100 dy=0 dh=100 dv=0 dx=0 dy=0 dh=0 dv=0
PairPos2: "'kern' Horizontal Kerning in Arabic lookup 0 subtable" za.init dx=100 dy=0 dh=100 dv=0 dx=0 dy=0 dh=0 dv=0
PairPos2: "'kern' Horizontal Kerning in Arabic lookup 0 subtable" uniFEC5 dx=100 dy=0 dh=100 dv=0 dx=0 dy=0 dh=0 dv=0
PairPos2: "'kern' Horizontal Kerning in Arabic lookup 0 subtable" ta.init dx=100 dy=0 dh=100 dv=0 dx=0 dy=0 dh=0 dv=0
PairPos2: "'kern' Horizontal Kerning in Arabic lookup 0 subtable" uniFEC1 dx=100 dy=0 dh=100 dv=0 dx=0 dy=0 dh=0 dv=0
PairPos2: "'kern' Horizontal Kerning in Arabic lookup 0 subtable" zad.init dx=100 dy=0 dh=100 dv=0 dx=0 dy=0 dh=0 dv=0
PairPos2: "'kern' Horizontal Kerning in Arabic lookup 0 subtable" uniFEBD dx=100 dy=0 dh=100 dv=0 dx=0 dy=0 dh=0 dv=0
PairPos2: "'kern' Horizontal Kerning in Arabic lookup 0 subtable" sad.init dx=100 dy=0 dh=100 dv=0 dx=0 dy=0 dh=0 dv=0
PairPos2: "'kern' Horizontal Kerning in Arabic lookup 0 subtable" uniFEB9 dx=100 dy=0 dh=100 dv=0 dx=0 dy=0 dh=0 dv=0
PairPos2: "'kern' Horizontal Kerning in Arabic lookup 0 subtable" shin.init dx=100 dy=0 dh=100 dv=0 dx=0 dy=0 dh=0 dv=0
PairPos2: "'kern' Horizontal Kerning in Arabic lookup 0 subtable" uniFEB5 dx=100 dy=0 dh=100 dv=0 dx=0 dy=0 dh=0 dv=0
PairPos2: "'kern' Horizontal Kerning in Arabic lookup 0 subtable" sin.init dx=100 dy=0 dh=100 dv=0 dx=0 dy=0 dh=0 dv=0
PairPos2: "'kern' Horizontal Kerning in Arabic lookup 0 subtable" uniFEB1 dx=100 dy=0 dh=100 dv=0 dx=0 dy=0 dh=0 dv=0
PairPos2: "'kern' Horizontal Kerning in Arabic lookup 0 subtable" uniFEAF dx=100 dy=0 dh=100 dv=0 dx=0 dy=0 dh=0 dv=0
PairPos2: "'kern' Horizontal Kerning in Arabic lookup 0 subtable" uniFEAD dx=100 dy=0 dh=100 dv=0 dx=0 dy=0 dh=0 dv=0
PairPos2: "'kern' Horizontal Kerning in Arabic lookup 0 subtable" uniFEAB dx=100 dy=0 dh=100 dv=0 dx=0 dy=0 dh=0 dv=0
PairPos2: "'kern' Horizontal Kerning in Arabic lookup 0 subtable" uniFEA9 dx=100 dy=0 dh=100 dv=0 dx=0 dy=0 dh=0 dv=0
PairPos2: "'kern' Horizontal Kerning in Arabic lookup 0 subtable" khe.init dx=100 dy=0 dh=100 dv=0 dx=0 dy=0 dh=0 dv=0
PairPos2: "'kern' Horizontal Kerning in Arabic lookup 0 subtable" uniFEA5 dx=100 dy=0 dh=100 dv=0 dx=0 dy=0 dh=0 dv=0
PairPos2: "'kern' Horizontal Kerning in Arabic lookup 0 subtable" him.init dx=100 dy=0 dh=100 dv=0 dx=0 dy=0 dh=0 dv=0
PairPos2: "'kern' Horizontal Kerning in Arabic lookup 0 subtable" uniFEA1 dx=100 dy=0 dh=100 dv=0 dx=0 dy=0 dh=0 dv=0
PairPos2: "'kern' Horizontal Kerning in Arabic lookup 0 subtable" jim.init dx=100 dy=0 dh=100 dv=0 dx=0 dy=0 dh=0 dv=0
PairPos2: "'kern' Horizontal Kerning in Arabic lookup 0 subtable" uniFE9D dx=100 dy=0 dh=100 dv=0 dx=0 dy=0 dh=0 dv=0
PairPos2: "'kern' Horizontal Kerning in Arabic lookup 0 subtable" the.init dx=100 dy=0 dh=100 dv=0 dx=0 dy=0 dh=0 dv=0
PairPos2: "'kern' Horizontal Kerning in Arabic lookup 0 subtable" te.init dx=100 dy=0 dh=100 dv=0 dx=0 dy=0 dh=0 dv=0
PairPos2: "'kern' Horizontal Kerning in Arabic lookup 0 subtable" uniFE95 dx=100 dy=0 dh=100 dv=0 dx=0 dy=0 dh=0 dv=0
PairPos2: "'kern' Horizontal Kerning in Arabic lookup 0 subtable" uniFE93 dx=100 dy=0 dh=100 dv=0 dx=0 dy=0 dh=0 dv=0
PairPos2: "'kern' Horizontal Kerning in Arabic lookup 0 subtable" ye.hamze.init dx=100 dy=0 dh=100 dv=0 dx=0 dy=0 dh=0 dv=0
PairPos2: "'kern' Horizontal Kerning in Arabic lookup 0 subtable" uniFE83 dx=100 dy=0 dh=100 dv=0 dx=0 dy=0 dh=0 dv=0
PairPos2: "'kern' Horizontal Kerning in Arabic lookup 0 subtable" uniFE81 dx=100 dy=0 dh=100 dv=0 dx=0 dy=0 dh=0 dv=0
PairPos2: "'kern' Horizontal Kerning in Arabic lookup 0 subtable" uniFE80 dx=100 dy=0 dh=100 dv=0 dx=0 dy=0 dh=0 dv=0
PairPos2: "'kern' Horizontal Kerning in Arabic lookup 0 subtable" uniFD3D dx=100 dy=0 dh=100 dv=0 dx=0 dy=0 dh=0 dv=0
PairPos2: "'kern' Horizontal Kerning in Arabic lookup 0 subtable" uniFBE8 dx=100 dy=0 dh=100 dv=0 dx=0 dy=0 dh=0 dv=0
PairPos2: "'kern' Horizontal Kerning in Arabic lookup 0 subtable" heye dx=100 dy=0 dh=100 dv=0 dx=0 dy=0 dh=0 dv=0
PairPos2: "'kern' Horizontal Kerning in Arabic lookup 0 subtable" kaf.init dx=75 dy=0 dh=75 dv=0 dx=0 dy=0 dh=0 dv=0
PairPos2: "'kern' Horizontal Kerning in Arabic lookup 0 subtable" uniFB8E dx=75 dy=0 dh=75 dv=0 dx=0 dy=0 dh=0 dv=0
PairPos2: "'kern' Horizontal Kerning in Arabic lookup 0 subtable" uniFB8A dx=100 dy=0 dh=100 dv=0 dx=0 dy=0 dh=0 dv=0
PairPos2: "'kern' Horizontal Kerning in Arabic lookup 0 subtable" che.init dx=100 dy=0 dh=100 dv=0 dx=0 dy=0 dh=0 dv=0
PairPos2: "'kern' Horizontal Kerning in Arabic lookup 0 subtable" uniFB7A dx=100 dy=0 dh=100 dv=0 dx=0 dy=0 dh=0 dv=0
PairPos2: "'kern' Horizontal Kerning in Arabic lookup 0 subtable" uniFB56 dx=100 dy=0 dh=100 dv=0 dx=0 dy=0 dh=0 dv=0
PairPos2: "'kern' Horizontal Kerning in Arabic lookup 0 subtable" uniFB50 dx=100 dy=0 dh=100 dv=0 dx=0 dy=0 dh=0 dv=0
PairPos2: "'kern' Horizontal Kerning in Arabic lookup 0 subtable" gaf.init dx=75 dy=0 dh=75 dv=0 dx=0 dy=0 dh=0 dv=0
PairPos2: "'kern' Horizontal Kerning in Arabic lookup 0 subtable" uniFB92 dx=75 dy=0 dh=75 dv=0 dx=0 dy=0 dh=0 dv=0
PairPos2: "'kern' Horizontal Kerning in Arabic lookup 0 subtable" uniFEFB dx=100 dy=0 dh=100 dv=0 dx=0 dy=0 dh=0 dv=0
PairPos2: "'kern' Horizontal Kerning in Arabic lookup 0 subtable" uniFE8D dx=100 dy=0 dh=100 dv=0 dx=0 dy=0 dh=0 dv=0
LCarets2: 1 1318
EndChar

